<svg width="148" height="135" viewBox="0 0 148 135" fill="none" xmlns="http://www.w3.org/2000/svg">
<path d="M2.14966 3.22159L1.99995 132.423" stroke="#121212" stroke-width="3" stroke-linecap="round"/>
<path d="M2 2H135.142" stroke="#121212" stroke-width="3" stroke-linecap="round"/>
<path d="M135.143 3.15417L134.839 132.653" stroke="#121212" stroke-width="3" stroke-linecap="round"/>
<path d="M2.77393 133H135.142" stroke="#121212" stroke-width="3" stroke-linecap="round"/>
<path d="M146 3.22159V131.728" stroke="#121212" stroke-width="3" stroke-linecap="round"/>
<path d="M135.143 3.15417H145.98" stroke="#121212" stroke-width="3" stroke-linecap="round"/>
<path d="M135.143 131.846L146 131.728" stroke="#121212" stroke-width="3" stroke-linecap="round"/>
<path d="M3.1521 2H134.48V59.0897V131.96H3.1521V2Z" fill="#962CC8"/>
<path d="M14.3626 23.768H20.7226C22.2426 23.768 23.5826 24.0613 24.7426 24.648C25.916 25.2213 26.8226 26.0347 27.4626 27.088C28.116 28.1413 28.4426 29.368 28.4426 30.768C28.4426 32.168 28.116 33.3947 27.4626 34.448C26.8226 35.5013 25.916 36.3213 24.7426 36.908C23.5826 37.4813 22.2426 37.768 20.7226 37.768H14.3626V23.768ZM20.5626 35.108C21.9626 35.108 23.076 34.7213 23.9026 33.948C24.7426 33.1613 25.1626 32.1013 25.1626 30.768C25.1626 29.4347 24.7426 28.3813 23.9026 27.608C23.076 26.8213 21.9626 26.428 20.5626 26.428H17.6026V35.108H20.5626ZM41.2061 32.428C41.2061 32.468 41.1861 32.748 41.1461 33.268H33.0061C33.1527 33.9347 33.4994 34.4613 34.0461 34.848C34.5927 35.2347 35.2727 35.428 36.0861 35.428C36.6461 35.428 37.1394 35.348 37.5661 35.188C38.0061 35.0147 38.4127 34.748 38.7861 34.388L40.4461 36.188C39.4327 37.348 37.9527 37.928 36.0061 37.928C34.7927 37.928 33.7194 37.6947 32.7861 37.228C31.8527 36.748 31.1327 36.088 30.6261 35.248C30.1194 34.408 29.8661 33.4547 29.8661 32.388C29.8661 31.3347 30.1127 30.388 30.6061 29.548C31.1127 28.6947 31.7994 28.0347 32.6661 27.568C33.5461 27.088 34.5261 26.848 35.6061 26.848C36.6594 26.848 37.6127 27.0747 38.4661 27.528C39.3194 27.9813 39.9861 28.6347 40.4661 29.488C40.9594 30.328 41.2061 31.308 41.2061 32.428ZM35.6261 29.208C34.9194 29.208 34.3261 29.408 33.8461 29.808C33.3661 30.208 33.0727 30.7547 32.9661 31.448H38.2661C38.1594 30.768 37.8661 30.228 37.3861 29.828C36.9061 29.4147 36.3194 29.208 35.6261 29.208ZM47.3303 26.848C48.997 26.848 50.277 27.248 51.1703 28.048C52.0636 28.8347 52.5103 30.028 52.5103 31.628V37.768H49.5903V36.428C49.0036 37.428 47.9103 37.928 46.3103 37.928C45.4836 37.928 44.7636 37.788 44.1503 37.508C43.5503 37.228 43.0903 36.8413 42.7703 36.348C42.4503 35.8547 42.2903 35.2947 42.2903 34.668C42.2903 33.668 42.6636 32.8813 43.4103 32.308C44.1703 31.7347 45.337 31.448 46.9103 31.448H49.3903C49.3903 30.768 49.1836 30.248 48.7703 29.888C48.357 29.5147 47.737 29.328 46.9103 29.328C46.337 29.328 45.7703 29.4213 45.2103 29.608C44.6636 29.7813 44.197 30.0213 43.8103 30.328L42.6903 28.148C43.277 27.7347 43.977 27.4147 44.7903 27.188C45.617 26.9613 46.4636 26.848 47.3303 26.848ZM47.0903 35.828C47.6236 35.828 48.097 35.708 48.5103 35.468C48.9236 35.2147 49.217 34.848 49.3903 34.368V33.268H47.2503C45.9703 33.268 45.3303 33.688 45.3303 34.528C45.3303 34.928 45.4836 35.248 45.7903 35.488C46.1103 35.7147 46.5436 35.828 47.0903 35.828ZM58.314 28.428C58.6874 27.908 59.1874 27.5147 59.814 27.248C60.454 26.9813 61.1874 26.848 62.014 26.848V29.728C61.6674 29.7013 61.434 29.688 61.314 29.688C60.4207 29.688 59.7207 29.9413 59.214 30.448C58.7074 30.9413 58.454 31.688 58.454 32.688V37.768H55.334V27.008H58.314V28.428ZM69.8314 23.768H76.1914C77.7114 23.768 79.0514 24.0613 80.2114 24.648C81.3847 25.2213 82.2914 26.0347 82.9314 27.088C83.5847 28.1413 83.9114 29.368 83.9114 30.768C83.9114 32.168 83.5847 33.3947 82.9314 34.448C82.2914 35.5013 81.3847 36.3213 80.2114 36.908C79.0514 37.4813 77.7114 37.768 76.1914 37.768H69.8314V23.768ZM76.0314 35.108C77.4314 35.108 78.5447 34.7213 79.3714 33.948C80.2114 33.1613 80.6314 32.1013 80.6314 30.768C80.6314 29.4347 80.2114 28.3813 79.3714 27.608C78.5447 26.8213 77.4314 26.428 76.0314 26.428H73.0714V35.108H76.0314ZM86.1348 27.008H89.2548V37.768H86.1348V27.008ZM87.6948 25.508C87.1215 25.508 86.6548 25.3413 86.2948 25.008C85.9348 24.6747 85.7548 24.2613 85.7548 23.768C85.7548 23.2747 85.9348 22.8613 86.2948 22.528C86.6548 22.1947 87.1215 22.028 87.6948 22.028C88.2682 22.028 88.7348 22.188 89.0948 22.508C89.4548 22.828 89.6348 23.228 89.6348 23.708C89.6348 24.228 89.4548 24.6613 89.0948 25.008C88.7348 25.3413 88.2682 25.508 87.6948 25.508ZM96.4904 26.848C98.1571 26.848 99.4371 27.248 100.33 28.048C101.224 28.8347 101.67 30.028 101.67 31.628V37.768H98.7504V36.428C98.1638 37.428 97.0704 37.928 95.4704 37.928C94.6438 37.928 93.9238 37.788 93.3104 37.508C92.7104 37.228 92.2504 36.8413 91.9304 36.348C91.6104 35.8547 91.4504 35.2947 91.4504 34.668C91.4504 33.668 91.8238 32.8813 92.5704 32.308C93.3304 31.7347 94.4971 31.448 96.0704 31.448H98.5504C98.5504 30.768 98.3438 30.248 97.9304 29.888C97.5171 29.5147 96.8971 29.328 96.0704 29.328C95.4971 29.328 94.9304 29.4213 94.3704 29.608C93.8238 29.7813 93.3571 30.0213 92.9704 30.328L91.8504 28.148C92.4371 27.7347 93.1371 27.4147 93.9504 27.188C94.7771 26.9613 95.6238 26.848 96.4904 26.848ZM96.2504 35.828C96.7838 35.828 97.2571 35.708 97.6704 35.468C98.0838 35.2147 98.3771 34.848 98.5504 34.368V33.268H96.4104C95.1304 33.268 94.4904 33.688 94.4904 34.528C94.4904 34.928 94.6438 35.248 94.9504 35.488C95.2704 35.7147 95.7038 35.828 96.2504 35.828ZM107.474 28.428C107.848 27.908 108.348 27.5147 108.974 27.248C109.614 26.9813 110.348 26.848 111.174 26.848V29.728C110.828 29.7013 110.594 29.688 110.474 29.688C109.581 29.688 108.881 29.9413 108.374 30.448C107.868 30.9413 107.614 31.688 107.614 32.688V37.768H104.494V27.008H107.474V28.428ZM124.08 27.008L119.22 38.428C118.727 39.668 118.114 40.5413 117.38 41.048C116.66 41.5547 115.787 41.808 114.76 41.808C114.2 41.808 113.647 41.7213 113.1 41.548C112.554 41.3747 112.107 41.1347 111.76 40.828L112.9 38.608C113.14 38.8213 113.414 38.988 113.72 39.108C114.04 39.228 114.354 39.288 114.66 39.288C115.087 39.288 115.434 39.1813 115.7 38.968C115.967 38.768 116.207 38.428 116.42 37.948L116.46 37.848L111.8 27.008H115.02L118.04 34.308L121.08 27.008H124.08Z" fill="white"/>
</svg>
