<svg width="1000" height="1000" viewBox="0 0 246 163" fill="none" xmlns="http://www.w3.org/2000/svg">
<g clip-path="url(#clip0_115_584)">
<path d="M71.9539 61.1251C71.239 83.1003 107.067 105.533 151.788 105.533C196.51 105.533 267.729 62.2099 233.904 61.1251C168.729 59.0348 146.394 36.9658 152.929 21.3215C164.633 -6.6963 73.3615 17.8559 71.9539 61.1251Z" fill="#3F3D56"/>
<path d="M134.714 34.3391L134.169 34.0553L134.516 33.6095L134.367 33.5323L134.02 33.9781L133.475 33.6944L133.38 33.8159L133.925 34.0996L133.578 34.5454L133.727 34.6228L134.074 34.177L134.619 34.4606L134.714 34.3391Z" fill="#AD63FF"/>
<path d="M175.261 66.6182L174.716 66.3344L175.063 65.8886L174.914 65.8114L174.567 66.2572L174.022 65.9735L173.927 66.0949L174.472 66.3787L174.125 66.8245L174.274 66.9019L174.621 66.4561L175.166 66.7396L175.261 66.6182Z" fill="#AD63FF"/>
<path d="M109.638 62.6923L109.093 62.4085L109.44 61.9627L109.291 61.8855L108.945 62.3313L108.399 62.0476L108.305 62.1691L108.85 62.4528L108.503 62.8986L108.652 62.976L108.999 62.5302L109.544 62.8138L109.638 62.6923Z" fill="#AD63FF"/>
<path d="M158.722 83.6301L158.177 83.3463L158.524 82.9005L158.375 82.8233L158.028 83.2691L157.483 82.9854L157.388 83.1068L157.933 83.3906L157.586 83.8364L157.735 83.9138L158.082 83.468L158.627 83.7516L158.722 83.6301Z" fill="#AD63FF"/>
<path d="M113.106 75.5603L112.561 75.2765L112.908 74.8307L112.759 74.7535L112.412 75.1993L111.867 74.9156L111.772 75.0371L112.318 75.3208L111.971 75.7666L112.12 75.844L112.466 75.3982L113.012 75.6818L113.106 75.5603Z" fill="#AD63FF"/>
<path d="M223.01 64.8733L222.465 64.5896L222.812 64.1438L222.663 64.0666L222.317 64.5124L221.771 64.2286L221.677 64.3501L222.222 64.6339L221.875 65.0797L222.024 65.1571L222.371 64.7113L222.916 64.9948L223.01 64.8733Z" fill="#AD63FF"/>
<path d="M101.903 38.483L101.357 38.1992L101.704 37.7534L101.556 37.6762L101.209 38.122L100.664 37.8383L100.569 37.9597L101.114 38.2435L100.767 38.6893L100.916 38.7667L101.263 38.3209L101.808 38.6045L101.903 38.483Z" fill="#AD63FF"/>
<path d="M147.518 43.3857L146.755 42.9887L147.241 42.3645L147.032 42.2563L146.547 42.8803L145.783 42.4832L145.651 42.6535L146.414 43.0505L145.929 43.6747L146.137 43.7831L146.622 43.1589L147.386 43.556L147.518 43.3857Z" fill="white"/>
<path d="M120.042 51.6346C120.484 51.6346 120.842 51.3417 120.842 50.9803C120.842 50.619 120.484 50.326 120.042 50.326C119.6 50.326 119.242 50.619 119.242 50.9803C119.242 51.3417 119.6 51.6346 120.042 51.6346Z" fill="#AD63FF"/>
<path d="M88.8315 51.6346C89.2735 51.6346 89.6318 51.3417 89.6318 50.9803C89.6318 50.619 89.2735 50.326 88.8315 50.326C88.3895 50.326 88.0312 50.619 88.0312 50.9803C88.0312 51.3417 88.3895 51.6346 88.8315 51.6346Z" fill="#AD63FF"/>
<path d="M143.25 27.6435C143.692 27.6435 144.05 27.3505 144.05 26.9892C144.05 26.6278 143.692 26.3349 143.25 26.3349C142.808 26.3349 142.45 26.6278 142.45 26.9892C142.45 27.3505 142.808 27.6435 143.25 27.6435Z" fill="#AD63FF"/>
<path d="M135.781 67.5561C136.223 67.5561 136.581 67.2632 136.581 66.9018C136.581 66.5404 136.223 66.2475 135.781 66.2475C135.339 66.2475 134.98 66.5404 134.98 66.9018C134.98 67.2632 135.339 67.5561 135.781 67.5561Z" fill="#AD63FF"/>
<path d="M135.247 53.5976C135.542 53.5976 135.781 53.4023 135.781 53.1614C135.781 52.9205 135.542 52.7252 135.247 52.7252C134.953 52.7252 134.714 52.9205 134.714 53.1614C134.714 53.4023 134.953 53.5976 135.247 53.5976Z" fill="#AD63FF"/>
<path d="M189.933 72.7906C190.227 72.7906 190.466 72.5953 190.466 72.3544C190.466 72.1135 190.227 71.9182 189.933 71.9182C189.638 71.9182 189.399 72.1135 189.399 72.3544C189.399 72.5953 189.638 72.7906 189.933 72.7906Z" fill="#FF6584"/>
<path d="M108.305 49.0175C108.599 49.0175 108.838 48.8222 108.838 48.5813C108.838 48.3404 108.599 48.1451 108.305 48.1451C108.01 48.1451 107.771 48.3404 107.771 48.5813C107.771 48.8222 108.01 49.0175 108.305 49.0175Z" fill="#FF6584"/>
<path d="M141.649 13.6849C141.944 13.6849 142.183 13.4896 142.183 13.2487C142.183 13.0078 141.944 12.8125 141.649 12.8125C141.355 12.8125 141.116 13.0078 141.116 13.2487C141.116 13.4896 141.355 13.6849 141.649 13.6849Z" fill="#FF6584"/>
<path d="M119.775 33.9684C120.07 33.9684 120.309 33.7731 120.309 33.5322C120.309 33.2912 120.07 33.0959 119.775 33.0959C119.481 33.0959 119.242 33.2912 119.242 33.5322C119.242 33.7731 119.481 33.9684 119.775 33.9684Z" fill="#AD63FF"/>
<path d="M126.444 19.3556C126.739 19.3556 126.978 19.1603 126.978 18.9194C126.978 18.6785 126.739 18.4832 126.444 18.4832C126.15 18.4832 125.911 18.6785 125.911 18.9194C125.911 19.1603 126.15 19.3556 126.444 19.3556Z" fill="white"/>
<path d="M206.205 58.8321C206.647 58.8321 207.005 58.5391 207.005 58.1777C207.005 57.8164 206.647 57.5234 206.205 57.5234C205.763 57.5234 205.405 57.8164 205.405 58.1777C205.405 58.5391 205.763 58.8321 206.205 58.8321Z" fill="#AD63FF"/>
<path d="M153.12 61.2312C153.562 61.2312 153.92 60.9383 153.92 60.5769C153.92 60.2155 153.562 59.9226 153.12 59.9226C152.678 59.9226 152.32 60.2155 152.32 60.5769C152.32 60.9383 152.678 61.2312 153.12 61.2312Z" fill="#AD63FF"/>
<path d="M139.515 78.2431C140.989 78.2431 142.183 77.2666 142.183 76.0621C142.183 74.8575 140.989 73.881 139.515 73.881C138.042 73.881 136.848 74.8575 136.848 76.0621C136.848 77.2666 138.042 78.2431 139.515 78.2431Z" fill="#AD63FF"/>
<path d="M171.793 52.9433C172.235 52.9433 172.593 52.6504 172.593 52.289C172.593 51.9276 172.235 51.6347 171.793 51.6347C171.351 51.6347 170.993 51.9276 170.993 52.289C170.993 52.6504 171.351 52.9433 171.793 52.9433Z" fill="white"/>
<path d="M24.5226 157.167C24.5226 157.167 23.0295 162.272 24.3869 162.494C25.7442 162.716 32.395 162.645 34.0237 162.866C35.6525 163.088 39.0457 162.716 39.0457 161.717C39.0457 160.719 35.5168 160.053 35.5168 160.053C35.5168 160.053 30.4947 157.833 30.359 157.722C30.2233 157.611 24.5226 157.167 24.5226 157.167Z" fill="#2F2E41"/>
<path d="M26.1212 120.718C26.1212 120.718 26.608 125.229 26.608 125.627C26.608 126.025 23.6869 146.989 24.3361 151.234C24.9852 155.48 24.276 156.836 24.276 157.632C24.276 158.428 29.5291 158.134 29.5291 158.134L35.2089 128.811L32.2879 120.054L26.1212 120.718Z" fill="#2F2E41"/>
<path d="M26.4231 158.285C26.4231 158.285 25.0658 162.28 26.4231 162.502C27.7804 162.724 34.4312 162.248 36.0599 162.47C37.6887 162.691 41.082 162.724 41.082 161.725C41.082 160.726 37.553 160.06 37.553 160.06C37.553 160.06 32.5309 157.841 32.3952 157.73C32.2595 157.619 26.4231 158.285 26.4231 158.285Z" fill="#2F2E41"/>
<path d="M24.6608 115.41C24.6608 115.41 22.7135 119.258 24.9854 121.248C27.2573 123.239 29.8538 127.219 29.8538 127.484C29.8538 127.75 25.31 154.153 25.9591 155.878C26.6082 157.603 26.4459 158.665 26.2836 158.93C26.1214 159.195 27.9064 160.655 29.8538 160.655C31.8012 160.655 34.7222 159.461 35.0468 158.399C35.3713 157.338 34.5599 148.183 34.7222 146.458C34.8845 144.733 41.3757 117.135 40.5643 116.472C39.753 115.808 24.6608 115.41 24.6608 115.41Z" fill="#2F2E41"/>
<path d="M36.9941 84.8937C40.0414 84.8937 42.5117 82.874 42.5117 80.3825C42.5117 77.8911 40.0414 75.8713 36.9941 75.8713C33.9469 75.8713 31.4766 77.8911 31.4766 80.3825C31.4766 82.874 33.9469 84.8937 36.9941 84.8937Z" fill="#9F616A"/>
<path d="M33.5862 82.6381C33.5862 82.6381 34.7221 87.5473 33.9107 88.078C33.0993 88.6087 40.0774 89.4048 40.0774 89.4048C40.0774 89.4048 40.8888 82.9034 41.0511 82.24C41.2134 81.5766 33.5862 82.6381 33.5862 82.6381Z" fill="#9F616A"/>
<path d="M41.0512 89.0067C41.0512 89.0067 42.098 84.3318 34.1462 85.6586C34.1462 85.6586 26.886 90.5258 27.2105 95.037C27.5351 99.5481 24.6609 112.624 24.9854 113.553C25.31 114.482 23.038 115.676 24.0117 116.074C24.9854 116.472 42.5118 118.86 42.9986 116.074C43.4854 113.287 42.8363 106.255 43.1609 104.929C43.4854 103.602 43.1609 92.4565 42.1872 91.1297C41.2135 89.8029 41.0512 89.0067 41.0512 89.0067Z" fill="#AD63FF"/>
<path d="M37.6432 121.381C37.6432 121.381 35.2089 128.944 38.2923 128.944C41.3756 128.944 41.2134 121.116 41.2134 121.116L37.6432 121.381Z" fill="#9F616A"/>
<path d="M39.2419 81.1353C39.1715 81.5157 38.4529 81.6738 37.3982 81.5997L37.3966 81.5995C36.9499 81.5653 36.5071 81.5033 36.0719 81.4142C35.4136 81.2818 35.0427 81.7606 34.8035 82.4234C34.4109 83.5168 34.3812 85.1141 34.0358 85.3223C31.6244 86.412 24.4991 79.1056 28.1503 77.2139C29.4507 76.5401 33.8283 74.0246 36.8527 74.5328C39.877 75.0411 38.6527 78.1102 38.6527 78.1102C38.6527 78.1102 38.7636 78.5131 38.8894 79.0305C39.0686 79.6825 39.1897 80.3441 39.2519 81.0104C39.2518 81.0521 39.2485 81.0939 39.2419 81.1353Z" fill="#2F2E41"/>
<path d="M39.5905 90.3335C39.5905 90.3335 34.073 90.0682 33.5861 96.7023C33.0993 103.336 33.2616 109.572 33.2616 109.705C33.2616 109.838 35.5335 122.443 37.6431 122.443C39.7528 122.443 41.3756 122.177 41.8624 121.514C42.3493 120.85 40.5642 111.297 40.5642 111.297C40.5642 111.297 39.7528 101.213 41.051 98.0291C42.3493 94.8447 42.5116 90.7316 39.5905 90.3335Z" fill="#AD63FF"/>
<path opacity="0.1" d="M33.3459 98.5267L31.7454 112.703L37.0805 122.518L33.6127 112.485L33.3459 98.3086" fill="black"/>
<path opacity="0.1" d="M41.0819 100.053L41.4895 116.766L40.0149 107.687L41.0819 100.053Z" fill="black"/>
<path d="M68.7536 163H0V162.541H68.8555L68.7536 163Z" fill="#3F3D56"/>
</g>
<defs>
<clipPath id="clip0_115_584">
<rect width="246" height="163" fill="white"/>
</clipPath>
</defs>
</svg>
