<svg width="223" height="148" viewBox="0 0 223 148" fill="none" xmlns="http://www.w3.org/2000/svg">
<g clip-path="url(#clip0_115_417)">
<path d="M213.294 66.2653C212.418 65.0471 211.487 63.8685 210.502 62.7297C205.519 56.949 199.313 52.3259 192.326 49.1882C190.417 48.3301 188.457 47.5887 186.457 46.9682C185.068 46.5364 183.655 46.1643 182.218 45.8516L179.508 45.325C172.681 44.1928 165.697 44.4158 158.958 45.981C152.22 47.5463 145.862 50.4227 140.254 54.4432C138.906 54.2807 137.542 54.1722 136.161 54.1176C136.109 53.9743 136.054 53.831 135.998 53.6859C135.538 52.4776 135.044 51.2866 134.517 50.113C131.575 43.5404 127.624 37.459 122.804 32.085C122.583 31.8393 122.361 31.5937 122.136 31.3518C118.924 27.87 115.367 24.7173 111.519 21.9414C99.556 13.3277 85.1506 8.68726 70.3652 8.68463H70.2657C69.1695 8.68463 68.0802 8.71006 66.9977 8.76093L62.8174 9.07355C62.4739 9.10891 62.1304 9.14613 61.7887 9.18893L57.5634 9.82162C56.4446 10.0226 55.3353 10.2515 54.2353 10.5083C39.2855 13.9963 25.8956 22.2333 16.1056 33.9645C14.9193 35.3824 13.7931 36.8482 12.7269 38.3617C12.2182 39.08 11.7226 39.8038 11.2439 40.5407C11.0131 40.8943 10.7859 41.2479 10.5607 41.6052C9.81735 42.7849 9.11281 43.9877 8.44706 45.2134C7.73752 46.5122 7.06927 47.8347 6.44232 49.1807C6.43653 49.1915 6.43152 49.2027 6.4273 49.2142C4.41406 53.5396 2.85839 58.0603 1.78522 62.7036C1.50115 63.9243 1.25087 65.1562 1.03438 66.3993C0.949284 66.8757 0.870445 67.3533 0.797864 67.8322L0.775339 67.9922C0.587628 69.2948 0.420566 70.5974 0.298554 71.9242L0.135246 71.9391C0.148386 71.9782 0.161526 72.0172 0.170911 72.0582C0.206189 72.0792 0.242527 72.0985 0.279783 72.1159C0.264766 72.2852 0.251627 72.4545 0.238487 72.622C0.247933 72.7724 0.235926 72.9234 0.202822 73.0705C0.0676704 74.8073 9.46393e-05 76.5652 9.46393e-05 78.3442C-0.0185638 89.5865 2.72197 100.665 7.9853 110.623L8.0585 110.76C13.3897 120.781 21.0966 129.367 30.5162 135.782C38.0059 140.895 46.431 144.509 55.3184 146.42L56.8707 146.735C59.0156 147.146 61.1949 147.457 63.4087 147.665C65.6612 147.881 67.9469 147.989 70.2657 147.991C73.4887 147.992 76.7079 147.774 79.9009 147.339H162.567L163.239 147.442C173.359 148.921 183.696 147.418 192.961 143.117C202.226 138.817 210.01 131.91 215.346 123.257C220.681 114.604 223.331 104.586 222.966 94.4506C222.601 84.3153 219.237 74.5103 213.294 66.256V66.2653Z" fill="url(#paint0_linear_115_417)"/>
<path opacity="0.3" d="M185.646 104.385C185.636 103.777 185.616 103.176 185.582 102.573C185.542 101.816 185.486 101.062 185.415 100.312C185.209 98.1836 184.869 96.0705 184.396 93.9848C184.375 93.8917 184.352 93.7987 184.33 93.7038C183.954 92.0972 183.506 90.5198 182.984 88.9716C182.631 87.932 182.246 86.9116 181.83 85.9105C181.682 85.5495 181.529 85.1928 181.372 84.8405C180.646 83.1857 179.831 81.5706 178.931 80.0022L178.813 79.7975C178.541 79.3286 178.25 78.8671 177.972 78.4L177.858 78.214C177.803 78.1265 177.749 78.0521 177.702 77.9683V77.9572C177.334 77.3778 176.955 76.8078 176.564 76.247C175.339 74.4852 174.003 72.8009 172.566 71.2041C170.448 68.8532 168.118 66.6993 165.604 64.7692C164.979 64.2947 164.346 63.8295 163.699 63.3792C156.755 58.534 148.707 55.4726 140.276 54.4693C138.928 54.3068 137.564 54.1983 136.184 54.1437C135.844 54.1288 135.505 54.1195 135.165 54.1139C134.789 54.1027 134.414 54.1009 134.038 54.1009C131.834 54.1008 129.633 54.2388 127.446 54.514C123.795 54.9765 120.204 55.8262 116.735 57.0485C112.192 49.3 105.676 42.8692 97.8401 38.3988C90.0041 33.9283 81.1218 31.5748 72.0809 31.5733C70.2399 31.5718 68.4001 31.6693 66.5697 31.8654C66.367 31.8822 66.1643 31.9064 65.9615 31.9306C63.4795 32.2211 61.0221 32.6906 58.6089 33.3355C57.8919 32.1669 57.1279 31.0225 56.3189 29.9153C55.5098 28.808 54.6877 27.7585 53.8092 26.735C53.0583 25.8666 52.2837 25.0218 51.4853 24.2005C51.4605 24.1731 51.4341 24.147 51.4065 24.1224C50.1603 22.8546 48.8483 21.6521 47.4758 20.5198C46.7437 19.9131 45.9948 19.3251 45.2233 18.7631C44.2585 18.0485 43.268 17.3699 42.2518 16.7273C41.5385 16.2733 40.814 15.8391 40.0781 15.4247C30.8243 19.8059 22.6439 26.1324 16.1056 33.9645C14.9193 35.3825 13.7931 36.8482 12.7269 38.3617C12.2182 39.08 11.7226 39.8039 11.2439 40.5408C11.0131 40.8943 10.7859 41.2479 10.5607 41.6052C9.81735 42.785 9.11281 43.9877 8.44706 45.2134C7.73752 46.5123 7.06927 47.8347 6.44232 49.1808C6.43653 49.1916 6.43152 49.2028 6.4273 49.2143C4.41406 53.5397 2.85839 58.0603 1.78522 62.7037C1.50115 63.9244 1.25087 65.1563 1.03438 66.3993C0.949284 66.8757 0.870445 67.3533 0.797864 67.8322L0.775339 67.9922C0.587628 69.2948 0.420566 70.5974 0.298554 71.9242L0.135246 71.9391C0.148386 71.9782 0.161526 72.0173 0.170911 72.0582C0.206189 72.0793 0.242527 72.0985 0.279783 72.1159C0.264766 72.2852 0.251627 72.4546 0.238487 72.6221C0.247933 72.7725 0.235926 72.9234 0.202822 73.0705C0.0676704 74.8073 9.46393e-05 76.5652 9.46393e-05 78.3442C-0.0185638 89.5865 2.72197 100.665 7.9853 110.623C8.04724 110.632 8.11106 110.641 8.17301 110.647C14.7848 111.446 21.4901 110.975 27.922 109.259C28.5077 110.216 29.1246 111.153 29.7728 112.069C30.2521 112.748 30.7477 113.415 31.2595 114.067C35.5098 119.504 40.8173 124.041 46.8676 127.408C47.1323 127.557 47.4007 127.7 47.6692 127.843C50.0822 129.13 52.5964 130.222 55.187 131.107C56.1881 131.453 57.2086 131.769 58.2485 132.054C58.3067 132.069 58.3649 132.088 58.4231 132.101C61.6836 132.984 65.0242 133.545 68.3961 133.776C69.6125 133.864 70.8401 133.908 72.079 133.908C74.8668 133.908 77.65 133.686 80.4021 133.245C82.1205 132.968 83.8233 132.603 85.5041 132.153C86.8181 131.804 88.1101 131.405 89.3803 130.956C89.7369 131.563 90.1055 132.161 90.4859 132.75C91.7824 134.769 93.222 136.695 94.7939 138.511C95.581 139.427 96.4013 140.313 97.2547 141.171C99.5233 143.455 102.002 145.523 104.66 147.349H162.567L163.239 147.451C165.953 145.602 168.484 143.501 170.798 141.178C178.195 133.746 183.115 124.243 184.895 113.952C185.066 112.959 185.208 111.963 185.321 110.963C185.535 109.071 185.644 107.168 185.646 105.263C185.646 104.966 185.646 104.675 185.646 104.385Z" fill="#AD63FF"/>
<path d="M223 96.3071C222.993 105.412 220.565 114.354 215.961 122.231C211.357 130.109 204.739 136.644 196.775 141.178H95.1372C95.0121 140.291 94.8988 139.405 94.7974 138.519C94.7167 137.856 94.6416 137.196 94.5703 136.533C94.4464 135.383 94.3376 134.224 94.2531 133.055C93.8026 126.799 94.0654 120.402 96.5807 114.802C96.8984 114.086 97.2543 113.386 97.6469 112.707C98.2281 111.706 98.8838 110.75 99.6085 109.847C100.251 109.049 100.941 108.289 101.673 107.571C102.658 106.61 103.706 105.715 104.81 104.891C105.337 104.495 105.88 104.11 106.432 103.739L106.533 103.672C109.362 101.786 112.474 100.241 115.609 98.9235L116.258 98.6555L116.427 98.5867C116.733 98.4601 117.039 98.3392 117.345 98.2145L117.467 98.1661C119.12 97.5136 120.785 96.9082 122.462 96.3499C125.31 95.3984 128.199 94.5802 131.129 93.8954C131.857 93.7242 132.588 93.5624 133.321 93.4098C134.031 93.2597 134.742 93.1182 135.456 92.9855C137.034 92.6878 138.618 92.4297 140.208 92.2114C140.374 92.189 140.537 92.1667 140.702 92.1481L141.742 92.0123L141.93 91.9899C142.228 91.9527 142.528 91.9192 142.829 91.8857C144.055 91.7462 145.282 91.6271 146.51 91.5135C146.559 91.5135 146.606 91.5136 146.652 91.4968H146.664C147.964 91.3876 149.265 91.2859 150.568 91.1916L151.48 91.1246L152.231 91.0725C153.718 90.9683 155.205 90.8641 156.691 90.7599C157.896 90.6687 159.099 90.5738 160.303 90.4677C160.507 90.451 160.71 90.4342 160.915 90.4138L161.33 90.3747C161.367 90.3737 161.405 90.37 161.442 90.3635H161.495L162.191 90.2947C162.205 90.2938 162.219 90.2938 162.232 90.2947C162.433 90.2761 162.63 90.2556 162.829 90.2333C164.425 90.0695 166.02 89.876 167.605 89.6397L168.089 89.5689C170.836 89.1518 173.555 88.5689 176.23 87.8235C176.841 87.651 177.448 87.4687 178.051 87.2764C178.743 87.0543 179.431 86.8186 180.116 86.5692L180.405 86.4632C180.881 86.2771 181.354 86.091 181.824 85.9049C182.507 85.6258 183.183 85.3262 183.847 85.0117L183.934 84.9726C184.724 84.6004 185.5 84.201 186.261 83.7742C186.614 83.577 186.965 83.3723 187.31 83.162C189.062 82.1164 190.712 80.9129 192.24 79.5668C192.356 79.4626 192.471 79.3603 192.583 79.256L192.621 79.2226C194.113 77.8189 195.518 76.3275 196.829 74.7565C198.695 72.583 200.501 70.3481 202.56 68.3588C203.161 67.7782 203.786 67.22 204.437 66.6841C205.188 66.07 205.954 65.4913 206.75 64.9479L206.868 64.866C208.033 64.0742 209.247 63.3552 210.502 62.713C211.484 63.8506 212.415 65.0291 213.293 66.2486C219.626 75.0123 223.021 85.5269 223 96.3071Z" fill="#AD63FF"/>
<path opacity="0.2" d="M223 96.3071C222.993 105.412 220.565 114.354 215.961 122.231C211.357 130.109 204.739 136.644 196.775 141.178H95.1372C95.0121 140.291 94.8988 139.405 94.7974 138.519C94.7167 137.856 94.6416 137.196 94.5703 136.533C94.4464 135.383 94.3376 134.224 94.2531 133.055C93.8026 126.799 94.0654 120.402 96.5807 114.802C96.8984 114.086 97.2543 113.386 97.6469 112.707C98.2281 111.706 98.8838 110.75 99.6085 109.847C100.251 109.049 100.941 108.289 101.673 107.571C102.658 106.61 103.706 105.715 104.81 104.891C105.337 104.495 105.88 104.11 106.432 103.739L106.533 103.672C109.362 101.786 112.474 100.241 115.609 98.9235L116.258 98.6555L116.427 98.5867C116.733 98.4601 117.039 98.3392 117.345 98.2145L117.467 98.1661C119.12 97.5136 120.785 96.9082 122.462 96.3499C125.31 95.3984 128.199 94.5802 131.129 93.8954C131.857 93.7242 132.588 93.5624 133.321 93.4098C134.031 93.2597 134.742 93.1182 135.456 92.9855C137.034 92.6878 138.618 92.4297 140.208 92.2114C140.374 92.189 140.537 92.1667 140.702 92.1481L141.742 92.0123L141.93 91.9899C142.228 91.9527 142.528 91.9192 142.829 91.8857C144.055 91.7462 145.282 91.6271 146.51 91.5135C146.559 91.5135 146.606 91.5136 146.652 91.4968H146.664C147.964 91.3876 149.265 91.2859 150.568 91.1916L151.48 91.1246L152.231 91.0725C153.718 90.9683 155.205 90.8641 156.691 90.7599C157.896 90.6687 159.099 90.5738 160.303 90.4677C160.507 90.451 160.71 90.4342 160.915 90.4138L161.33 90.3747C161.367 90.3737 161.405 90.37 161.442 90.3635H161.495L162.191 90.2947C162.205 90.2938 162.219 90.2938 162.232 90.2947C162.433 90.2761 162.63 90.2556 162.829 90.2333C164.425 90.0695 166.02 89.876 167.605 89.6397L168.089 89.5689C170.836 89.1518 173.555 88.5689 176.23 87.8235C176.841 87.651 177.448 87.4687 178.051 87.2764C178.743 87.0543 179.431 86.8186 180.116 86.5692L180.405 86.4632C180.881 86.2771 181.354 86.091 181.824 85.9049C182.507 85.6258 183.183 85.3262 183.847 85.0117L183.934 84.9726C184.724 84.6004 185.5 84.201 186.261 83.7742C186.614 83.577 186.965 83.3723 187.31 83.162C189.062 82.1164 190.712 80.9129 192.24 79.5668C192.356 79.4626 192.471 79.3603 192.583 79.256L192.621 79.2226C194.113 77.8189 195.518 76.3275 196.829 74.7565C198.695 72.583 200.501 70.3481 202.56 68.3588C203.161 67.7782 203.786 67.22 204.437 66.6841C205.188 66.07 205.954 65.4913 206.75 64.9479L206.868 64.866C208.033 64.0742 209.247 63.3552 210.502 62.713C211.484 63.8506 212.415 65.0291 213.293 66.2486C219.626 75.0123 223.021 85.5269 223 96.3071Z" fill="black"/>
<path d="M37.0333 95.252C37.5942 95.252 38.0488 94.6613 38.0488 93.9326C38.0488 93.204 37.5942 92.6133 37.0333 92.6133C36.4725 92.6133 36.0178 93.204 36.0178 93.9326C36.0178 94.6613 36.4725 95.252 37.0333 95.252Z" fill="#3F3D56"/>
<path d="M37.0333 93.6405C37.5942 93.6405 38.0488 93.0498 38.0488 92.3212C38.0488 91.5925 37.5942 91.0018 37.0333 91.0018C36.4725 91.0018 36.0178 91.5925 36.0178 92.3212C36.0178 93.0498 36.4725 93.6405 37.0333 93.6405Z" fill="#3F3D56"/>
<path d="M37.0333 92.029C37.5942 92.029 38.0488 91.4383 38.0488 90.7096C38.0488 89.981 37.5942 89.3903 37.0333 89.3903C36.4725 89.3903 36.0178 89.981 36.0178 90.7096C36.0178 91.4383 36.4725 92.029 37.0333 92.029Z" fill="#3F3D56"/>
<path d="M37.0333 90.4175C37.5942 90.4175 38.0488 89.8268 38.0488 89.0982C38.0488 88.3695 37.5942 87.7788 37.0333 87.7788C36.4725 87.7788 36.0178 88.3695 36.0178 89.0982C36.0178 89.8268 36.4725 90.4175 37.0333 90.4175Z" fill="#3F3D56"/>
<path d="M37.0333 88.806C37.5942 88.806 38.0488 88.2153 38.0488 87.4867C38.0488 86.758 37.5942 86.1673 37.0333 86.1673C36.4725 86.1673 36.0178 86.758 36.0178 87.4867C36.0178 88.2153 36.4725 88.806 37.0333 88.806Z" fill="#3F3D56"/>
<path d="M37.0333 87.1945C37.5942 87.1945 38.0488 86.6038 38.0488 85.8751C38.0488 85.1465 37.5942 84.5558 37.0333 84.5558C36.4725 84.5558 36.0178 85.1465 36.0178 85.8751C36.0178 86.6038 36.4725 87.1945 37.0333 87.1945Z" fill="#3F3D56"/>
<path d="M37.0333 85.5829C37.5942 85.5829 38.0488 84.9922 38.0488 84.2636C38.0488 83.5349 37.5942 82.9442 37.0333 82.9442C36.4725 82.9442 36.0178 83.5349 36.0178 84.2636C36.0178 84.9922 36.4725 85.5829 37.0333 85.5829Z" fill="#3F3D56"/>
<path d="M40.8365 73.2343C40.9743 73.0569 41.0998 72.8704 41.2119 72.676L38.5426 72.2424L41.4296 72.2629C41.7061 71.6654 41.8568 71.0183 41.8726 70.3612C41.8884 69.704 41.769 69.0506 41.5216 68.4407L37.6473 70.4318L41.2138 67.8266C40.8798 67.2521 40.43 66.7521 39.8924 66.3576C39.3548 65.9632 38.7409 65.6828 38.0892 65.5339C37.4374 65.3851 36.7617 65.3711 36.1042 65.4926C35.4467 65.6142 34.8216 65.8688 34.2677 66.2406C33.7139 66.6123 33.2433 67.0932 32.8853 67.6533C32.5273 68.2133 32.2896 68.8405 32.187 69.4957C32.0844 70.1509 32.1191 70.82 32.2889 71.4613C32.4587 72.1026 32.7601 72.7024 33.1741 73.2231C32.9549 73.4955 32.7661 73.7906 32.611 74.1033L36.078 75.8878L32.382 74.6578C32.1222 75.4182 32.0579 76.2308 32.1949 77.022C32.3319 77.8132 32.6659 78.5581 33.1666 79.189C32.6018 79.9007 32.2505 80.7557 32.1528 81.656C32.055 82.5564 32.2148 83.4658 32.6139 84.2804C33.0129 85.0949 33.6352 85.7817 34.4094 86.2622C35.1837 86.7427 36.0787 86.9975 36.9921 86.9975C37.9056 86.9975 38.8006 86.7427 39.5749 86.2622C40.3491 85.7817 40.9713 85.0949 41.3704 84.2804C41.7695 83.4658 41.9293 82.5564 41.8315 81.656C41.7338 80.7557 41.3824 79.9007 40.8177 79.189C41.4927 78.3387 41.8597 77.2881 41.8597 76.2061C41.8597 75.124 41.4927 74.0734 40.8177 73.2231L40.8365 73.2343Z" fill="#AD63FF"/>
<path opacity="0.03" d="M32.1436 76.2172C32.1437 77.2975 32.5107 78.3462 33.1853 79.1946C32.6206 79.9063 32.2692 80.7612 32.1715 81.6616C32.0738 82.5619 32.2336 83.4714 32.6326 84.2859C33.0317 85.1005 33.6539 85.7873 34.4282 86.2678C35.2024 86.7483 36.0974 87.0031 37.0109 87.0031C37.9243 87.0031 38.8194 86.7483 39.5936 86.2678C40.3679 85.7873 40.9901 85.1005 41.3891 84.2859C41.7882 83.4714 41.948 82.5619 41.8503 81.6616C41.7525 80.7612 41.4012 79.9063 40.8364 79.1946C41.484 78.3795 32.1436 75.6757 32.1436 76.2172Z" fill="black"/>
<path d="M47.7328 99.5319C48.2936 99.5319 48.7483 98.9413 48.7483 98.2126C48.7483 97.4839 48.2936 96.8932 47.7328 96.8932C47.1719 96.8932 46.7173 97.4839 46.7173 98.2126C46.7173 98.9413 47.1719 99.5319 47.7328 99.5319Z" fill="#3F3D56"/>
<path d="M47.7328 97.9204C48.2936 97.9204 48.7483 97.3297 48.7483 96.6011C48.7483 95.8724 48.2936 95.2817 47.7328 95.2817C47.1719 95.2817 46.7173 95.8724 46.7173 96.6011C46.7173 97.3297 47.1719 97.9204 47.7328 97.9204Z" fill="#3F3D56"/>
<path d="M47.7328 96.309C48.2936 96.309 48.7483 95.7183 48.7483 94.9896C48.7483 94.261 48.2936 93.6703 47.7328 93.6703C47.1719 93.6703 46.7173 94.261 46.7173 94.9896C46.7173 95.7183 47.1719 96.309 47.7328 96.309Z" fill="#3F3D56"/>
<path d="M47.7328 94.6975C48.2936 94.6975 48.7483 94.1068 48.7483 93.3781C48.7483 92.6495 48.2936 92.0588 47.7328 92.0588C47.1719 92.0588 46.7173 92.6495 46.7173 93.3781C46.7173 94.1068 47.1719 94.6975 47.7328 94.6975Z" fill="#3F3D56"/>
<path d="M47.7328 93.0858C48.2936 93.0858 48.7483 92.4951 48.7483 91.7665C48.7483 91.0378 48.2936 90.4471 47.7328 90.4471C47.1719 90.4471 46.7173 91.0378 46.7173 91.7665C46.7173 92.4951 47.1719 93.0858 47.7328 93.0858Z" fill="#3F3D56"/>
<path d="M47.7328 91.4744C48.2936 91.4744 48.7483 90.8837 48.7483 90.155C48.7483 89.4264 48.2936 88.8357 47.7328 88.8357C47.1719 88.8357 46.7173 89.4264 46.7173 90.155C46.7173 90.8837 47.1719 91.4744 47.7328 91.4744Z" fill="#3F3D56"/>
<path d="M47.7328 89.8629C48.2936 89.8629 48.7483 89.2722 48.7483 88.5435C48.7483 87.8149 48.2936 87.2242 47.7328 87.2242C47.1719 87.2242 46.7173 87.8149 46.7173 88.5435C46.7173 89.2722 47.1719 89.8629 47.7328 89.8629Z" fill="#3F3D56"/>
<path d="M51.5359 77.5142C51.6738 77.3369 51.7992 77.1503 51.9113 76.956L49.2421 76.5224L52.1291 76.5429C52.4055 75.9454 52.5563 75.2983 52.5721 74.6411C52.5879 73.984 52.4685 73.3305 52.2211 72.7206L48.3467 74.7118L51.9132 72.1066C51.5792 71.5321 51.1294 71.032 50.5918 70.6376C50.0542 70.2431 49.4404 69.9627 48.7886 69.8139C48.1369 69.6651 47.4612 69.651 46.8037 69.7726C46.1462 69.8942 45.521 70.1488 44.9672 70.5205C44.4134 70.8923 43.9428 71.3732 43.5848 71.9332C43.2268 72.4933 42.9891 73.1205 42.8864 73.7757C42.7838 74.4309 42.8185 75.1 42.9884 75.7413C43.1582 76.3826 43.4595 76.9823 43.8736 77.5031C43.6543 77.7754 43.4655 78.0705 43.3104 78.3832L46.7775 80.1678L43.0814 78.9378C42.8217 79.6982 42.7574 80.5108 42.8944 81.302C43.0314 82.0932 43.3654 82.838 43.8661 83.469C43.3013 84.1807 42.95 85.0356 42.8522 85.936C42.7545 86.8363 42.9143 87.7458 43.3133 88.5603C43.7124 89.3749 44.3346 90.0617 45.1089 90.5422C45.8831 91.0227 46.7782 91.2775 47.6916 91.2775C48.6051 91.2775 49.5001 91.0227 50.2743 90.5422C51.0486 90.0617 51.6708 89.3749 52.0699 88.5603C52.4689 87.7458 52.6287 86.8363 52.531 85.936C52.4333 85.0356 52.0819 84.1807 51.5172 83.469C52.1922 82.6187 52.5592 81.5681 52.5592 80.486C52.5592 79.404 52.1922 78.3534 51.5172 77.5031L51.5359 77.5142Z" fill="#AD63FF"/>
<path opacity="0.03" d="M42.843 80.4972C42.8432 81.5774 43.2102 82.6262 43.8848 83.4746C43.3201 84.1863 42.9687 85.0412 42.871 85.9415C42.7732 86.8419 42.933 87.7513 43.3321 88.5659C43.7312 89.3805 44.3534 90.0673 45.1276 90.5478C45.9019 91.0283 46.7969 91.2831 47.7104 91.2831C48.6238 91.2831 49.5188 91.0283 50.2931 90.5478C51.0673 90.0673 51.6896 89.3805 52.0886 88.5659C52.4877 87.7513 52.6475 86.8419 52.5498 85.9415C52.452 85.0412 52.1007 84.1863 51.5359 83.4746C52.1835 82.6595 42.843 79.9557 42.843 80.4972Z" fill="black"/>
<path d="M116.623 103.44C117.184 103.44 117.638 102.849 117.638 102.12C117.638 101.392 117.184 100.801 116.623 100.801C116.062 100.801 115.607 101.392 115.607 102.12C115.607 102.849 116.062 103.44 116.623 103.44Z" fill="#3F3D56"/>
<path d="M116.623 101.828C117.184 101.828 117.638 101.238 117.638 100.509C117.638 99.7803 117.184 99.1896 116.623 99.1896C116.062 99.1896 115.607 99.7803 115.607 100.509C115.607 101.238 116.062 101.828 116.623 101.828Z" fill="#3F3D56"/>
<path d="M116.623 100.217C117.184 100.217 117.638 99.626 117.638 98.8974C117.638 98.1687 117.184 97.578 116.623 97.578C116.062 97.578 115.607 98.1687 115.607 98.8974C115.607 99.626 116.062 100.217 116.623 100.217Z" fill="#3F3D56"/>
<path d="M116.623 98.6052C117.184 98.6052 117.638 98.0145 117.638 97.2858C117.638 96.5572 117.184 95.9665 116.623 95.9665C116.062 95.9665 115.607 96.5572 115.607 97.2858C115.607 98.0145 116.062 98.6052 116.623 98.6052Z" fill="#3F3D56"/>
<path d="M116.623 96.9937C117.184 96.9937 117.638 96.403 117.638 95.6743C117.638 94.9457 117.184 94.355 116.623 94.355C116.062 94.355 115.607 94.9457 115.607 95.6743C115.607 96.403 116.062 96.9937 116.623 96.9937Z" fill="#3F3D56"/>
<path d="M116.623 95.3822C117.184 95.3822 117.638 94.7915 117.638 94.0629C117.638 93.3342 117.184 92.7435 116.623 92.7435C116.062 92.7435 115.607 93.3342 115.607 94.0629C115.607 94.7915 116.062 95.3822 116.623 95.3822Z" fill="#3F3D56"/>
<path d="M116.623 93.7708C117.184 93.7708 117.638 93.1801 117.638 92.4514C117.638 91.7228 117.184 91.1321 116.623 91.1321C116.062 91.1321 115.607 91.7228 115.607 92.4514C115.607 93.1801 116.062 93.7708 116.623 93.7708Z" fill="#3F3D56"/>
<path d="M120.426 81.4221C120.563 81.2447 120.689 81.0582 120.801 80.8638L118.132 80.4302L121.019 80.4507C121.295 79.8532 121.446 79.2061 121.462 78.549C121.478 77.8918 121.358 77.2384 121.111 76.6285L117.236 78.6196L120.803 76.0144C120.469 75.4399 120.019 74.9399 119.481 74.5454C118.944 74.151 118.33 73.8706 117.678 73.7217C117.027 73.5729 116.351 73.5589 115.693 73.6804C115.036 73.802 114.411 74.0566 113.857 74.4284C113.303 74.8001 112.832 75.281 112.474 75.8411C112.116 76.4011 111.879 77.0283 111.776 77.6835C111.673 78.3387 111.708 79.0078 111.878 79.6491C112.048 80.2904 112.349 80.8902 112.763 81.4109C112.544 81.6833 112.355 81.9784 112.2 82.2911L115.667 84.0757L111.971 82.8456C111.711 83.606 111.647 84.4186 111.784 85.2098C111.921 86.001 112.255 86.7459 112.756 87.3768C112.191 88.0885 111.84 88.9435 111.742 89.8438C111.644 90.7442 111.804 91.6536 112.203 92.4682C112.602 93.2827 113.224 93.9695 113.999 94.45C114.773 94.9305 115.668 95.1853 116.581 95.1853C117.495 95.1853 118.39 94.9305 119.164 94.45C119.938 93.9695 120.56 93.2827 120.96 92.4682C121.359 91.6536 121.518 90.7442 121.421 89.8438C121.323 88.9435 120.972 88.0885 120.407 87.3768C121.082 86.5265 121.449 85.4759 121.449 84.3939C121.449 83.3118 121.082 82.2612 120.407 81.4109L120.426 81.4221Z" fill="#AD63FF"/>
<path opacity="0.03" d="M111.733 84.405C111.733 85.4852 112.1 86.534 112.775 87.3823C112.21 88.0941 111.859 88.949 111.761 89.8493C111.663 90.7497 111.823 91.6591 112.222 92.4737C112.621 93.2883 113.243 93.975 114.018 94.4556C114.792 94.9361 115.687 95.1909 116.6 95.1909C117.514 95.1909 118.409 94.9361 119.183 94.4556C119.957 93.975 120.579 93.2883 120.978 92.4737C121.378 91.6591 121.537 90.7497 121.44 89.8493C121.342 88.949 120.991 88.0941 120.426 87.3823C121.073 86.5673 111.733 83.8634 111.733 84.405Z" fill="black"/>
<path d="M127.322 109.953C127.883 109.953 128.338 109.362 128.338 108.633C128.338 107.905 127.883 107.314 127.322 107.314C126.761 107.314 126.307 107.905 126.307 108.633C126.307 109.362 126.761 109.953 127.322 109.953Z" fill="#3F3D56"/>
<path d="M127.322 108.341C127.883 108.341 128.338 107.751 128.338 107.022C128.338 106.293 127.883 105.703 127.322 105.703C126.761 105.703 126.307 106.293 126.307 107.022C126.307 107.751 126.761 108.341 127.322 108.341Z" fill="#3F3D56"/>
<path d="M127.322 106.73C127.883 106.73 128.338 106.139 128.338 105.41C128.338 104.682 127.883 104.091 127.322 104.091C126.761 104.091 126.307 104.682 126.307 105.41C126.307 106.139 126.761 106.73 127.322 106.73Z" fill="#3F3D56"/>
<path d="M127.322 105.118C127.883 105.118 128.338 104.528 128.338 103.799C128.338 103.07 127.883 102.48 127.322 102.48C126.761 102.48 126.307 103.07 126.307 103.799C126.307 104.528 126.761 105.118 127.322 105.118Z" fill="#3F3D56"/>
<path d="M127.322 103.507C127.883 103.507 128.338 102.916 128.338 102.187C128.338 101.459 127.883 100.868 127.322 100.868C126.761 100.868 126.307 101.459 126.307 102.187C126.307 102.916 126.761 103.507 127.322 103.507Z" fill="#3F3D56"/>
<path d="M127.322 101.895C127.883 101.895 128.338 101.305 128.338 100.576C128.338 99.8472 127.883 99.2565 127.322 99.2565C126.761 99.2565 126.307 99.8472 126.307 100.576C126.307 101.305 126.761 101.895 127.322 101.895Z" fill="#3F3D56"/>
<path d="M127.322 100.284C127.883 100.284 128.338 99.6931 128.338 98.9644C128.338 98.2358 127.883 97.6451 127.322 97.6451C126.761 97.6451 126.307 98.2358 126.307 98.9644C126.307 99.6931 126.761 100.284 127.322 100.284Z" fill="#3F3D56"/>
<path d="M131.125 87.9351C131.263 87.7578 131.388 87.5712 131.5 87.3769L128.831 86.9433L131.718 86.9637C131.995 86.3663 132.145 85.7192 132.161 85.062C132.177 84.4049 132.058 83.7514 131.81 83.1415L127.936 85.1327L131.502 82.5275C131.168 81.953 130.719 81.4529 130.181 81.0585C129.643 80.664 129.03 80.3836 128.378 80.2348C127.726 80.086 127.05 80.0719 126.393 80.1935C125.735 80.3151 125.11 80.5697 124.556 80.9414C124.002 81.3132 123.532 81.7941 123.174 82.3541C122.816 82.9142 122.578 83.5414 122.476 84.1966C122.373 84.8518 122.408 85.5209 122.577 86.1622C122.747 86.8035 123.049 87.4032 123.463 87.924C123.243 88.1963 123.055 88.4914 122.9 88.8041L126.367 90.5887L122.671 89.3587C122.411 90.1191 122.346 90.9317 122.484 91.7229C122.621 92.5141 122.954 93.2589 123.455 93.8899C122.89 94.6016 122.539 95.4565 122.441 96.3569C122.344 97.2572 122.503 98.1667 122.902 98.9812C123.302 99.7958 123.924 100.483 124.698 100.963C125.472 101.444 126.367 101.698 127.281 101.698C128.194 101.698 129.089 101.444 129.863 100.963C130.638 100.483 131.26 99.7958 131.659 98.9812C132.058 98.1667 132.218 97.2572 132.12 96.3569C132.022 95.4565 131.671 94.6016 131.106 93.8899C131.781 93.0396 132.148 91.989 132.148 90.9069C132.148 89.8249 131.781 88.7743 131.106 87.924L131.125 87.9351Z" fill="#AD63FF"/>
<path opacity="0.03" d="M122.432 90.918C122.432 91.9983 122.799 93.0471 123.474 93.8954C122.909 94.6071 122.558 95.462 122.46 96.3624C122.362 97.2627 122.522 98.1722 122.921 98.9867C123.32 99.8013 123.942 100.488 124.717 100.969C125.491 101.449 126.386 101.704 127.299 101.704C128.213 101.704 129.108 101.449 129.882 100.969C130.656 100.488 131.279 99.8013 131.678 98.9867C132.077 98.1722 132.237 97.2627 132.139 96.3624C132.041 95.462 131.69 94.6071 131.125 93.8954C131.773 93.0803 122.432 90.3765 122.432 90.918Z" fill="black"/>
<path d="M138.209 118.327C138.77 118.327 139.225 117.736 139.225 117.007C139.225 116.279 138.77 115.688 138.209 115.688C137.649 115.688 137.194 116.279 137.194 117.007C137.194 117.736 137.649 118.327 138.209 118.327Z" fill="#3F3D56"/>
<path d="M138.209 116.715C138.77 116.715 139.225 116.125 139.225 115.396C139.225 114.667 138.77 114.077 138.209 114.077C137.649 114.077 137.194 114.667 137.194 115.396C137.194 116.125 137.649 116.715 138.209 116.715Z" fill="#3F3D56"/>
<path d="M138.209 115.104C138.77 115.104 139.225 114.513 139.225 113.784C139.225 113.056 138.77 112.465 138.209 112.465C137.649 112.465 137.194 113.056 137.194 113.784C137.194 114.513 137.649 115.104 138.209 115.104Z" fill="#3F3D56"/>
<path d="M138.209 113.492C138.77 113.492 139.225 112.901 139.225 112.173C139.225 111.444 138.77 110.853 138.209 110.853C137.649 110.853 137.194 111.444 137.194 112.173C137.194 112.901 137.649 113.492 138.209 113.492Z" fill="#3F3D56"/>
<path d="M138.209 111.881C138.77 111.881 139.225 111.29 139.225 110.561C139.225 109.833 138.77 109.242 138.209 109.242C137.649 109.242 137.194 109.833 137.194 110.561C137.194 111.29 137.649 111.881 138.209 111.881Z" fill="#3F3D56"/>
<path d="M138.209 110.269C138.77 110.269 139.225 109.678 139.225 108.95C139.225 108.221 138.77 107.63 138.209 107.63C137.649 107.63 137.194 108.221 137.194 108.95C137.194 109.678 137.649 110.269 138.209 110.269Z" fill="#3F3D56"/>
<path d="M138.209 108.658C138.77 108.658 139.225 108.067 139.225 107.338C139.225 106.61 138.77 106.019 138.209 106.019C137.649 106.019 137.194 106.61 137.194 107.338C137.194 108.067 137.649 108.658 138.209 108.658Z" fill="#3F3D56"/>
<path d="M142.012 96.3089C142.15 96.1316 142.276 95.9451 142.388 95.7507L139.718 95.3171L142.605 95.3376C142.882 94.7401 143.033 94.093 143.048 93.4359C143.064 92.7787 142.945 92.1252 142.697 91.5154L138.823 93.5065L142.39 90.9013C142.056 90.3268 141.606 89.8268 141.068 89.4323C140.531 89.0378 139.917 88.7575 139.265 88.6087C138.613 88.4598 137.937 88.4458 137.28 88.5673C136.623 88.6889 135.997 88.9435 135.444 89.3153C134.89 89.687 134.419 90.1679 134.061 90.728C133.703 91.288 133.465 91.9152 133.363 92.5704C133.26 93.2256 133.295 93.8947 133.465 94.536C133.635 95.1773 133.936 95.7771 134.35 96.2978C134.131 96.5701 133.942 96.8653 133.787 97.178L137.254 98.9625L133.558 97.7325C133.298 98.4929 133.234 99.3055 133.371 100.097C133.508 100.888 133.842 101.633 134.342 102.264C133.778 102.975 133.426 103.83 133.329 104.731C133.231 105.631 133.391 106.54 133.79 107.355C134.189 108.17 134.811 108.856 135.585 109.337C136.359 109.817 137.254 110.072 138.168 110.072C139.081 110.072 139.976 109.817 140.751 109.337C141.525 108.856 142.147 108.17 142.546 107.355C142.945 106.54 143.105 105.631 143.007 104.731C142.91 103.83 142.558 102.975 141.993 102.264C142.669 101.413 143.036 100.363 143.036 99.2807C143.036 98.1987 142.669 97.1481 141.993 96.2978L142.012 96.3089Z" fill="#AD63FF"/>
<path opacity="0.03" d="M133.32 99.2919C133.32 100.372 133.687 101.421 134.361 102.269C133.797 102.981 133.445 103.836 133.348 104.736C133.25 105.637 133.41 106.546 133.809 107.361C134.208 108.175 134.83 108.862 135.604 109.343C136.378 109.823 137.273 110.078 138.187 110.078C139.1 110.078 139.995 109.823 140.77 109.343C141.544 108.862 142.166 108.175 142.565 107.361C142.964 106.546 143.124 105.637 143.026 104.736C142.929 103.836 142.577 102.981 142.012 102.269C142.66 101.454 133.32 98.7504 133.32 99.2919Z" fill="black"/>
<path d="M146.656 103.812C147.217 103.812 147.672 103.221 147.672 102.493C147.672 101.764 147.217 101.173 146.656 101.173C146.096 101.173 145.641 101.764 145.641 102.493C145.641 103.221 146.096 103.812 146.656 103.812Z" fill="#3F3D56"/>
<path d="M146.656 102.2C147.217 102.2 147.672 101.61 147.672 100.881C147.672 100.152 147.217 99.5618 146.656 99.5618C146.096 99.5618 145.641 100.152 145.641 100.881C145.641 101.61 146.096 102.2 146.656 102.2Z" fill="#3F3D56"/>
<path d="M146.656 100.589C147.217 100.589 147.672 99.9982 147.672 99.2696C147.672 98.5409 147.217 97.9502 146.656 97.9502C146.096 97.9502 145.641 98.5409 145.641 99.2696C145.641 99.9982 146.096 100.589 146.656 100.589Z" fill="#3F3D56"/>
<path d="M146.656 98.9775C147.217 98.9775 147.672 98.3868 147.672 97.6581C147.672 96.9294 147.217 96.3387 146.656 96.3387C146.096 96.3387 145.641 96.9294 145.641 97.6581C145.641 98.3868 146.096 98.9775 146.656 98.9775Z" fill="#3F3D56"/>
<path d="M146.656 97.3659C147.217 97.3659 147.672 96.7752 147.672 96.0466C147.672 95.3179 147.217 94.7272 146.656 94.7272C146.096 94.7272 145.641 95.3179 145.641 96.0466C145.641 96.7752 146.096 97.3659 146.656 97.3659Z" fill="#3F3D56"/>
<path d="M146.656 95.7544C147.217 95.7544 147.672 95.1637 147.672 94.435C147.672 93.7064 147.217 93.1157 146.656 93.1157C146.096 93.1157 145.641 93.7064 145.641 94.435C145.641 95.1637 146.096 95.7544 146.656 95.7544Z" fill="#3F3D56"/>
<path d="M146.656 94.1429C147.217 94.1429 147.672 93.5522 147.672 92.8236C147.672 92.0949 147.217 91.5042 146.656 91.5042C146.096 91.5042 145.641 92.0949 145.641 92.8236C145.641 93.5522 146.096 94.1429 146.656 94.1429Z" fill="#3F3D56"/>
<path d="M150.459 81.7942C150.597 81.6169 150.723 81.4304 150.835 81.236L148.165 80.8024L151.052 80.8229C151.329 80.2254 151.48 79.5783 151.495 78.9211C151.511 78.264 151.392 77.6105 151.144 77.0006L147.27 78.9918L150.837 76.3866C150.503 75.8121 150.053 75.312 149.515 74.9176C148.978 74.5231 148.364 74.2427 147.712 74.0939C147.06 73.9451 146.385 73.931 145.727 74.0526C145.07 74.1742 144.444 74.4288 143.891 74.8005C143.337 75.1723 142.866 75.6532 142.508 76.2132C142.15 76.7733 141.912 77.4005 141.81 78.0557C141.707 78.7109 141.742 79.38 141.912 80.0213C142.082 80.6626 142.383 81.2623 142.797 81.7831C142.578 82.0554 142.389 82.3505 142.234 82.6633L145.701 84.4478L142.005 83.2178C141.745 83.9782 141.681 84.7908 141.818 85.582C141.955 86.3732 142.289 87.118 142.789 87.749C142.225 88.4607 141.873 89.3156 141.776 90.216C141.678 91.1163 141.838 92.0258 142.237 92.8403C142.636 93.6549 143.258 94.3417 144.032 94.8222C144.806 95.3027 145.701 95.5575 146.615 95.5575C147.528 95.5575 148.423 95.3027 149.198 94.8222C149.972 94.3417 150.594 93.6549 150.993 92.8403C151.392 92.0258 151.552 91.1163 151.454 90.216C151.357 89.3156 151.005 88.4607 150.441 87.749C151.116 86.8987 151.483 85.8481 151.483 84.766C151.483 83.684 151.116 82.6334 150.441 81.7831L150.459 81.7942Z" fill="#AD63FF"/>
<path opacity="0.03" d="M141.766 84.7772C141.767 85.8575 142.134 86.9062 142.808 87.7546C142.243 88.4663 141.892 89.3212 141.794 90.2216C141.697 91.1219 141.856 92.0314 142.255 92.8459C142.655 93.6605 143.277 94.3473 144.051 94.8278C144.825 95.3083 145.72 95.5631 146.634 95.5631C147.547 95.5631 148.442 95.3083 149.216 94.8278C149.991 94.3473 150.613 93.6605 151.012 92.8459C151.411 92.0314 151.571 91.1219 151.473 90.2216C151.375 89.3212 151.024 88.4663 150.459 87.7546C151.107 86.9395 141.766 84.2357 141.766 84.7772Z" fill="black"/>
<path d="M208.788 83.5286C209.349 83.5286 209.804 82.9379 209.804 82.2092C209.804 81.4806 209.349 80.8899 208.788 80.8899C208.228 80.8899 207.773 81.4806 207.773 82.2092C207.773 82.9379 208.228 83.5286 208.788 83.5286Z" fill="#3F3D56"/>
<path d="M208.788 81.917C209.349 81.917 209.804 81.3263 209.804 80.5977C209.804 79.869 209.349 79.2783 208.788 79.2783C208.228 79.2783 207.773 79.869 207.773 80.5977C207.773 81.3263 208.228 81.917 208.788 81.917Z" fill="#3F3D56"/>
<path d="M208.788 80.3056C209.349 80.3056 209.804 79.7149 209.804 78.9862C209.804 78.2576 209.349 77.6669 208.788 77.6669C208.228 77.6669 207.773 78.2576 207.773 78.9862C207.773 79.7149 208.228 80.3056 208.788 80.3056Z" fill="#3F3D56"/>
<path d="M208.788 78.694C209.349 78.694 209.804 78.1033 209.804 77.3747C209.804 76.646 209.349 76.0553 208.788 76.0553C208.228 76.0553 207.773 76.646 207.773 77.3747C207.773 78.1033 208.228 78.694 208.788 78.694Z" fill="#3F3D56"/>
<path d="M208.788 77.0825C209.349 77.0825 209.804 76.4918 209.804 75.7631C209.804 75.0345 209.349 74.4438 208.788 74.4438C208.228 74.4438 207.773 75.0345 207.773 75.7631C207.773 76.4918 208.228 77.0825 208.788 77.0825Z" fill="#3F3D56"/>
<path d="M208.788 75.471C209.349 75.471 209.804 74.8803 209.804 74.1517C209.804 73.423 209.349 72.8323 208.788 72.8323C208.228 72.8323 207.773 73.423 207.773 74.1517C207.773 74.8803 208.228 75.471 208.788 75.471Z" fill="#3F3D56"/>
<path d="M208.788 73.8595C209.349 73.8595 209.804 73.2688 209.804 72.5402C209.804 71.8115 209.349 71.2208 208.788 71.2208C208.228 71.2208 207.773 71.8115 207.773 72.5402C207.773 73.2688 208.228 73.8595 208.788 73.8595Z" fill="#3F3D56"/>
<path d="M213.633 70.4652C213.633 70.5378 213.633 70.6141 213.633 70.6848C213.633 70.7555 213.633 70.7797 213.633 70.8262C213.633 70.8728 213.633 70.897 213.633 70.9323C213.633 70.9677 213.633 70.99 213.633 71.0179C213.633 71.0458 213.62 71.1203 213.613 71.1724C213.613 71.1928 213.613 71.2133 213.613 71.2356C213.613 71.2915 213.594 71.3417 213.583 71.3957C213.578 71.427 213.572 71.458 213.564 71.4887C213.551 71.5576 213.534 71.6227 213.515 71.6897C213.496 71.7567 213.479 71.8255 213.459 71.8888C213.412 72.0434 213.357 72.195 213.292 72.3428C213.262 72.4173 213.23 72.488 213.194 72.5587C213.158 72.6294 213.13 72.6871 213.096 72.7448C213.063 72.8025 213.042 72.8453 213.014 72.8937C212.986 72.942 212.957 72.9867 212.926 73.0332C212.894 73.0798 212.903 73.0704 212.89 73.0909C212.877 73.1114 212.837 73.1709 212.811 73.2082C212.785 73.2454 212.794 73.2323 212.783 73.2454C212.751 73.2938 212.715 73.3421 212.678 73.3887C212.492 73.6301 212.284 73.8538 212.056 74.0567C212.008 74.1014 211.959 74.1423 211.908 74.1832L211.891 74.1963L211.758 74.3023L211.687 74.3526C211.644 74.3861 211.597 74.4177 211.552 74.4475C211.339 74.5932 211.114 74.7209 210.88 74.829C210.819 74.8594 210.756 74.8861 210.692 74.909C210.632 74.935 210.572 74.9592 210.504 74.9797C210.437 75.0002 210.427 75.0113 210.388 75.0225L210.32 75.0467L210.132 75.0988L209.945 75.149C209.921 75.1558 209.898 75.1607 209.873 75.1639L209.714 75.1974C209.597 75.2216 209.481 75.2421 209.363 75.2551H209.344C209.303 75.2551 209.26 75.2663 209.218 75.2681C209.17 75.2746 209.121 75.2783 209.072 75.2793H208.976C208.91 75.2793 208.843 75.2793 208.775 75.2793C208.708 75.2793 208.644 75.2793 208.588 75.2793H208.514C208.466 75.2784 208.418 75.2747 208.37 75.2681C208.33 75.2672 208.289 75.2634 208.25 75.257C208.128 75.2439 208.008 75.2291 207.889 75.2049C207.825 75.1937 207.764 75.1788 207.702 75.1639C207.687 75.1635 207.673 75.1603 207.66 75.1546C207.397 75.0932 207.14 75.0105 206.891 74.9071C206.756 74.8519 206.625 74.7898 206.496 74.721C206.436 74.6894 206.374 74.6559 206.309 74.6205L206.177 74.5405C206.091 74.4884 206.007 74.4307 205.924 74.3712C205.89 74.347 205.856 74.3228 205.823 74.2949C205.798 74.2784 205.774 74.2604 205.751 74.2409C205.716 74.2112 205.68 74.1851 205.644 74.1535C205.633 74.1475 205.624 74.1392 205.616 74.1293C205.569 74.0921 205.524 74.0493 205.479 74.0102C205.326 73.8706 205.183 73.7214 205.049 73.5636C205.004 73.5115 204.961 73.4575 204.92 73.4054C204.878 73.3533 204.86 73.3272 204.833 73.2882C204.807 73.2491 204.788 73.2268 204.768 73.197C204.747 73.1672 204.709 73.1132 204.681 73.0686C204.653 73.0239 204.612 72.9569 204.578 72.9011C204.51 72.7895 204.449 72.6741 204.39 72.5568C204.364 72.5029 204.34 72.4508 204.317 72.395C204.274 72.3019 204.235 72.2089 204.199 72.1028C204.173 72.0358 204.15 71.967 204.129 71.8981C204.109 71.8293 204.084 71.7492 204.066 71.6729C204.065 71.6699 204.065 71.6667 204.066 71.6636C204.049 71.5966 204.032 71.5278 204.019 71.4627C204.006 71.3975 203.994 71.3473 203.987 71.2896C203.979 71.2319 203.968 71.1854 203.96 71.1333C203.959 71.1197 203.959 71.106 203.96 71.0923C203.949 71.0309 203.944 70.9658 203.938 70.9063C203.932 70.8467 203.925 70.7611 203.923 70.6904C203.921 70.6197 203.923 70.5434 203.923 70.469C203.923 69.3887 204.29 68.3399 204.965 67.4916C204.882 67.3874 204.803 67.2813 204.732 67.1715C204.708 67.1362 204.685 67.1027 204.664 67.0673C204.644 67.0319 204.602 66.9668 204.574 66.9166C204.546 66.8663 204.505 66.7975 204.471 66.7305C204.467 66.7253 204.464 66.7197 204.462 66.7137C204.397 66.5926 204.338 66.4684 204.285 66.3416C204.266 66.2969 204.25 66.2541 204.233 66.2113C204.186 66.0866 204.144 65.962 204.107 65.8391C204.065 65.6928 204.03 65.5443 204.004 65.3944C203.994 65.3497 203.987 65.3032 203.981 65.2585C203.98 65.2549 203.98 65.251 203.981 65.2474C203.981 65.2027 203.966 65.1599 203.96 65.1153C203.947 65.0092 203.938 64.8994 203.932 64.7896C203.932 64.758 203.932 64.7282 203.932 64.6966C203.932 64.637 203.932 64.5793 203.932 64.5216C203.933 63.9957 204.02 63.4734 204.19 62.9753L207.886 64.2053L204.419 62.417C204.574 62.1051 204.763 61.8107 204.982 61.5387C204.443 60.8581 204.098 60.0468 203.983 59.1894C203.869 58.3319 203.988 57.4596 204.328 56.6632C206.568 58.5194 208.647 60.558 210.544 62.7575C211.526 63.8951 212.456 65.0737 213.335 66.2932C213.165 66.7217 212.934 67.1235 212.648 67.486L212.633 67.5046C213.29 68.3533 213.642 69.3954 213.633 70.4652Z" fill="#AD63FF"/>
<path opacity="0.03" d="M203.898 64.4938C203.899 65.5741 204.266 66.6228 204.94 67.4712C204.375 68.1829 204.024 69.0378 203.926 69.9382C203.829 70.8385 203.988 71.7479 204.388 72.5625C204.787 73.3771 205.409 74.0639 206.183 74.5444C206.957 75.0249 207.852 75.2797 208.766 75.2797C209.679 75.2797 210.574 75.0249 211.348 74.5444C212.123 74.0639 212.745 73.3771 213.144 72.5625C213.543 71.7479 213.703 70.8385 213.605 69.9382C213.507 69.0378 213.156 68.1829 212.591 67.4712C213.239 66.6561 203.898 63.9523 203.898 64.4938Z" fill="black"/>
<path opacity="0.3" d="M122.804 32.0925C120.649 32.8071 118.47 33.4466 116.268 34.011C118.221 33.1042 120.177 32.2203 122.136 31.3593C122.361 31.6012 122.575 31.8469 122.804 32.0925Z" fill="#AD63FF"/>
<path opacity="0.3" d="M66.9976 8.76286C68.0801 8.71076 69.1694 8.68533 70.2656 8.68657H70.3651C69.0286 9.55931 67.6846 10.3967 66.3312 11.182C65.9915 11.3681 65.6517 11.5728 65.3101 11.7607C65.0523 11.9059 64.7945 12.0479 64.5367 12.1868C62.5045 13.2848 60.4584 14.3523 58.3986 15.3894C56.8343 16.1759 55.2645 16.9438 53.6889 17.6931C51.6304 18.6707 49.5593 19.6129 47.4757 20.5198C42.4226 22.7138 37.3244 24.6881 32.1736 26.3834C36.5222 23.7782 40.874 21.235 45.2288 18.7538C48.3135 17.0034 51.402 15.279 54.4942 13.5806C54.8309 13.3945 55.1669 13.2085 55.5022 13.0224C57.7623 11.7818 60.026 10.5574 62.2936 9.34903L62.8173 9.06804L66.9976 8.76286Z" fill="#AD63FF"/>
<path opacity="0.3" d="M134.517 50.1205C135.044 51.2941 135.538 52.485 135.998 53.6934C135.713 53.8292 135.435 53.9613 135.142 54.0953C128.54 57.149 121.867 59.9031 115.142 62.2961C119.237 59.65 123.335 57.0497 127.433 54.4954C129.793 53.0228 132.154 51.5645 134.517 50.1205Z" fill="#AD63FF"/>
<path d="M136.809 141.178C136.775 136.604 136.141 132.095 134.303 128.014C133.985 127.298 133.63 126.598 133.237 125.919C132.664 124.933 132.018 123.99 131.305 123.098C130.752 122.403 130.161 121.737 129.535 121.105C127.989 119.551 126.285 118.158 124.452 116.948C121.402 114.901 118.017 113.252 114.626 111.864C110.415 110.138 106.087 108.708 101.673 107.584C101.15 107.452 100.625 107.323 100.099 107.197C99.9353 107.156 99.772 107.119 99.6068 107.08L99.0756 106.959C98.7715 106.888 98.4711 106.823 98.167 106.756C97.261 106.559 96.3525 106.372 95.4415 106.198C93.8635 105.9 92.2792 105.642 90.6887 105.423C87.2498 104.955 83.7884 104.662 80.3252 104.411L78.6564 104.292C77.1698 104.188 75.6831 104.084 74.1964 103.979C72.7079 103.868 71.2212 103.751 69.7364 103.607L69.3779 103.589L68.6815 103.52C68.0658 103.457 67.4482 103.393 66.8325 103.323C65.6425 103.189 64.4536 103.034 63.266 102.859C61.9458 102.664 60.6281 102.435 59.3129 102.171L59.097 102.126C58.7478 102.055 58.3987 101.979 58.0514 101.903C57.845 101.858 57.6404 101.812 57.4358 101.763C56.1743 101.469 54.9229 101.137 53.6815 100.766C51.9485 100.248 50.2458 99.6345 48.5814 98.929C48.0271 98.6946 47.479 98.4465 46.9371 98.1847L46.7156 98.0749C43.6298 96.6169 40.7773 94.7164 38.2499 92.4346L38.0377 92.2485L37.5872 91.8205C37.3226 91.5656 37.0635 91.3032 36.8082 91.0408C36.553 90.7785 36.3146 90.5291 36.0705 90.2686C34.6533 88.7482 33.3281 87.1367 31.9728 85.5532C30.7996 84.1854 29.6058 82.84 28.3106 81.5858C28.0722 81.355 27.83 81.1317 27.5841 80.9103C26.4641 79.8885 25.2716 78.9475 24.0158 78.0948C23.8393 77.9738 23.661 77.8566 23.4827 77.7412C22.7794 77.2797 22.058 76.8455 21.3184 76.4386C20.5957 76.0404 19.8561 75.6682 19.1053 75.3221C18.1041 74.8606 17.0861 74.4457 16.0512 74.0772C14.2996 73.4568 12.5047 72.9636 10.6808 72.6015C8.04416 72.0673 5.35857 71.8066 2.66746 71.8237C1.87532 71.833 1.08318 71.8646 0.296677 71.926L0.133369 71.9409C0.146509 71.98 0.159649 72.0191 0.169034 72.06C0.204312 72.0811 0.24065 72.1003 0.277906 72.1177C0.262889 72.2871 0.24975 72.4564 0.23661 72.6239C0.246494 72.7736 0.235121 72.9239 0.202822 73.0705C0.0676704 74.8073 9.46393e-05 76.5652 9.46393e-05 78.3442C-0.0185638 89.5865 2.72197 100.665 7.9853 110.623L8.05851 110.76C13.3897 120.781 21.0966 129.367 30.5162 135.782C38.0059 140.895 46.4311 144.509 55.3184 146.42L56.8707 146.735C59.0156 147.146 61.195 147.457 63.4087 147.665C65.6612 147.881 67.9469 147.989 70.2658 147.991C73.4887 147.992 76.708 147.774 79.9009 147.339H136.544C136.717 145.3 136.824 143.225 136.809 141.178Z" fill="#3F3D56"/>
<path opacity="0.1" d="M107.755 23.4729C107.088 23.3478 106.399 23.4223 105.775 23.6869C105.401 23.852 104.996 23.9373 104.587 23.9373C104.178 23.9373 103.774 23.852 103.4 23.6869C102.958 23.4948 102.479 23.4001 101.997 23.4095C101.514 23.4188 101.039 23.5319 100.605 23.7409C100.357 23.8705 100.081 23.9388 99.7999 23.94C98.6736 23.94 97.7238 22.8086 97.5286 21.3162C97.7541 21.1528 97.9454 20.9474 98.0917 20.7114C98.7543 19.6507 99.7811 18.9697 100.939 18.9697C102.097 18.9697 103.111 19.6414 103.776 20.691C103.973 21.0075 104.25 21.2681 104.578 21.4477C104.907 21.6273 105.277 21.7198 105.653 21.7163H105.681C106.593 21.7107 107.37 22.4271 107.755 23.4729Z" fill="#AD63FF"/>
<path opacity="0.1" d="M111.519 21.9489C111.175 23.1194 110.346 23.9474 109.379 23.9474C109.102 23.9465 108.829 23.8795 108.583 23.7521C108.152 23.5466 107.682 23.4355 107.204 23.4262C106.726 23.4169 106.251 23.5096 105.813 23.6981C105.44 23.8614 105.037 23.9463 104.63 23.9474C104.321 23.9466 104.014 23.897 103.721 23.8004C103.673 23.7874 103.622 23.7669 103.573 23.7502C103.524 23.7334 103.481 23.7148 103.436 23.6944C103.425 23.6876 103.413 23.6832 103.4 23.6813C103.353 23.6588 103.304 23.6389 103.254 23.6218C103.207 23.6032 103.16 23.5883 103.113 23.5716C102.297 23.3112 101.411 23.3739 100.641 23.7465C100.394 23.8766 100.118 23.9456 99.8377 23.9474C99.6852 23.9475 99.5334 23.9255 99.3872 23.8823C99.3666 23.8823 99.3478 23.8712 99.3271 23.8674C99.3065 23.8637 99.2821 23.8544 99.2596 23.8451C98.3867 23.5343 97.7147 22.5313 97.5702 21.2864C97.5474 21.1068 97.5361 20.9259 97.5364 20.7449C97.5364 18.9752 98.5688 17.5424 99.8452 17.5424H99.9072C100.282 17.5532 100.652 17.466 100.982 17.2896C101.311 17.1132 101.588 16.8538 101.784 16.5375C101.858 16.4172 101.938 16.3016 102.026 16.1914C105.339 17.8586 108.513 19.7838 111.519 21.9489Z" fill="#AD63FF"/>
<path opacity="0.1" d="M13.3367 49.0319C13.1209 48.9905 12.9015 48.9706 12.6816 48.9723C12.2253 48.9751 11.7744 49.0701 11.3564 49.2514C11.3151 49.2682 11.2738 49.2868 11.2306 49.3017C10.8944 49.4319 10.5367 49.4988 10.1757 49.4989C9.87972 49.4985 9.58548 49.4539 9.30285 49.3668C9.25404 49.3501 9.20336 49.3333 9.15456 49.3128C9.10575 49.2924 9.03817 49.27 8.98186 49.244L8.83545 49.1845L8.69466 49.1361C7.96046 48.8947 7.16465 48.9124 6.44214 49.1863C7.06784 47.839 7.73609 46.5166 8.44689 45.2189C8.81069 45.5086 9.12178 45.8579 9.36667 46.2517C9.56484 46.5675 9.84157 46.8275 10.1703 47.0067C10.499 47.1859 10.8686 47.2784 11.2438 47.2752H11.2719C11.3797 47.2754 11.4872 47.286 11.5929 47.3068C11.7907 47.3448 11.9809 47.4146 12.156 47.5134C12.7158 47.868 13.1334 48.4049 13.3367 49.0319Z" fill="#AD63FF"/>
<path opacity="0.1" d="M17.2694 46.3038C17.2694 48.0717 16.2351 49.5045 14.9605 49.5045C14.6833 49.5036 14.4103 49.4366 14.1646 49.3091C13.7072 49.0843 13.2015 48.9731 12.6911 48.9853C12.2453 48.9883 11.8044 49.0788 11.394 49.2514C11.3358 49.2756 11.2795 49.2998 11.2195 49.3203C10.8973 49.4414 10.556 49.5045 10.2114 49.5064C9.94107 49.5064 9.67198 49.4695 9.4118 49.3966L9.30293 49.3631C9.25412 49.3463 9.20344 49.3296 9.15464 49.3091C9.10542 49.2926 9.05717 49.2733 9.0101 49.2514L8.97443 49.2384C8.92563 49.2161 8.8787 49.1993 8.82802 49.1789L8.68724 49.1305L8.55772 49.0933C7.84934 48.8974 7.09545 48.94 6.41406 49.2142C6.41828 49.2027 6.4233 49.1915 6.42908 49.1807C7.05478 47.8335 7.72303 46.511 8.43383 45.2134C9.10208 43.9889 9.80662 42.7862 10.5474 41.6052C10.7727 41.2479 10.9998 40.8943 11.2307 40.5407C11.8032 40.7626 12.3072 41.1289 12.693 41.6033L11.9928 42.865L13.1022 42.1671C13.3677 42.547 13.7484 42.8331 14.189 42.9841L13.9225 43.466L14.5438 43.0734C14.6678 43.0943 14.7934 43.1043 14.9192 43.1031H14.9493C15.352 43.1076 15.7417 43.2451 16.0568 43.4939L15.3059 44.8617L14.953 45.4999L16.4547 44.5583L16.7888 44.3481C16.82 44.4011 16.8482 44.4557 16.8733 44.5118C17.1399 45.0719 17.2753 45.6845 17.2694 46.3038Z" fill="#AD63FF"/>
<path d="M185.61 110.973C189.32 110.973 192.328 107.069 192.328 102.254C192.328 97.4395 189.32 93.5363 185.61 93.5363C181.9 93.5363 178.892 97.4395 178.892 102.254C178.892 107.069 181.9 110.973 185.61 110.973Z" fill="#2F2E41"/>
<path d="M185.61 100.315C189.32 100.315 192.328 96.4122 192.328 91.5973C192.328 86.7824 189.32 82.8792 185.61 82.8792C181.9 82.8792 178.892 86.7824 178.892 91.5973C178.892 96.4122 181.9 100.315 185.61 100.315Z" fill="#2F2E41"/>
<path d="M185.61 89.6601C189.32 89.6601 192.328 85.7568 192.328 80.9419C192.328 76.1271 189.32 72.2238 185.61 72.2238C181.9 72.2238 178.892 76.1271 178.892 80.9419C178.892 85.7568 181.9 89.6601 185.61 89.6601Z" fill="#2F2E41"/>
<path d="M185.61 79.0048C189.32 79.0048 192.328 75.1016 192.328 70.2867C192.328 65.4718 189.32 61.5685 185.61 61.5685C181.9 61.5685 178.892 65.4718 178.892 70.2867C178.892 75.1016 181.9 79.0048 185.61 79.0048Z" fill="#2F2E41"/>
<path d="M185.61 68.3477C189.32 68.3477 192.328 64.4444 192.328 59.6295C192.328 54.8146 189.32 50.9114 185.61 50.9114C181.9 50.9114 178.892 54.8146 178.892 59.6295C178.892 64.4444 181.9 68.3477 185.61 68.3477Z" fill="#2F2E41"/>
<path d="M179.507 45.325C179.094 46.4984 178.884 47.733 178.888 48.976C178.869 50.8437 179.352 52.6827 180.288 54.3037C181.516 56.3655 183.442 57.6942 185.606 57.6942C187.77 57.6942 189.694 56.3655 190.924 54.3037C191.825 52.7455 192.306 50.984 192.322 49.1882C190.413 48.3307 188.453 47.5899 186.453 46.97C185.064 46.5383 183.651 46.1661 182.214 45.8535L179.507 45.325Z" fill="#2F2E41"/>
<path d="M182.218 45.848C183.653 46.1631 185.066 46.5352 186.457 46.9645C186.177 47.01 185.894 47.033 185.61 47.0333C184.378 47.0233 183.184 46.6062 182.218 45.848Z" fill="#2F2E41"/>
<path d="M60.4071 109.484C64.1175 109.484 67.1253 105.581 67.1253 100.766C67.1253 95.9508 64.1175 92.0476 60.4071 92.0476C56.6968 92.0476 53.689 95.9508 53.689 100.766C53.689 105.581 56.6968 109.484 60.4071 109.484Z" fill="#3F3D56"/>
<path d="M60.4071 98.8267C64.1175 98.8267 67.1253 94.9235 67.1253 90.1086C67.1253 85.2937 64.1175 81.3904 60.4071 81.3904C56.6968 81.3904 53.689 85.2937 53.689 90.1086C53.689 94.9235 56.6968 98.8267 60.4071 98.8267Z" fill="#3F3D56"/>
<path d="M60.4071 88.1714C64.1175 88.1714 67.1253 84.2682 67.1253 79.4533C67.1253 74.6384 64.1175 70.7351 60.4071 70.7351C56.6968 70.7351 53.689 74.6384 53.689 79.4533C53.689 84.2682 56.6968 88.1714 60.4071 88.1714Z" fill="#3F3D56"/>
<path d="M60.4071 77.5161C64.1175 77.5161 67.1253 73.6129 67.1253 68.798C67.1253 63.9831 64.1175 60.0798 60.4071 60.0798C56.6968 60.0798 53.689 63.9831 53.689 68.798C53.689 73.6129 56.6968 77.5161 60.4071 77.5161Z" fill="#3F3D56"/>
<path d="M60.4071 66.859C64.1175 66.859 67.1253 62.9558 67.1253 58.1409C67.1253 53.326 64.1175 49.4227 60.4071 49.4227C56.6968 49.4227 53.689 53.326 53.689 58.1409C53.689 62.9558 56.6968 66.859 60.4071 66.859Z" fill="#3F3D56"/>
<path d="M60.4071 56.2036C64.1175 56.2036 67.1253 52.3003 67.1253 47.4854C67.1253 42.6705 64.1175 38.7673 60.4071 38.7673C56.6968 38.7673 53.689 42.6705 53.689 47.4854C53.689 52.3003 56.6968 56.2036 60.4071 56.2036Z" fill="#3F3D56"/>
<path d="M60.4071 45.5483C64.1175 45.5483 67.1253 41.6451 67.1253 36.8302C67.1253 32.0153 64.1175 28.112 60.4071 28.112C56.6968 28.112 53.689 32.0153 53.689 36.8302C53.689 41.6451 56.6968 45.5483 60.4071 45.5483Z" fill="#3F3D56"/>
<path d="M60.4071 37.0963C64.1175 37.0963 67.1253 33.193 67.1253 28.3781C67.1253 23.5632 64.1175 19.66 60.4071 19.66C56.6968 19.66 53.689 23.5632 53.689 28.3781C53.689 33.193 56.6968 37.0963 60.4071 37.0963Z" fill="#3F3D56"/>
<path d="M57.5615 9.82352C56.5388 10.4688 55.6903 11.3515 55.0893 12.3952C54.862 12.7754 54.6631 13.1716 54.4943 13.5806C53.9592 14.8866 53.6857 16.2835 53.689 17.6931V17.7229C53.6699 19.5906 54.1533 21.4296 55.0893 23.0505C56.317 25.1124 58.2429 26.441 60.4072 26.441C62.5715 26.441 64.4955 25.1124 65.725 23.0505C66.6432 21.4224 67.1253 19.5882 67.1253 17.7229C67.1253 15.8576 66.6432 14.0234 65.725 12.3952C65.5936 12.1756 65.4547 11.9635 65.3102 11.7607C64.5635 10.6836 63.5148 9.84712 62.2937 9.35458C62.1286 9.2902 61.96 9.23491 61.7887 9.18896L57.5615 9.82352Z" fill="#3F3D56"/>
<path d="M61.7868 9.18892C62.1284 9.14799 62.4713 9.10953 62.8155 9.07355L66.9958 8.76279C66.8724 9.59275 66.6487 10.405 66.3294 11.1819C66.1569 11.6002 65.9542 12.0057 65.7231 12.3952C64.4936 14.457 62.5695 15.7857 60.4052 15.7857C59.716 15.7854 59.0336 15.6507 58.3967 15.3893C57.2271 14.8868 56.2235 14.0686 55.5004 13.0279C55.3558 12.8251 55.2169 12.6148 55.0874 12.3952C54.7337 11.7996 54.4467 11.1675 54.2314 10.5101C55.3314 10.2533 56.4408 10.0245 57.5596 9.82348L61.7868 9.18892Z" fill="#3F3D56"/>
<path d="M17.2335 83.2458C20.9439 83.2458 23.9517 79.3425 23.9517 74.5276C23.9517 69.7127 20.9439 65.8095 17.2335 65.8095C13.5232 65.8095 10.5154 69.7127 10.5154 74.5276C10.5154 79.3425 13.5232 83.2458 17.2335 83.2458Z" fill="#3F3D56"/>
<path d="M17.2335 72.5886C20.9439 72.5886 23.9517 68.6853 23.9517 63.8704C23.9517 59.0555 20.9439 55.1523 17.2335 55.1523C13.5232 55.1523 10.5154 59.0555 10.5154 63.8704C10.5154 68.6853 13.5232 72.5886 17.2335 72.5886Z" fill="#3F3D56"/>
<path d="M17.2335 61.9333C20.9439 61.9333 23.9517 58.03 23.9517 53.2151C23.9517 48.4002 20.9439 44.497 17.2335 44.497C13.5232 44.497 10.5154 48.4002 10.5154 53.2151C10.5154 58.03 13.5232 61.9333 17.2335 61.9333Z" fill="#3F3D56"/>
<path d="M23.9519 42.5523C23.9708 44.42 23.4874 46.2589 22.5516 47.88C21.3221 49.9418 19.398 51.2723 17.2337 51.2723C15.4824 51.2723 13.8887 50.4014 12.6911 48.9779V48.9649C12.4064 48.6246 12.1503 48.2617 11.9253 47.88C11.8108 47.6939 11.7038 47.4948 11.6024 47.2938C10.8776 45.8169 10.5044 44.1947 10.5118 42.5523C10.5118 42.2298 10.525 41.9116 10.5512 41.5977C10.7765 41.2404 11.0036 40.8868 11.2345 40.5333C11.7132 39.7889 12.2087 39.0725 12.7174 38.3542C13.7849 36.8432 14.9111 35.3774 16.0962 33.957C16.4658 33.8742 16.8436 33.8324 17.2225 33.8323C19.3868 33.8323 21.3108 35.161 22.5403 37.2247C23.4798 38.8447 23.9671 40.6837 23.9519 42.5523Z" fill="#3F3D56"/>
<path d="M23.952 31.9045C23.9701 33.7721 23.4868 35.6108 22.5516 37.2321C21.3221 39.294 19.3962 40.6208 17.2338 40.6208C15.4956 40.6208 13.9132 39.7666 12.7288 38.3617C13.7962 36.8507 14.9225 35.3849 16.1075 33.9645C18.1693 31.4906 20.4022 29.162 22.79 26.9955C23.5677 28.5162 23.9661 30.1996 23.952 31.9045Z" fill="#3F3D56"/>
<path d="M56.8764 146.736C59.0213 147.148 61.2006 147.459 63.4143 147.667C65.6669 147.885 67.9526 147.994 70.2714 147.994C73.4944 147.995 76.7137 147.777 79.9066 147.341H162.567C162.79 147.377 163.014 147.412 163.239 147.444C174.785 149.124 186.566 146.921 196.701 141.187C206.836 135.453 214.742 126.518 219.156 115.809C217.69 114.866 216.214 113.948 214.722 113.049C213.23 112.151 211.704 111.3 210.142 110.491C209.907 110.366 209.671 110.245 209.432 110.118C206.554 108.642 203.563 107.391 200.488 106.376C199.155 105.943 197.811 105.567 196.46 105.26C195.82 105.112 195.179 104.981 194.536 104.865C193.727 104.718 192.914 104.597 192.095 104.504C189.952 104.249 187.788 104.203 185.634 104.367C185.239 104.396 184.842 104.435 184.444 104.484C183.68 104.572 182.917 104.691 182.156 104.841C181.218 105.027 180.294 105.255 179.386 105.526C171.558 107.831 164.778 112.984 157.758 117.283L157.489 117.448C150.212 121.867 142.428 125.406 134.303 127.99C132.788 128.474 131.262 128.924 129.727 129.341C127.975 129.818 126.217 130.252 124.452 130.644C124.116 130.718 123.778 130.791 123.442 130.86C122.092 131.146 120.737 131.405 119.376 131.637C111.085 133.067 102.654 133.537 94.2533 133.037C93.0019 132.962 91.7474 132.865 90.4897 132.745C88.8241 132.586 87.1635 132.387 85.5079 132.147L85.1662 132.099C83.734 131.889 82.3018 131.649 80.8714 131.409C79.1557 131.122 77.4401 130.839 75.7225 130.608C75.1406 130.528 74.5606 130.458 73.9787 130.393C72.1501 130.181 70.3103 130.081 68.4694 130.091C68.1784 130.091 67.8875 130.102 67.5947 130.115C64.4543 130.236 61.2688 130.841 58.4269 132.09L58.2655 132.16C56.7632 132.822 55.3643 133.694 54.1114 134.749C53.7535 135.052 53.4081 135.373 53.0753 135.713C50.65 138.193 49.199 141.236 48.0071 144.418C50.4087 145.214 52.8526 145.879 55.3278 146.409L56.8764 146.736Z" fill="#2F2E41"/>
<path opacity="0.6" d="M73.0192 46.823C73.2266 46.823 73.3946 46.6564 73.3946 46.4509C73.3946 46.2453 73.2266 46.0787 73.0192 46.0787C72.8119 46.0787 72.6438 46.2453 72.6438 46.4509C72.6438 46.6564 72.8119 46.823 73.0192 46.823Z" fill="white"/>
<path opacity="0.6" d="M34.9142 47.1952C35.1216 47.1952 35.2896 47.0286 35.2896 46.823C35.2896 46.6175 35.1216 46.4508 34.9142 46.4508C34.7069 46.4508 34.5388 46.6175 34.5388 46.823C34.5388 47.0286 34.7069 47.1952 34.9142 47.1952Z" fill="white"/>
<path opacity="0.6" d="M115.442 66.5482C115.649 66.5482 115.817 66.3816 115.817 66.176C115.817 65.9705 115.649 65.8038 115.442 65.8038C115.235 65.8038 115.067 65.9705 115.067 66.176C115.067 66.3816 115.235 66.5482 115.442 66.5482Z" fill="white"/>
<path opacity="0.6" d="M143.974 53.5221C144.181 53.5221 144.349 53.3555 144.349 53.1499C144.349 52.9444 144.181 52.7778 143.974 52.7778C143.766 52.7778 143.598 52.9444 143.598 53.1499C143.598 53.3555 143.766 53.5221 143.974 53.5221Z" fill="white"/>
<path d="M56.8763 146.736C57.3256 145.049 57.5521 143.311 57.5502 141.565C57.5502 141.115 57.5333 140.668 57.5051 140.225C58.0871 138.315 58.3813 136.33 58.378 134.334C58.3778 133.612 58.3396 132.891 58.2635 132.173C58.2635 132.134 58.2541 132.093 58.2503 132.054C57.9822 129.669 57.2827 127.351 56.1855 125.212L47.6785 127.839L44.3841 128.855L46.8676 127.408L54.7514 122.815C53.0118 120.323 50.73 118.251 48.0744 116.75C45.4187 115.25 42.457 114.359 39.4079 114.145C38.9231 113.416 38.3914 112.718 37.8162 112.056L31.2669 114.075L20.8359 117.286L29.7859 112.076L34.7452 109.171C30.8701 106.228 26.0594 104.758 21.1851 105.029C16.3109 105.3 11.6959 107.293 8.17668 110.647L8.0603 110.76C13.3911 120.783 21.0979 129.372 30.518 135.789C38.0076 140.9 46.432 144.512 55.3183 146.422L56.8763 146.736Z" fill="#2F2E41"/>
<path d="M95.7679 147.349H80.0359C81.8755 144.347 84.7155 142.421 87.9028 142.421C91.0902 142.421 93.9302 144.342 95.7679 147.349Z" fill="#3F3D56"/>
<path opacity="0.1" d="M95.7679 147.349H80.0359C81.8755 144.347 84.7155 142.421 87.9028 142.421C91.0902 142.421 93.9302 144.342 95.7679 147.349Z" fill="black"/>
<path d="M56.8763 146.736C59.0212 147.148 61.2005 147.458 63.4142 147.667C65.6667 147.885 67.9524 147.994 70.2713 147.994C73.4943 147.995 76.7135 147.777 79.9065 147.341H116.452C117.833 144.557 118.551 141.496 118.55 138.394C118.55 137.944 118.534 137.497 118.505 137.054C119.044 135.301 119.34 133.483 119.384 131.65C119.384 131.49 119.384 131.33 119.384 131.17C119.388 128.003 118.639 124.879 117.197 122.052L105.371 125.696L115.744 119.65C114.005 117.158 111.723 115.085 109.067 113.585C106.411 112.084 103.45 111.194 100.401 110.98C100.15 110.597 99.8832 110.224 99.5992 109.863C99.5222 109.763 99.4434 109.663 99.3645 109.564C99.1843 109.337 98.9966 109.114 98.8014 108.896L98.3246 109.043L81.8417 114.123L95.4282 106.194L95.7511 106.008C93.5438 104.333 91.0151 103.123 88.3197 102.451C85.6244 101.779 82.819 101.66 80.0754 102.1C79.7638 102.146 79.4541 102.204 79.1462 102.269C76.3961 102.838 73.7948 103.966 71.5064 105.582C67.6444 108.303 64.8546 112.268 63.6132 116.801L67.9305 121.723L69.496 123.511L72.995 127.504L75.7243 130.618L78.1551 133.392L73.9767 130.406L68.1107 126.206L62.3593 122.087C60.309 123.529 58.5439 125.333 57.1522 127.408C55.6542 129.635 54.6197 132.135 54.1094 134.764C53.3506 138.684 53.771 142.739 55.3183 146.424L56.8763 146.736Z" fill="#2F2E41"/>
<path d="M126.907 140.523C128.118 138.53 126.973 135.968 125.606 134.079C124.24 132.19 122.562 130.21 122.708 127.891C122.92 124.557 126.586 122.752 129.524 121.116C131.704 119.901 133.731 118.434 135.563 116.747C136.297 116.069 137.01 115.342 137.462 114.456C138.114 113.18 138.168 111.695 138.198 110.262C138.294 105.495 138.28 100.728 138.155 95.9591L126.907 140.523Z" fill="#2F2E41"/>
<path d="M204.95 87.7955C205.657 89.381 206.351 90.972 207.032 92.5686C208.222 95.3649 209.37 98.1779 210.476 101.008C210.998 102.342 211.518 103.736 211.415 105.163C211.336 106.155 210.957 107.096 210.536 107.999L210.497 108.084C210.17 108.78 209.819 109.463 209.442 110.131C208.813 111.251 208.115 112.331 207.353 113.366C207.119 113.686 206.878 114.001 206.63 114.311C205.665 115.522 204.565 116.827 203.779 118.191C203.144 119.281 202.705 120.411 202.682 121.563C202.67 122.101 202.753 122.638 202.928 123.148C203.679 125.35 205.995 126.544 207.985 127.776C208.932 128.343 209.784 129.052 210.512 129.877" stroke="#2F2E41" stroke-width="4" stroke-miterlimit="10"/>
<path d="M205.115 92.9277C208.018 92.9277 210.371 90.595 210.371 87.7174C210.371 84.8397 208.018 82.507 205.115 82.507C202.212 82.507 199.859 84.8397 199.859 87.7174C199.859 90.595 202.212 92.9277 205.115 92.9277Z" fill="#2F2E41"/>
<path d="M214.405 101.612C217.308 101.612 219.661 99.2796 219.661 96.4019C219.661 93.5243 217.308 91.1915 214.405 91.1915C211.502 91.1915 209.149 93.5243 209.149 96.4019C209.149 99.2796 211.502 101.612 214.405 101.612Z" fill="#2F2E41"/>
<path d="M205.254 113.799C208.157 113.799 210.51 111.466 210.51 108.589C210.51 105.711 208.157 103.378 205.254 103.378C202.351 103.378 199.998 105.711 199.998 108.589C199.998 111.466 202.351 113.799 205.254 113.799Z" fill="#2F2E41"/>
<path d="M207.927 126.593C210.83 126.593 213.183 124.26 213.183 121.382C213.183 118.505 210.83 116.172 207.927 116.172C205.024 116.172 202.671 118.505 202.671 121.382C202.671 124.26 205.024 126.593 207.927 126.593Z" fill="#2F2E41"/>
<path d="M161.534 122.828C161.887 120.53 159.845 118.593 157.857 117.361C155.869 116.129 153.547 114.94 152.796 112.731C151.713 109.568 154.409 106.518 156.498 103.896C158.048 101.947 159.359 99.8236 160.404 97.5687C160.825 96.6662 161.204 95.7246 161.283 94.7346C161.395 93.3074 160.875 91.9136 160.344 90.5793C158.608 86.1319 156.766 81.7278 154.818 77.3672" stroke="#2F2E41" stroke-width="4" stroke-miterlimit="10"/>
<path d="M154.996 82.5069C157.899 82.5069 160.252 80.1742 160.252 77.2965C160.252 74.4189 157.899 72.0861 154.996 72.0861C152.093 72.0861 149.74 74.4189 149.74 77.2965C149.74 80.1742 152.093 82.5069 154.996 82.5069Z" fill="#2F2E41"/>
<path d="M164.286 91.1915C167.189 91.1915 169.542 88.8587 169.542 85.9811C169.542 83.1035 167.189 80.7707 164.286 80.7707C161.383 80.7707 159.03 83.1035 159.03 85.9811C159.03 88.8587 161.383 91.1915 164.286 91.1915Z" fill="#2F2E41"/>
<path d="M155.135 103.378C158.038 103.378 160.391 101.046 160.391 98.1679C160.391 95.2903 158.038 92.9575 155.135 92.9575C152.233 92.9575 149.879 95.2903 149.879 98.1679C149.879 101.046 152.233 103.378 155.135 103.378Z" fill="#2F2E41"/>
<path d="M157.808 116.172C160.711 116.172 163.064 113.839 163.064 110.961C163.064 108.084 160.711 105.751 157.808 105.751C154.905 105.751 152.552 108.084 152.552 110.961C152.552 113.839 154.905 116.172 157.808 116.172Z" fill="#2F2E41"/>
<path d="M69.6142 105.295C70.1623 104.478 69.7306 103.376 69.1918 102.554C68.6531 101.731 67.983 100.868 68.09 99.8929C68.242 98.4917 69.8225 97.8013 71.0933 97.1667C72.0351 96.6968 72.9172 96.1178 73.7213 95.4417C74.0563 95.1832 74.3429 94.8682 74.5679 94.5113C74.8663 93.9847 74.917 93.3594 74.9583 92.7584C75.0935 90.7511 75.1798 88.742 75.2174 86.731" stroke="#3F3D56" stroke-width="4" stroke-miterlimit="10"/>
<path d="M75.2945 88.9287C76.5188 88.9287 77.5113 87.9448 77.5113 86.7311C77.5113 85.5173 76.5188 84.5334 75.2945 84.5334C74.0702 84.5334 73.0776 85.5173 73.0776 86.7311C73.0776 87.9448 74.0702 88.9287 75.2945 88.9287Z" fill="#3F3D56"/>
<path d="M77.2862 93.8898C78.5105 93.8898 79.5031 92.9059 79.5031 91.6922C79.5031 90.4784 78.5105 89.4945 77.2862 89.4945C76.0619 89.4945 75.0693 90.4784 75.0693 91.6922C75.0693 92.9059 76.0619 93.8898 77.2862 93.8898Z" fill="#3F3D56"/>
<path d="M71.5984 96.9342C72.8228 96.9342 73.8153 95.9503 73.8153 94.7366C73.8153 93.5228 72.8228 92.5389 71.5984 92.5389C70.3741 92.5389 69.3816 93.5228 69.3816 94.7366C69.3816 95.9503 70.3741 96.9342 71.5984 96.9342Z" fill="#3F3D56"/>
<path d="M70.3218 102.297C71.5462 102.297 72.5387 101.313 72.5387 100.099C72.5387 98.8857 71.5462 97.9018 70.3218 97.9018C69.0975 97.9018 68.105 98.8857 68.105 100.099C68.105 101.313 69.0975 102.297 70.3218 102.297Z" fill="#3F3D56"/>
<path d="M172.318 68.5524C172.031 66.9726 172.174 65.2699 171.444 63.8426C171.372 63.6755 171.257 63.5299 171.111 63.4202C170.929 63.3232 170.723 63.2769 170.516 63.2862C169.858 63.2577 169.198 63.2515 168.536 63.2676C168.348 63.2676 168.134 63.2955 168.038 63.4537C168.028 63.4715 168.019 63.4902 168.012 63.5095C167.261 62.6721 166.683 61.63 165.869 60.8559C165.985 60.8187 166.101 60.7815 166.22 60.7498C166.208 60.6717 166.193 60.5935 166.176 60.5172L166.158 60.4484C166.144 60.3944 166.129 60.3423 166.114 60.2902C166.099 60.2381 166.096 60.24 166.088 60.2139C166.081 60.1879 166.056 60.1153 166.037 60.0669L166.006 59.9906C165.987 59.9422 165.968 59.8938 165.945 59.8473C165.923 59.8008 165.925 59.8008 165.914 59.7766L165.842 59.6277C165.842 59.6073 165.822 59.5887 165.812 59.5682C165.784 59.5142 165.758 59.4621 165.73 59.4119L165.701 59.3616L165.606 59.1942L165.587 59.1625C165.549 59.0993 165.512 59.036 165.472 58.9764C165.153 58.4591 164.8 57.953 164.543 57.4263C164.087 56.4959 163.937 55.4464 163.635 54.449C163.333 53.4515 162.807 52.4504 161.889 51.9796C161.454 51.7563 160.866 51.5609 160.827 51.0696C160.824 50.9125 160.856 50.7567 160.922 50.6137C161.047 50.2966 161.2 49.9909 161.379 49.7C161.442 49.5921 161.514 49.486 161.585 49.3837C161.602 49.3576 161.621 49.3335 161.639 49.3074C161.696 49.2292 161.754 49.1548 161.812 49.0804L161.885 48.9892C161.945 48.9185 162.005 48.8496 162.073 48.7826L162.146 48.7008C162.233 48.6096 162.321 48.5147 162.413 48.4347C162.495 48.3698 162.56 48.2853 162.6 48.189C162.625 48.0936 162.63 47.9943 162.616 47.8969C162.57 47.106 162.991 46.3672 163.458 45.7308C163.926 45.0944 164.468 44.4896 164.733 43.7453C164.763 43.6597 164.789 43.5722 164.812 43.4866C164.812 43.4568 164.825 43.4289 164.83 43.3992C164.836 43.3694 164.857 43.2819 164.868 43.2242C164.879 43.1665 164.877 43.1554 164.883 43.1219C164.889 43.0884 164.898 43.0121 164.904 42.9581C164.909 42.9042 164.904 42.8856 164.904 42.8502C164.904 42.8148 164.904 42.7423 164.904 42.6883C164.904 42.6343 164.904 42.6176 164.904 42.5804C164.904 42.5432 164.904 42.4724 164.904 42.4166C164.904 42.3608 164.904 42.3478 164.904 42.3124C164.904 42.2771 164.904 42.1952 164.889 42.1375C164.874 42.0798 164.889 42.0742 164.879 42.0426C164.872 41.9756 164.862 41.9086 164.851 41.8416C164.851 41.8193 164.851 41.797 164.851 41.7746C164.836 41.6816 164.819 41.5885 164.8 41.4992C164.667 40.9127 164.496 40.3353 164.288 39.7705C164.177 39.4225 164.035 39.085 163.864 38.7619C163.967 38.7433 164.07 38.7191 164.175 38.6912C164.11 38.5721 164.006 38.4325 163.948 38.2985C164.566 37.3383 165.105 36.3335 165.375 35.23C165.542 34.4491 165.64 33.6552 165.668 32.8574C165.823 30.4624 165.977 28.0545 165.778 25.6633C165.778 25.6316 165.778 25.6 165.778 25.5684C165.852 25.0546 165.857 24.5334 165.793 24.0183C165.694 23.0171 165.457 22.0067 164.917 21.16C164.376 20.3133 163.481 19.5671 162.488 19.4666C162.325 19.6502 162.143 19.8167 161.945 19.9635C161.648 19.7031 161.429 19.3654 161.315 18.9884C162.474 18.8079 163.542 18.255 164.355 17.4146C165.167 16.5741 165.678 15.4927 165.81 14.3362C165.822 14.2487 165.829 14.1613 165.835 14.0738C165.835 14.0366 165.835 14.0013 165.835 13.9659C165.835 13.9305 165.835 13.8654 165.835 13.8152V13.6756C165.835 13.6384 165.835 13.6012 165.835 13.5621C165.835 13.523 165.835 13.456 165.835 13.4021V13.3146C165.835 13.255 165.835 13.1955 165.82 13.1285C165.82 13.108 165.82 13.0876 165.82 13.0652C165.82 13.0001 165.805 12.9368 165.793 12.8792V12.8382C165.782 12.7675 165.769 12.6987 165.756 12.6298C165.755 12.6224 165.755 12.6149 165.756 12.6075C165.741 12.533 165.724 12.4605 165.705 12.386C165.579 11.8828 165.381 11.4002 165.116 10.9532C165.333 10.4639 165.476 9.94521 165.54 9.41423C165.551 9.31746 165.561 9.22814 165.566 9.12766C165.566 9.06625 165.566 9.00484 165.566 8.94157C165.566 8.90993 165.566 8.88016 165.566 8.85039C165.566 8.77037 165.566 8.69221 165.566 8.6122V8.58801C165.525 7.25913 164.99 5.99216 164.065 5.03004C164.171 4.84903 164.261 4.65837 164.331 4.46061C164.352 4.40293 164.371 4.34524 164.389 4.28569C164.406 4.22987 164.421 4.17404 164.434 4.11635C164.434 4.11635 164.434 4.11635 164.434 4.10147C164.448 4.04936 164.457 3.99726 164.468 3.94329V3.91538C164.479 3.85397 164.489 3.79256 164.496 3.7293C164.504 3.66603 164.51 3.59904 164.513 3.54321C164.513 3.52274 164.513 3.50227 164.513 3.4818C164.513 3.46133 164.513 3.39248 164.513 3.34782V3.28083V3.14684C164.513 3.12638 164.513 3.10777 164.513 3.0873C164.466 2.26544 164.109 1.49131 163.512 0.919155C162.915 0.347001 162.122 0.0188374 161.292 5.91786e-05C160.462 -0.0187191 159.655 0.273266 159.032 0.817831C158.41 1.3624 158.017 2.11956 157.932 2.93843C157.891 3.27422 157.901 3.61421 157.962 3.94702C157.148 4.33751 156.446 4.92512 155.921 5.65559C155.396 6.38605 155.065 7.23585 154.959 8.12651C154.923 8.42472 154.912 8.72535 154.927 9.02531C154.443 9.77252 154.153 10.6265 154.082 11.5114V11.6119C154.082 11.7236 154.069 11.8352 154.069 11.9487C154.067 12.7683 154.254 13.5776 154.616 14.3146C154.977 15.0516 155.504 15.6968 156.156 16.2008C156.429 16.6353 156.788 17.0101 157.211 17.3024C157.287 17.5281 157.343 17.7597 157.38 17.9947C157.412 18.6274 157.223 19.2973 156.74 19.7122C156.618 19.8127 156.483 19.8983 156.365 19.9932C156.237 19.9591 156.102 19.9623 155.976 20.0025C154.536 20.451 153.161 21.3386 152.494 22.7008C152.347 23.0093 152.231 23.3316 152.149 23.6629C152.123 23.7019 152.094 23.741 152.07 23.7819C151.19 25.1432 150.557 26.6465 150.198 28.2238C150.011 29.0296 149.904 29.867 149.525 30.6001C149.433 30.752 149.36 30.9137 149.305 31.0821C149.273 31.3407 149.262 31.6014 149.271 31.8618C149.232 32.3326 148.956 32.7494 148.864 33.2128C148.808 33.4882 148.819 33.7711 148.77 34.0502C148.684 34.5359 148.419 34.9676 148.25 35.4291C147.952 36.2423 147.955 37.1355 147.736 37.9747C147.709 38.1106 147.649 38.2381 147.563 38.3469C147.413 38.5125 147.176 38.5516 146.981 38.6577C146.828 38.7531 146.696 38.8797 146.595 39.0292C146.495 39.1787 146.427 39.3476 146.397 39.5248C146.34 39.8814 146.334 40.244 146.379 40.6023L146.487 42.0072C145.958 42.1635 145.431 42.3236 144.903 42.4836L142.3 43.2726C141.549 43.4996 140.787 43.7341 140.139 44.177C139.542 44.588 139.071 45.1547 138.778 45.8146C138.482 46.4863 138.378 47.2251 138.273 47.9546C137.975 50.0015 137.613 52.0485 136.935 53.9856C136.882 54.1363 136.826 54.2871 136.77 54.4378C136.713 54.5867 136.653 54.7337 136.593 54.8807L136.554 54.97C136.505 55.0891 136.456 55.2063 136.404 55.3217C136.336 55.4706 136.269 55.6194 136.195 55.7646L142.285 57.7873C142.285 57.8599 142.3 57.9362 142.311 58.0237C142.521 59.5124 142.42 61.0122 142.615 62.4897C142.64 62.7372 142.697 62.9805 142.784 63.2136C142.63 63.3468 142.519 63.5223 142.465 63.7179C142.396 64.0341 142.385 64.36 142.433 64.68C142.503 65.4367 142.572 66.1954 142.639 66.9558C142.676 67.2329 142.679 67.5135 142.649 67.7913C142.572 68.2919 142.285 68.7311 142.123 69.2112C141.962 69.6913 141.973 70.3035 142.373 70.6087C142.512 70.7026 142.673 70.7598 142.841 70.7748C143.009 70.7897 143.178 70.762 143.332 70.6943C143.64 70.5538 143.911 70.3457 144.126 70.0858C145.354 68.7385 145.902 66.913 146.857 65.3555C147.101 64.9954 147.319 64.6185 147.509 64.2278C147.64 63.9263 147.723 63.6063 147.83 63.2974C147.975 62.8802 148.15 62.4741 148.355 62.0822C148.468 61.8589 148.903 61.3193 148.811 61.0681C148.656 60.6419 146.983 60.2623 146.57 60.1376C146.304 60.052 146.007 59.9757 145.752 60.1004C145.712 60.12 145.675 60.1443 145.641 60.173C145.594 59.5626 145.545 58.9522 145.498 58.3437C145.746 58.3214 145.992 58.2898 146.236 58.2507C146.227 57.9064 146.219 57.5603 146.212 57.2123L146.189 56.2577C146.172 55.4855 146.155 54.7113 146.135 53.9484C146.13 53.5006 146.101 53.0533 146.048 52.6086C145.952 51.9275 145.744 51.265 145.673 50.5821C145.773 50.5023 145.892 50.4486 146.018 50.4258C146.214 50.3946 146.412 50.3877 146.609 50.4053H146.765C147.625 50.4314 148.466 50.1299 149.232 49.7317C149.998 49.3335 150.709 48.8385 151.471 48.4291C151.565 48.3788 151.659 48.3304 151.758 48.2821L151.863 48.23L152.042 48.1425L152.19 48.0718L152.224 48.055C152.669 47.8448 153.117 47.6401 153.538 47.4112C153.566 47.4577 153.598 47.5025 153.632 47.5452C153.736 47.6884 153.881 47.797 154.049 47.8568C154.216 47.9165 154.398 47.9247 154.57 47.8801C154.045 49.1399 153.425 50.3588 153.268 51.7209C153.039 53.686 153.831 55.6101 154.61 57.4263L157.093 63.2304C157.367 63.8724 157.733 64.5925 158.407 64.7451C158.828 64.84 159.263 64.6818 159.653 64.4976C160.78 63.9617 161.812 63.195 162.845 62.473C162.859 62.4825 162.873 62.4931 162.886 62.5046C163.824 63.2397 164.416 64.2687 165.065 65.2494L166.807 68.0835C166.793 68.2261 166.817 68.3697 166.877 68.5003C167.003 68.7345 167.168 68.9464 167.365 69.1274C168.469 70.3076 169.197 71.785 169.458 73.3739C169.521 73.7759 169.565 74.2039 169.803 74.5332C170.27 75.1752 171.263 75.1343 171.965 74.7677C172.18 74.6676 172.366 74.5153 172.506 74.3248C172.624 74.1178 172.699 73.8893 172.726 73.6531C172.852 73.0674 172.922 72.471 172.934 71.8722C172.94 70.7464 172.517 69.6652 172.318 68.5524ZM162.332 16.4074C162.452 16.3273 162.569 16.2399 162.683 16.1487C162.445 16.852 162.061 17.4984 161.557 18.0468C161.439 18.1752 161.313 18.2961 161.181 18.4189C161.181 18.3892 161.181 18.3594 161.181 18.3315C161.166 18.0468 161.181 17.7472 161.191 17.4532C161.64 17.1863 162.028 16.8303 162.332 16.4074ZM152.474 38.2446C152.474 38.2278 152.487 38.2092 152.494 38.1906C152.592 38.2636 152.678 38.3515 152.748 38.4511C152.68 38.5984 152.649 38.7592 152.655 38.9208C152.662 39.0823 152.706 39.2401 152.785 39.3816C152.932 39.6272 153.194 39.8542 153.136 40.1259C153.078 40.3976 152.723 40.5148 152.432 40.5613C152.057 40.6209 151.681 40.6916 151.306 40.7679C151.306 40.7679 151.306 40.7549 151.306 40.7474C151.314 40.4356 151.271 40.1245 151.178 39.8263C151.82 39.5639 152.222 38.9052 152.474 38.2446Z" fill="url(#paint1_linear_115_417)"/>
<path d="M164.093 6.0255C164.344 5.60526 164.498 5.13469 164.543 4.64808C164.588 4.16146 164.522 3.67107 164.352 3.21265C164.181 2.75423 163.909 2.33933 163.556 1.99818C163.204 1.65704 162.778 1.39825 162.312 1.24068C161.845 1.0831 161.349 1.03072 160.859 1.08734C160.37 1.14397 159.899 1.30817 159.482 1.56798C159.064 1.82779 158.711 2.17667 158.446 2.58918C158.182 3.0017 158.014 3.46745 157.955 3.9525C157.915 4.28337 157.925 4.61831 157.985 4.9462C157.175 5.32894 156.476 5.90833 155.952 6.63055C155.429 7.35278 155.098 8.19442 154.991 9.07732C154.956 9.37123 154.945 9.66746 154.959 9.96309C154.507 10.6517 154.223 11.4354 154.131 12.2519C154.038 13.0683 154.139 13.8949 154.425 14.6659C154.711 15.4369 155.175 16.131 155.78 16.693C156.384 17.255 157.113 17.6693 157.907 17.9031C158.702 18.1369 159.54 18.1837 160.356 18.0396C161.172 17.8956 161.943 17.5648 162.607 17.0735C163.271 16.5823 163.811 15.9441 164.182 15.2098C164.554 14.4754 164.748 13.6653 164.748 12.8437C164.748 12.7606 164.748 12.6768 164.748 12.5925C165.408 11.5874 165.703 10.3896 165.585 9.19606C165.467 8.00253 164.943 6.88437 164.098 6.0255H164.093Z" fill="#2F2E41"/>
<g opacity="0.1">
<path opacity="0.1" d="M157.941 4.11202L157.984 4.08969C157.984 4.032 157.967 3.97431 157.96 3.91663V3.95198C157.947 4.00595 157.945 4.05805 157.941 4.11202Z" fill="black"/>
<path opacity="0.1" d="M165.561 9.48664C165.464 10.2894 165.182 11.0593 164.737 11.7364C164.737 11.8195 164.737 11.9033 164.737 11.9876C164.716 13.3375 164.175 14.6283 163.223 15.5946C162.272 16.5609 160.984 17.1293 159.623 17.1829C158.263 17.2366 156.933 16.7713 155.907 15.8829C154.882 14.9945 154.239 13.7504 154.11 12.4063C154.099 12.5478 154.092 12.6911 154.092 12.8362C154.078 13.5379 154.206 14.2353 154.468 14.8874C154.73 15.5396 155.12 16.1335 155.616 16.6344C156.112 17.1354 156.703 17.5333 157.356 17.8049C158.009 18.0766 158.71 18.2165 159.418 18.2165C160.126 18.2165 160.827 18.0766 161.48 17.8049C162.132 17.5333 162.724 17.1354 163.22 16.6344C163.716 16.1335 164.106 15.5396 164.368 14.8874C164.629 14.2353 164.757 13.5379 164.744 12.8362C164.744 12.7531 164.744 12.6693 164.744 12.585C165.186 11.91 165.465 11.1434 165.561 10.3445C165.604 9.99069 165.611 9.63333 165.579 9.27823C165.579 9.34708 165.576 9.41779 165.561 9.48664Z" fill="black"/>
<path opacity="0.1" d="M164.53 3.91336C164.472 4.35715 164.323 4.78453 164.093 5.16944C164.185 5.26435 164.28 5.35553 164.359 5.46532C164.445 5.23135 164.504 4.9885 164.534 4.74144C164.567 4.46634 164.566 4.18816 164.53 3.91336Z" fill="black"/>
</g>
<path d="M142.63 62.6738C142.655 62.9748 142.737 63.2684 142.872 63.5391C142.94 63.6738 143.04 63.7904 143.163 63.8794C143.285 63.9683 143.428 64.0271 143.578 64.0509C143.854 64.0522 144.124 63.9746 144.357 63.8275C144.83 63.5819 145.324 63.2972 145.569 62.8264C145.815 62.3556 145.776 61.8271 145.735 61.3154L145.417 57.2903C144.65 57.268 143.878 57.2699 143.112 57.3108C142.346 57.3517 142.221 57.5285 142.326 58.2636C142.536 59.7262 142.433 61.2112 142.63 62.6738Z" fill="#FBBEBE"/>
<path d="M165.135 65.3963L166.959 68.3197C167.039 68.4898 167.181 68.6231 167.357 68.6918C167.486 68.7083 167.617 68.6849 167.732 68.6248C168.341 68.3625 168.806 67.86 169.255 67.3744C169.557 67.0431 169.87 66.6951 169.985 66.2578C170.044 66.0234 170.041 65.7779 169.977 65.5447C169.914 65.3116 169.791 65.0984 169.621 64.9255C169.407 64.7424 169.176 64.5792 168.932 64.4379C167.488 63.474 166.837 61.6466 165.414 60.6492C165.332 60.5819 165.231 60.5393 165.125 60.5264C165.019 60.5324 164.917 60.5665 164.829 60.625L162.882 61.6838C162.039 62.1397 162.306 62.1937 162.946 62.6868C163.896 63.4144 164.483 64.4286 165.135 65.3963Z" fill="#FBBEBE"/>
<path d="M146.591 60.3459C146.324 60.2621 146.028 60.1877 145.772 60.3086C145.654 60.3801 145.554 60.4776 145.481 60.5934C145.407 60.7092 145.361 60.8404 145.346 60.9767C145.295 61.2447 145.301 61.5238 145.226 61.7862C145.098 62.2309 144.759 62.577 144.43 62.9027C144.296 63.0591 144.124 63.1778 143.929 63.2469C143.666 63.3139 143.386 63.193 143.118 63.2469C142.962 63.2862 142.82 63.3672 142.708 63.4811C142.595 63.5949 142.516 63.7373 142.48 63.8927C142.409 64.2036 142.398 64.5249 142.448 64.8398L142.654 67.084C142.688 67.3578 142.688 67.6346 142.654 67.9084C142.577 68.4015 142.288 68.8388 142.129 69.3078C141.969 69.7767 141.977 70.3852 142.378 70.6867C142.519 70.7792 142.68 70.8353 142.848 70.8499C143.016 70.8646 143.185 70.8372 143.34 70.7704C143.647 70.6323 143.919 70.4275 144.135 70.1712C145.365 68.8426 145.913 67.0412 146.868 65.5079C147.113 65.1515 147.332 64.7784 147.524 64.3914C147.653 64.0918 147.738 63.7773 147.843 63.4609C147.99 63.0503 148.166 62.6504 148.37 62.2644C148.485 62.043 148.918 61.5201 148.828 61.2633C148.682 60.8483 147.006 60.4761 146.591 60.3459Z" fill="#2F2E41"/>
<path d="M168.752 66.5351C168.476 67.0495 168.015 67.4421 167.46 67.6349C167.301 67.6787 167.152 67.7554 167.025 67.86C166.94 67.9629 166.887 68.0883 166.873 68.2207C166.86 68.3531 166.885 68.4865 166.948 68.6044C167.076 68.8343 167.242 69.0418 167.438 69.2184C168.541 70.3761 169.272 71.834 169.534 73.4054C169.598 73.8017 169.641 74.2223 169.882 74.548C170.349 75.1806 171.344 75.1397 172.046 74.7787C172.261 74.6813 172.448 74.5315 172.589 74.3433C172.706 74.1394 172.781 73.914 172.808 73.6808C172.934 73.1033 173.004 72.515 173.017 71.9241C173.003 70.8076 172.581 69.7414 172.378 68.6434C172.091 67.0859 172.236 65.4074 171.504 64.0006C171.431 63.835 171.316 63.6913 171.169 63.5838C170.986 63.4882 170.781 63.4426 170.574 63.4516C169.914 63.4237 169.251 63.4181 168.59 63.4349C168.403 63.4349 168.187 63.4609 168.091 63.621C167.995 63.781 168.08 63.9932 168.166 64.155C168.575 64.9478 169.24 65.5823 168.752 66.5351Z" fill="#2F2E41"/>
<path d="M153.054 38.6148C152.869 38.7657 152.743 38.9765 152.7 39.21C152.656 39.4435 152.697 39.6848 152.815 39.8913C152.962 40.1332 153.224 40.3565 153.166 40.6357C153.108 40.9148 152.751 41.019 152.46 41.0655C149.898 41.4693 147.403 42.2137 144.918 42.9543L142.311 43.7322C141.56 43.9573 140.794 44.1881 140.145 44.6254C139.549 45.0277 139.077 45.5862 138.782 46.2387C138.485 46.9012 138.382 47.6307 138.275 48.3471C137.885 50.9895 137.385 53.6561 136.195 56.0511L142.519 58.098C143.132 58.3225 143.767 58.481 144.413 58.5707C145.03 58.6216 145.65 58.5922 146.258 58.4832C146.219 57.0838 146.195 55.6417 146.155 54.2423C146.152 53.8 146.123 53.3583 146.069 52.9192C145.975 52.2493 145.765 51.5962 145.693 50.9225C145.984 50.6843 146.409 50.7364 146.786 50.7532C147.649 50.7792 148.492 50.4815 149.258 50.0889C150.024 49.6962 150.739 49.2087 151.511 48.8104C152.781 48.1443 154.227 47.6939 155.197 46.6425C154.704 48.5034 153.536 50.1372 153.32 52.0539C153.104 53.9706 153.883 55.8873 154.664 57.6793L157.153 63.4015C157.427 64.0342 157.793 64.7432 158.467 64.8902C158.889 64.9851 159.325 64.8269 159.717 64.6464C162.005 63.582 163.847 61.5853 166.287 60.9451C166.099 59.7449 165.15 58.753 164.607 57.6644C164.151 56.747 164.001 55.7142 163.697 54.7354C163.393 53.7566 162.869 52.7666 161.949 52.3014C161.514 52.0818 160.924 51.8902 160.883 51.4045C160.881 51.249 160.914 51.0951 160.981 50.9542C161.309 50.1374 161.818 49.4037 162.469 48.8067C162.55 48.7418 162.614 48.6589 162.657 48.5648C162.682 48.4707 162.687 48.3725 162.672 48.2764C162.625 47.4967 163.047 46.7672 163.517 46.142C163.986 45.5167 164.528 44.9194 164.793 44.1843C165.247 42.919 164.793 41.5308 164.346 40.2654C164.158 39.7536 163.971 39.2251 163.595 38.8288C163.01 38.2072 162.094 38.0286 161.243 37.9356C158.48 37.6434 155.237 36.927 153.054 38.6148Z" fill="#2F2E41"/>
<g opacity="0.1">
<path opacity="0.1" d="M163.507 44.1508C163.036 44.7779 162.616 45.5055 162.663 46.2852C162.677 46.3814 162.672 46.4795 162.647 46.5737C162.605 46.6683 162.541 46.7518 162.46 46.8174C161.808 47.4141 161.299 48.1478 160.971 48.9649C160.905 49.1057 160.871 49.2597 160.874 49.4152C160.9 49.7185 161.142 49.9083 161.437 50.0609C161.721 49.6003 162.069 49.1807 162.469 48.8141C162.55 48.7492 162.614 48.6664 162.657 48.5722C162.682 48.4781 162.687 48.3799 162.672 48.2838C162.625 47.5041 163.047 46.7746 163.517 46.1494C163.986 45.5241 164.528 44.9268 164.793 44.1918C165.021 43.4739 165.044 42.7075 164.861 41.9773C164.84 42.0499 164.817 42.1225 164.793 42.1932C164.519 42.9245 163.976 43.5237 163.507 44.1508Z" fill="black"/>
<path opacity="0.1" d="M152.766 38.9925C152.859 38.9754 152.945 38.9341 153.017 38.873C153.088 38.8118 153.141 38.733 153.172 38.6445C153.177 38.6088 153.177 38.5724 153.172 38.5366C153.132 38.5664 153.093 38.5924 153.054 38.6241C152.928 38.7208 152.829 38.8476 152.766 38.9925Z" fill="black"/>
<path opacity="0.1" d="M144.413 56.5777C143.767 56.4863 143.132 56.3279 142.519 56.1051L136.937 54.2907C136.721 54.8902 136.47 55.4767 136.186 56.0474L142.51 58.0943C143.122 58.3188 143.757 58.4773 144.404 58.567C145.02 58.6179 145.64 58.5885 146.249 58.4795C146.23 57.8227 146.215 57.1546 146.2 56.4884C145.611 56.5945 145.01 56.6245 144.413 56.5777Z" fill="black"/>
<path opacity="0.1" d="M159.706 62.6497C159.314 62.8358 158.878 62.9884 158.456 62.8953C157.78 62.7446 157.414 62.0337 157.142 61.4066L154.653 55.6845C154.107 54.4265 153.553 53.1165 153.35 51.7767C153.335 51.8716 153.32 51.9628 153.309 52.0595C153.08 53.9967 153.872 55.8929 154.653 57.6849L157.142 63.4071C157.416 64.0398 157.782 64.7487 158.456 64.8958C158.878 64.9907 159.314 64.8325 159.706 64.652C161.994 63.5876 163.836 61.5909 166.276 60.9507C166.182 60.3255 165.874 59.756 165.525 59.1996C163.438 60.0054 161.754 61.7044 159.706 62.6497Z" fill="black"/>
<path opacity="0.1" d="M155.193 44.6496C154.223 45.701 152.777 46.1494 151.507 46.8156C150.745 47.2157 150.031 47.7032 149.254 48.0959C148.477 48.4885 147.645 48.7844 146.782 48.7602C146.407 48.749 145.98 48.6895 145.689 48.9277C145.75 49.5511 145.932 50.154 146.035 50.7718C146.284 50.7386 146.536 50.7336 146.786 50.7569C147.649 50.783 148.492 50.4852 149.258 50.0926C150.024 49.6999 150.739 49.2124 151.51 48.8142C152.348 48.375 153.26 48.0289 154.063 47.5451C154.465 46.5942 154.927 45.6563 155.193 44.6496Z" fill="black"/>
</g>
<path d="M157.412 18.8059C157.444 19.4293 157.254 20.0973 156.77 20.4974C156.614 20.6258 156.434 20.7245 156.284 20.8584C156.151 20.9936 156.05 21.1558 155.987 21.3336C155.924 21.5115 155.9 21.7008 155.918 21.8886C155.936 22.0763 155.994 22.258 156.09 22.421C156.186 22.584 156.316 22.7245 156.472 22.8328C156.973 23.138 157.613 23.0561 158.193 22.9556C158.964 22.8475 159.72 22.6514 160.445 22.3713C161.178 22.086 161.802 21.5796 162.229 20.9236C161.596 20.5756 161.253 19.8405 161.213 19.126C161.174 18.4114 161.373 17.5945 160.915 17.0381C160.457 16.4817 159.657 16.5003 158.991 16.6864C158.653 16.7794 158.326 16.906 157.988 16.9971C157.817 17.0418 157.251 17.0437 157.14 17.1683C156.926 17.3991 157.391 18.443 157.412 18.8059Z" fill="#FBBEBE"/>
<path opacity="0.1" d="M157.412 18.8059C157.444 19.4293 157.254 20.0973 156.77 20.4974C156.614 20.6258 156.434 20.7245 156.284 20.8584C156.151 20.9936 156.05 21.1558 155.987 21.3336C155.924 21.5115 155.9 21.7008 155.918 21.8886C155.936 22.0763 155.994 22.258 156.09 22.421C156.186 22.584 156.316 22.7245 156.472 22.8328C156.973 23.138 157.613 23.0561 158.193 22.9556C158.964 22.8475 159.72 22.6514 160.445 22.3713C161.178 22.086 161.802 21.5796 162.229 20.9236C161.596 20.5756 161.253 19.8405 161.213 19.126C161.174 18.4114 161.373 17.5945 160.915 17.0381C160.457 16.4817 159.657 16.5003 158.991 16.6864C158.653 16.7794 158.326 16.906 157.988 16.9971C157.817 17.0418 157.251 17.0437 157.14 17.1683C156.926 17.3991 157.391 18.443 157.412 18.8059Z" fill="black"/>
<path d="M159.349 18.7649C161.416 18.7649 163.092 17.1037 163.092 15.0544C163.092 13.0051 161.416 11.3438 159.349 11.3438C157.282 11.3438 155.606 13.0051 155.606 15.0544C155.606 17.1037 157.282 18.7649 159.349 18.7649Z" fill="#FBBEBE"/>
<path d="M147.54 43.5218C147.474 43.8153 147.354 44.0945 147.188 44.3461C146.752 45.1154 146.595 46.0088 146.741 46.8788C146.821 47.31 147.006 47.7151 147.28 48.0587C147.555 48.4023 147.911 48.6738 148.316 48.8494C148.665 48.9871 149.098 49.0225 149.388 48.7824C148.888 48.1386 148.862 47.2584 148.892 46.4452C148.883 46.2936 148.92 46.1427 148.997 46.0116C149.017 45.9803 149.044 45.9535 149.075 45.9328C149.107 45.9121 149.142 45.898 149.179 45.8914C149.216 45.8848 149.254 45.8857 149.29 45.8943C149.327 45.9028 149.361 45.9186 149.391 45.9409C149.379 46.4523 149.479 46.9602 149.684 47.4296C149.763 47.6157 149.898 47.8018 150.097 47.8018C150.382 47.8018 150.459 47.411 150.448 47.1281C150.405 45.9781 150.347 44.7797 149.787 43.7693C149.583 43.3971 149.311 43.0547 149.224 42.6397C149.221 42.4959 149.171 42.3569 149.082 42.2434C149.02 42.1953 148.948 42.1622 148.871 42.1466C148.548 42.0554 147.786 41.7744 147.52 42.074C147.253 42.3736 147.584 43.1384 147.54 43.5218Z" fill="#FBBEBE"/>
<path d="M153.089 23.8079C152.661 23.7614 152.321 24.1503 152.087 24.5095C151.21 25.8488 150.579 27.3311 150.223 28.8881C150.035 29.6827 149.928 30.507 149.547 31.229C149.457 31.3796 149.383 31.5393 149.327 31.7054C149.295 31.9603 149.284 32.2173 149.294 32.4739C149.254 32.9373 148.978 33.3486 148.884 33.8063C148.83 34.078 148.841 34.3646 148.792 34.6326C148.706 35.1108 148.441 35.5351 148.271 35.991C147.972 36.793 147.976 37.6658 147.756 38.5013C147.729 38.6374 147.669 38.765 147.582 38.8735C147.433 39.0354 147.195 39.0763 147 39.1786C146.847 39.2719 146.715 39.3966 146.615 39.5442C146.514 39.6918 146.446 39.859 146.416 40.0346C146.358 40.3861 146.351 40.7438 146.395 41.0972L146.568 43.2911C146.745 43.2186 146.861 43.0195 147.009 42.8966C147.279 42.6733 147.677 42.7236 148.023 42.7869L148.528 42.8762C149.044 42.9692 149.605 43.0883 149.936 43.4903C150.198 43.0827 150.048 42.4817 150.452 42.21C150.585 42.1225 150.746 42.0928 150.885 42.0239C151.016 41.9398 151.124 41.826 151.201 41.6919C151.277 41.5579 151.32 41.4075 151.326 41.2535C151.334 40.9453 151.291 40.6379 151.199 40.3435C151.846 40.0737 152.25 39.4224 152.513 38.773C152.79 37.9873 152.992 37.1773 153.115 36.3538C153.699 33.0918 154.242 29.8073 154.289 26.4913C154.324 25.9369 154.26 25.3807 154.101 24.8481C153.911 24.3159 153.645 23.8712 153.089 23.8079Z" fill="#FF6F61"/>
<path opacity="0.1" d="M153.089 23.8079C152.661 23.7614 152.321 24.1503 152.087 24.5095C151.21 25.8488 150.579 27.3311 150.223 28.8881C150.035 29.6827 149.928 30.507 149.547 31.229C149.457 31.3796 149.383 31.5393 149.327 31.7054C149.295 31.9603 149.284 32.2173 149.294 32.4739C149.254 32.9373 148.978 33.3486 148.884 33.8063C148.83 34.078 148.841 34.3646 148.792 34.6326C148.706 35.1108 148.441 35.5351 148.271 35.991C147.972 36.793 147.976 37.6658 147.756 38.5013C147.729 38.6374 147.669 38.765 147.582 38.8735C147.433 39.0354 147.195 39.0763 147 39.1786C146.847 39.2719 146.715 39.3966 146.615 39.5442C146.514 39.6918 146.446 39.859 146.416 40.0346C146.358 40.3861 146.351 40.7438 146.395 41.0972L146.568 43.2911C146.745 43.2186 146.861 43.0195 147.009 42.8966C147.279 42.6733 147.677 42.7236 148.023 42.7869L148.528 42.8762C149.044 42.9692 149.605 43.0883 149.936 43.4903C150.198 43.0827 150.048 42.4817 150.452 42.21C150.585 42.1225 150.746 42.0928 150.885 42.0239C151.016 41.9398 151.124 41.826 151.201 41.6919C151.277 41.5579 151.32 41.4075 151.326 41.2535C151.334 40.9453 151.291 40.6379 151.199 40.3435C151.846 40.0737 152.25 39.4224 152.513 38.773C152.79 37.9873 152.992 37.1773 153.115 36.3538C153.699 33.0918 154.242 29.8073 154.289 26.4913C154.324 25.9369 154.26 25.3807 154.101 24.8481C153.911 24.3159 153.645 23.8712 153.089 23.8079Z" fill="black"/>
<path d="M162.525 20.2573C161.907 20.897 161.117 21.3488 160.248 21.5599C159.387 21.7707 158.507 21.8997 157.621 21.9451C157.347 21.9903 157.067 21.966 156.806 21.8744C156.554 21.7627 156.363 21.4669 156.466 21.2138C156.509 21.137 156.538 21.0531 156.551 20.9663C156.551 20.7411 156.211 20.7225 155.987 20.7895C154.546 21.2305 153.172 22.1051 152.5 23.4468C152.124 24.206 152 25.0583 151.88 25.8938C151.569 28.0934 151.255 30.3413 151.676 32.5222C151.899 33.6853 152.331 34.8204 152.357 36.0039C152.372 36.6682 152.26 37.3288 152.265 37.9932C152.245 38.2252 152.307 38.457 152.442 38.6482C152.545 38.7673 152.703 38.8436 152.774 38.9832C152.894 39.2176 152.733 39.5414 152.892 39.7517C153.08 40.0104 153.498 39.8243 153.767 39.6419C155.125 38.7268 156.766 38.3168 158.4 38.4844C160.361 38.6947 162.31 39.7294 164.219 39.212C164.119 39.0712 164.035 38.921 163.965 38.7636C163.027 35.6727 163.081 32.2189 164.5 29.3123C164.986 28.3186 165.626 27.3714 165.814 26.2846C165.89 25.7754 165.896 25.2584 165.833 24.7476C165.733 23.7594 165.495 22.7639 164.954 21.9283C164.414 21.0928 163.522 20.3541 162.525 20.2573Z" fill="#FF6F61"/>
<path d="M153.47 44.4765C153.319 44.8805 153.245 45.3092 153.254 45.7401C153.24 46.1523 153.261 46.565 153.316 46.9738C153.348 47.3229 153.474 47.657 153.68 47.9415C153.786 48.0827 153.932 48.1895 154.099 48.2481C154.266 48.3068 154.447 48.3147 154.619 48.2709C154.754 48.2154 154.874 48.1308 154.971 48.0233C155.069 47.9158 155.141 47.788 155.182 47.6493C155.263 47.3726 155.322 47.0902 155.359 46.8045C155.524 45.9615 155.969 45.1706 155.978 44.3128C155.983 44.2112 155.967 44.1097 155.929 44.015C155.768 43.6615 154.972 43.2707 154.583 43.3265C154.095 43.401 153.647 44.0709 153.47 44.4765Z" fill="#FBBEBE"/>
<path opacity="0.1" d="M164.271 23.3855C164.198 24.1298 164.917 24.6788 165.21 25.3655C165.323 25.6859 165.386 26.0216 165.397 26.361C165.598 28.7187 165.442 31.0913 165.287 33.4546C165.26 34.2419 165.163 35.0253 164.997 35.7956C164.596 37.4108 163.607 38.8083 162.638 40.1668C162.492 40.3878 162.322 40.593 162.133 40.779C161.849 41.0093 161.533 41.1973 161.194 41.3372L157.864 42.9432C157.448 43.1255 157.052 43.3513 156.684 43.6168C156.256 43.9483 155.919 44.3817 155.706 44.8766C155.062 44.551 154.392 44.2569 153.748 43.9313C153.596 43.855 153.427 43.7452 153.403 43.5889C153.367 43.3656 153.602 43.2167 153.763 43.0492C154.065 42.7534 154.159 42.3142 154.326 41.9327C154.861 40.6599 156.203 39.8467 156.691 38.5553C156.879 38.0603 156.935 37.5001 157.266 37.0833C157.455 36.8737 157.668 36.6863 157.9 36.5251C158.412 36.094 158.882 35.6161 159.304 35.0978C159.494 34.9028 159.649 34.6776 159.764 34.4316C159.91 34.0594 159.867 33.6556 159.875 33.263C159.899 31.9752 160.487 30.7731 160.847 29.5412C161.185 28.3763 161.326 27.1519 161.771 26.0223C162.216 24.8928 163.087 23.6925 164.271 23.3855Z" fill="black"/>
<path d="M164.703 23.3855C164.63 24.1298 165.349 24.6788 165.641 25.3655C165.755 25.6859 165.818 26.0216 165.829 26.361C166.03 28.7187 165.874 31.0913 165.718 33.4546C165.691 34.2408 165.593 35.0229 165.425 35.7919C165.024 37.4071 164.035 38.8046 163.066 40.163C162.92 40.384 162.75 40.5892 162.561 40.7753C162.277 41.0055 161.961 41.1936 161.622 41.3335L158.3 42.9301C157.883 43.1124 157.488 43.3383 157.119 43.6038C156.691 43.9353 156.355 44.3686 156.141 44.8636C155.497 44.5379 154.827 44.2439 154.184 43.9183C154.031 43.842 153.863 43.7322 153.838 43.5759C153.802 43.3526 154.037 43.2037 154.199 43.0362C154.501 42.7403 154.595 42.3012 154.762 41.9197C155.297 40.6469 156.639 39.8337 157.127 38.5422C157.315 38.0472 157.371 37.4871 157.701 37.0703C157.89 36.8606 158.103 36.6733 158.336 36.512C158.848 36.0805 159.319 35.6027 159.742 35.0847C159.931 34.8898 160.086 34.6646 160.2 34.4186C160.346 34.0464 160.303 33.6426 160.31 33.2499C160.335 31.9622 160.922 30.7601 161.283 29.5282C161.621 28.3633 161.761 27.1389 162.206 26.0093C162.651 24.8798 163.518 23.6925 164.703 23.3855Z" fill="#FF6F61"/>
<path d="M161.206 9.32102C160.053 9.17996 158.885 9.41932 157.883 10.0021C158.03 10.0021 158.178 10.017 158.328 10.0356C159.436 10.168 160.473 10.6419 161.295 11.3904C162.116 12.1388 162.679 13.124 162.905 14.207C163.131 15.29 163.009 16.416 162.555 17.4261C162.1 18.4362 161.338 19.2794 160.374 19.8368C161.745 19.8824 163.08 19.4022 164.102 18.4962C165.124 17.5902 165.755 16.3282 165.862 14.9731C165.969 13.6179 165.545 12.274 164.678 11.2211C163.81 10.1683 162.567 9.48768 161.206 9.32102Z" fill="#2F2E41"/>
<path d="M162.844 12.2557C163.105 12.8425 163.12 13.5077 162.886 14.1054C162.861 14.0287 162.833 13.9535 162.799 13.8802C162.14 12.4269 160.113 11.8332 158.27 12.5367C157.183 12.9554 156.404 13.7369 156.081 14.6041C155.612 13.201 156.566 11.5876 158.315 10.914C160.158 10.2031 162.182 10.8042 162.844 12.2557Z" fill="#2F2E41"/>
<g opacity="0.1">
<path opacity="0.1" d="M162.854 13.9899C162.768 12.9698 162.385 11.9964 161.752 11.1877C161.119 10.3791 160.263 9.77005 159.287 9.43454C158.792 9.55321 158.317 9.74118 157.876 9.9928C158.022 9.9928 158.17 10.0077 158.321 10.0263C159.392 10.1536 160.4 10.6009 161.209 11.3087C162.019 12.0166 162.593 12.9516 162.854 13.9899Z" fill="black"/>
<path opacity="0.1" d="M163.717 10.1361C163.632 9.11613 163.249 8.14275 162.616 7.33435C161.983 6.52594 161.126 5.91735 160.151 5.58258C159.655 5.69961 159.18 5.88768 158.739 6.14084C158.886 6.14084 159.034 6.15573 159.184 6.17433C160.256 6.3013 161.263 6.74818 162.073 7.45572C162.882 8.16326 163.456 9.09804 163.717 10.1361Z" fill="black"/>
<path opacity="0.1" d="M163.74 4.38231C163.689 3.76703 163.459 3.17965 163.078 2.69144C162.696 2.20324 162.18 1.83519 161.592 1.63196C161.292 1.70788 161.005 1.827 160.74 1.98552C160.828 1.98552 160.919 1.98552 161.009 2.00413C161.653 2.08111 162.258 2.34945 162.746 2.7739C163.233 3.19834 163.58 3.75903 163.74 4.38231Z" fill="black"/>
<path opacity="0.1" d="M165.732 13.2735C165.837 14.5411 165.478 15.8041 164.719 16.8298C163.96 17.8556 162.853 18.5751 161.602 18.8561C161.243 19.2432 160.828 19.575 160.371 19.8405C161.196 19.8709 162.018 19.7102 162.77 19.3711C163.523 19.0321 164.185 18.524 164.705 17.8871C165.225 17.2502 165.588 16.502 165.765 15.7019C165.943 14.9017 165.93 14.0715 165.728 13.2772L165.732 13.2735Z" fill="black"/>
</g>
<path opacity="0.1" d="M179.639 12.4715C178.897 12.3329 178.13 12.4158 177.435 12.7097C177.019 12.8943 176.568 12.9897 176.112 12.9897C175.656 12.9897 175.205 12.8943 174.788 12.7097C174.296 12.496 173.763 12.3906 173.226 12.4009C172.688 12.4112 172.16 12.5369 171.676 12.7692C171.4 12.9143 171.093 12.991 170.781 12.9925C169.519 12.9925 168.47 11.7327 168.252 10.0691C168.504 9.88681 168.718 9.65811 168.883 9.3955C169.623 8.21385 170.76 7.45648 172.054 7.45648C173.347 7.45648 174.473 8.20083 175.213 9.37503C175.434 9.72731 175.743 10.0173 176.11 10.217C176.476 10.4168 176.889 10.5197 177.308 10.5157H177.341C178.336 10.5102 179.205 11.3085 179.639 12.4715Z" fill="#AD63FF"/>
<path opacity="0.1" d="M183.472 7.25548L181.433 8.53761L182.67 6.30458C182.32 6.02617 181.886 5.87219 181.437 5.86727H181.405C181.264 5.87052 181.122 5.86055 180.983 5.8375L180.29 6.2655L180.587 5.73143C180.097 5.56173 179.674 5.2433 179.378 4.82147L178.137 5.60675L178.918 4.19808C178.195 3.33836 177.229 2.80988 176.147 2.80988C174.862 2.80988 173.707 3.56725 172.975 4.75076C172.756 5.10344 172.446 5.39244 172.078 5.5885C171.71 5.78456 171.296 5.88073 170.878 5.86727H170.817C169.397 5.86727 168.245 7.46389 168.245 9.43269C168.245 11.4015 169.397 12.9981 170.817 12.9981C171.129 12.9974 171.436 12.9207 171.712 12.7748C172.195 12.5424 172.724 12.4167 173.261 12.4065C173.799 12.3962 174.332 12.5015 174.824 12.7153C175.243 12.9006 175.696 12.997 176.155 12.9981C176.608 12.9975 177.055 12.9031 177.469 12.7208C177.957 12.5112 178.485 12.408 179.018 12.4183C179.55 12.4285 180.073 12.552 180.553 12.7804C180.826 12.9224 181.13 12.9971 181.439 12.9981C182.86 12.9981 184.011 11.4015 184.011 9.43269C184.018 8.67367 183.833 7.92503 183.472 7.25548Z" fill="#AD63FF"/>
<path opacity="0.1" d="M195.219 36.3873C194.159 36.1879 193.063 36.3065 192.071 36.7278C191.476 36.991 190.832 37.127 190.181 37.127C189.529 37.127 188.885 36.991 188.29 36.7278C187.587 36.4225 186.826 36.272 186.059 36.2867C185.291 36.3015 184.536 36.4812 183.845 36.8134C183.451 37.021 183.012 37.1303 182.565 37.1317C180.763 37.1317 179.264 35.3322 178.952 32.9577C179.312 32.6965 179.617 32.3693 179.853 31.9938C180.91 30.306 182.547 29.223 184.384 29.223C186.222 29.223 187.838 30.293 188.889 31.964C189.206 32.4695 189.648 32.8852 190.175 33.1708C190.701 33.4565 191.293 33.6023 191.893 33.5942H191.94C193.362 33.5849 194.605 34.7256 195.219 36.3873Z" fill="#AD63FF"/>
<path opacity="0.1" d="M200.7 28.9346L197.787 30.7675L199.555 27.578C199.053 27.1822 198.433 26.9629 197.792 26.9546H197.745C197.543 26.9566 197.341 26.9417 197.141 26.91L196.154 27.5296L196.578 26.7667C195.878 26.5244 195.273 26.0684 194.851 25.4641L193.083 26.5806L194.209 24.569C193.175 23.339 191.782 22.5835 190.25 22.5835C188.412 22.5835 186.776 23.6683 185.719 25.3562C185.406 25.8629 184.963 26.2782 184.436 26.5594C183.908 26.8407 183.314 26.9777 182.715 26.9565H182.616C180.587 26.9565 178.942 29.2379 178.942 32.0497C178.942 34.8614 180.587 37.1429 182.616 37.1429C183.062 37.1414 183.501 37.0329 183.896 36.8265C184.586 36.4935 185.341 36.3132 186.109 36.2981C186.876 36.283 187.638 36.4335 188.341 36.739C188.935 37.0037 189.579 37.1413 190.23 37.1429C190.882 37.1445 191.526 37.01 192.122 36.7484C192.819 36.4486 193.574 36.301 194.334 36.3154C195.095 36.3299 195.843 36.5061 196.529 36.8321C196.92 37.0347 197.353 37.1413 197.794 37.1429C199.823 37.1429 201.468 34.8633 201.468 32.0497C201.48 30.9639 201.216 29.8926 200.7 28.9346Z" fill="#AD63FF"/>
<path opacity="0.1" d="M130.012 26.0558C130.754 25.9171 131.521 26 132.216 26.294C132.632 26.4786 133.082 26.574 133.538 26.574C133.994 26.574 134.445 26.4786 134.861 26.294C135.353 26.0802 135.886 25.9749 136.423 25.9852C136.961 25.9955 137.489 26.1211 137.973 26.3535C138.249 26.4984 138.556 26.575 138.868 26.5768C140.13 26.5768 141.181 25.317 141.398 23.6534C141.146 23.4716 140.932 23.2428 140.768 22.9798C140.028 21.7981 138.891 21.0407 137.595 21.0407C136.3 21.0407 135.178 21.7851 134.438 22.9593C134.216 23.3116 133.905 23.6012 133.537 23.8C133.169 23.9988 132.755 24.1002 132.336 24.0944H132.304C131.305 24.0944 130.434 24.8927 130.012 26.0558Z" fill="#AD63FF"/>
<path opacity="0.1" d="M126.168 20.8398L128.206 22.1219L126.967 19.8889C127.318 19.6107 127.752 19.4568 128.201 19.4516H128.234C128.376 19.4548 128.517 19.4448 128.657 19.4218L129.347 19.8554L129.051 19.3213C129.541 19.1517 129.965 18.8333 130.262 18.4113L131.499 19.1892L130.716 17.7805C131.44 16.9208 132.405 16.3923 133.488 16.3923C134.774 16.3923 135.929 17.1497 136.661 18.3332C136.88 18.686 137.189 18.9751 137.557 19.1712C137.926 19.3673 138.34 19.4633 138.757 19.4497H138.825C140.246 19.4497 141.397 21.0463 141.397 23.0151C141.397 24.9839 140.246 26.5805 138.825 26.5805C138.513 26.5794 138.205 26.5027 137.93 26.3572C137.446 26.1248 136.917 25.9992 136.38 25.9889C135.843 25.9786 135.31 26.084 134.817 26.2977C134.399 26.483 133.946 26.5794 133.488 26.5805C133.036 26.5803 132.588 26.4859 132.174 26.3033C131.686 26.0936 131.157 25.9904 130.625 26.0006C130.093 26.0109 129.569 26.1344 129.088 26.3628C128.815 26.5051 128.511 26.5797 128.202 26.5805C126.783 26.5805 125.631 24.9839 125.631 23.0151C125.623 22.2569 125.808 21.5089 126.168 20.8398Z" fill="#AD63FF"/>
</g>
<defs>
<linearGradient id="paint0_linear_115_417" x1="111.5" y1="148" x2="111.5" y2="8.68463" gradientUnits="userSpaceOnUse">
<stop stop-color="#6C63FF"/>
<stop offset="1" stop-color="#3F3D56"/>
</linearGradient>
<linearGradient id="paint1_linear_115_417" x1="154.574" y1="75.0394" x2="154.574" y2="0.000127917" gradientUnits="userSpaceOnUse">
<stop stop-color="#808080" stop-opacity="0.25"/>
<stop offset="0.54" stop-color="#808080" stop-opacity="0.12"/>
<stop offset="1" stop-color="#808080" stop-opacity="0.1"/>
</linearGradient>
<clipPath id="clip0_115_417">
<rect width="223" height="148" fill="white"/>
</clipPath>
</defs>
</svg>
