<svg width="503" height="301" viewBox="0 0 503 301" fill="none" xmlns="http://www.w3.org/2000/svg">
<path opacity="0.1" d="M467.85 206.9C448.191 217.96 446.497 239.682 449.875 258.055C451.008 264.204 452.43 270.757 449 276.395C444.803 283.29 434.393 286.821 424.445 287.782C406.313 289.533 387.243 284.306 374.797 274.169C364.04 265.408 358.33 253.588 347.249 245.061C328.694 230.792 299.352 228.698 273.028 230.489C254.401 231.753 233.68 234.12 218.641 225.701C208.06 219.775 202.94 209.598 201.703 199.677C201.113 194.886 201.228 189.86 198.373 185.57C196.665 183.019 194 180.908 191.174 179.01C165.368 161.678 125.55 159.917 101.042 141.544C84.49 129.134 77.6388 110.736 78.0146 93.1019C78.3905 75.4678 85.2417 58.3021 92.7638 41.5867C98.0973 29.7202 104.516 17.198 118.047 9.97869C132.325 2.34508 152.136 2.47837 168.18 7.7956C184.223 13.1128 196.984 22.9043 207.494 33.51C220.63 46.767 231.687 62.1856 250.718 70.374C263.702 75.9686 278.865 77.4852 293.42 79.9313C317.746 84.0129 341.093 90.8647 364.23 97.8715C386.382 104.576 408.625 111.518 428.389 121.648C442.377 128.806 452.14 138.579 464.886 146.634C473.193 151.883 483.213 154.92 490.692 160.965C499.903 168.411 506.826 179.492 500.208 189.424C493.928 198.859 478.279 201.028 467.85 206.9Z" fill="#AD63FF"/>
<path d="M379.859 63.261H251.5V66.322H379.859V63.261Z" fill="#EBECF0"/>
<path d="M379.859 66.322H251.5V118.359H379.859V66.322Z" fill="#F8F9FA"/>
<path opacity="0.5" d="M382.742 82.4891C380.705 82.7664 378.935 83.5338 377.128 84.2291C374.749 85.1441 372.879 85.3746 370.267 84.809C368.64 84.4488 366.803 84.139 365.219 84.7766C363.221 85.58 362.992 87.727 360.076 87.0498C359.067 86.8156 358.648 88.0116 359.643 88.2458C360.49 88.4568 361.402 88.4733 362.262 88.2932C363.122 88.1131 363.892 87.7444 364.477 87.2335C365.362 86.4446 365.733 85.6736 367.331 85.6448C368.573 85.6232 369.743 86.0051 370.928 86.2356C375.634 87.1074 378.817 84.2795 383.175 83.6851C384.212 83.541 383.769 82.3486 382.742 82.4891Z" fill="#AD63FF"/>
<path d="M359.98 87.165C355.479 86.8048 350.94 86.477 346.421 86.9201C342.329 87.3236 338.808 88.5484 335.216 90.0434C331.624 91.5384 328.122 93.0299 323.978 92.9038C319.834 92.7777 316.075 91.4628 312.084 90.9837C308.244 90.5369 305.223 91.1854 302.092 92.8785C300.251 93.8728 298.462 94.5933 296.164 94.7374C294.137 94.8635 292.101 94.687 290.069 94.669C286.631 94.5885 283.257 95.3838 280.487 96.9277C277.846 98.3687 275.567 100.17 272.784 101.449C269.22 103.088 265.847 102.771 262.379 101.161C259.243 99.7196 256.365 97.8355 252.521 97.7095C251.469 97.6734 251.469 98.9163 252.521 98.9487C256.156 99.0676 258.948 101.071 261.931 102.407C264.582 103.592 267.527 104.248 270.567 103.571C276.7 102.202 280.121 97.1511 286.448 96.1136C290.588 95.4363 294.927 96.5783 299.023 95.5804C300.822 95.1445 302.249 94.2727 303.781 93.4766C305.419 92.5652 307.391 92.0616 309.424 92.0356C313.468 92.0356 317.298 93.3577 321.238 93.8836C324.847 94.3698 328.568 93.9789 331.866 92.7669C336.058 91.3079 339.798 89.2184 344.37 88.4439C349.494 87.5649 354.837 87.9972 360.009 88.4007C361.041 88.4871 361.032 87.2479 359.98 87.165Z" fill="#AD63FF"/>
<path d="M360.052 89.6256C361.86 89.6256 363.325 88.5159 363.325 87.1471C363.325 85.7783 361.86 84.6686 360.052 84.6686C358.244 84.6686 356.778 85.7783 356.778 87.1471C356.778 88.5159 358.244 89.6256 360.052 89.6256Z" fill="#AD63FF"/>
<path d="M254.462 65.327C255.003 65.327 255.442 64.9948 255.442 64.5849C255.442 64.1751 255.003 63.8428 254.462 63.8428C253.921 63.8428 253.482 64.1751 253.482 64.5849C253.482 64.9948 253.921 65.327 254.462 65.327Z" fill="#F8F9FA"/>
<path d="M257.079 65.327C257.62 65.327 258.059 64.9948 258.059 64.5849C258.059 64.1751 257.62 63.8428 257.079 63.8428C256.537 63.8428 256.098 64.1751 256.098 64.5849C256.098 64.9948 256.537 65.327 257.079 65.327Z" fill="#F8F9FA"/>
<path d="M259.7 65.327C260.241 65.327 260.68 64.9948 260.68 64.5849C260.68 64.1751 260.241 63.8428 259.7 63.8428C259.159 63.8428 258.72 64.1751 258.72 64.5849C258.72 64.9948 259.159 65.327 259.7 65.327Z" fill="#F8F9FA"/>
<path d="M3.38744 203.424C3.38744 203.424 -20.197 231.321 57.1173 231.8C57.1173 231.8 58.2545 207.527 32.981 197.527C28.0666 195.573 22.3768 195.053 16.9893 196.063C11.6018 197.074 6.89095 199.545 3.74903 203.009L3.38744 203.424Z" fill="#AD63FF"/>
<path d="M3.56372 202.956C3.56372 202.956 43.1629 208.864 57.1176 231.8" stroke="#535461" stroke-miterlimit="10"/>
<path d="M60.5716 228.047C60.5716 228.047 35.1458 203.168 37.4677 178.642C38.4192 168.35 35.2267 158.069 27.8521 149.387C24.3431 145.276 20.3441 141.417 15.9053 137.859" stroke="#535461" stroke-width="2" stroke-miterlimit="10"/>
<path d="M17.2372 122.401C19.0119 125.845 15.9241 138.27 15.9241 138.27C15.9241 138.27 2.54037 130.708 0.765706 127.264C0.297777 126.439 0.0540063 125.55 0.0489097 124.652C0.0438132 123.753 0.277493 122.863 0.736039 122.035C1.19458 121.206 1.86862 120.456 2.71802 119.829C3.56743 119.201 4.57483 118.71 5.68026 118.384C6.78569 118.057 7.96655 117.903 9.15255 117.929C10.3385 117.955 11.5054 118.162 12.5837 118.537C13.662 118.911 14.6297 119.447 15.4292 120.111C16.2286 120.774 16.8435 121.553 17.2372 122.401V122.401Z" fill="#AD63FF"/>
<path d="M40.6936 137.452C39.7135 141.076 28.1996 150.233 28.1996 150.233C28.1996 150.233 22.3856 138.381 23.3657 134.743C23.5739 133.863 24.0125 133.024 24.6556 132.275C25.2987 131.526 26.1333 130.882 27.1102 130.38C28.0872 129.879 29.1867 129.531 30.3441 129.356C31.5015 129.182 32.6933 129.184 33.8493 129.364C35.0054 129.544 36.1022 129.897 37.0754 130.402C38.0485 130.908 38.8782 131.555 39.5155 132.307C40.1529 133.059 40.5851 133.9 40.7866 134.781C40.9881 135.661 40.9549 136.563 40.6889 137.434L40.6936 137.452Z" fill="#AD63FF"/>
<path d="M56.9081 170.234C53.6443 172.987 37.6057 176.492 37.6057 176.492C37.6057 176.492 40.4889 164.038 43.748 161.286C45.3248 159.992 47.511 159.22 49.8336 159.138C52.1561 159.055 54.4282 159.668 56.1582 160.845C57.8881 162.021 58.9367 163.666 59.0771 165.423C59.2174 167.18 58.4382 168.909 56.9081 170.234V170.234Z" fill="#AD63FF"/>
<path d="M61.7992 197.134C59.1967 200.264 44.1667 205.78 44.1667 205.78C44.1667 205.78 44.2286 193.139 46.8311 190.008C47.4374 189.245 48.2388 188.58 49.1885 188.054C50.1381 187.528 51.2169 187.15 52.3616 186.944C53.5064 186.737 54.694 186.706 55.855 186.851C57.016 186.997 58.127 187.316 59.1229 187.791C60.1189 188.265 60.9797 188.886 61.655 189.615C62.3304 190.345 62.8066 191.169 63.0558 192.04C63.3051 192.911 63.3223 193.811 63.1065 194.686C62.8907 195.562 62.4463 196.397 61.7992 197.141V197.134Z" fill="#AD63FF"/>
<path d="M11.2331 156.012C15.734 157.453 32.2198 155.443 32.2198 155.443C32.2198 155.443 22.6185 145.096 18.1176 143.655C17.0461 143.313 15.896 143.134 14.733 143.128C13.5701 143.122 12.417 143.29 11.3397 143.622C10.2623 143.954 9.28182 144.443 8.45413 145.061C7.62643 145.68 6.96776 146.416 6.51571 147.227C6.06366 148.038 5.8271 148.909 5.81952 149.79C5.81195 150.67 6.03351 151.543 6.47156 152.359C6.90961 153.175 7.55556 153.917 8.37254 154.544C9.18953 155.171 10.1615 155.669 11.2331 156.012V156.012Z" fill="#AD63FF"/>
<path d="M17.4946 187.414C22.357 187.775 37.2918 182.115 37.2918 182.115C37.2918 182.115 24.0318 174.435 19.1693 174.082C17.9968 173.974 16.8076 174.044 15.6718 174.29C14.536 174.535 13.4767 174.951 12.5563 175.511C11.6359 176.072 10.8731 176.766 10.3129 177.553C9.75275 178.341 9.4065 179.205 9.29464 180.095C9.18278 180.986 9.30756 181.884 9.66162 182.737C10.0157 183.59 10.5919 184.381 11.3562 185.063C12.1204 185.745 13.0574 186.304 14.1116 186.707C15.1659 187.11 16.3162 187.35 17.4946 187.411V187.414Z" fill="#AD63FF"/>
<path d="M29.0988 217.3C33.8138 218.269 49.7953 214.609 49.7953 214.609C49.7953 214.609 38.4384 205.34 33.7234 204.375C32.5947 204.126 31.4117 204.05 30.2437 204.151C29.0756 204.252 27.946 204.528 26.9207 204.964C25.8954 205.4 24.9951 205.986 24.2724 206.688C23.5497 207.39 23.0192 208.194 22.7118 209.053C22.4044 209.912 22.3263 210.809 22.482 211.692C22.6378 212.574 23.0244 213.424 23.6191 214.192C24.2138 214.96 25.0047 215.63 25.9456 216.164C26.8864 216.698 27.9584 217.084 29.0988 217.3V217.3Z" fill="#AD63FF"/>
<path opacity="0.25" d="M17.2372 122.401C19.0119 125.845 15.9241 138.27 15.9241 138.27C15.9241 138.27 2.54037 130.708 0.765706 127.264C0.297777 126.439 0.0540063 125.55 0.0489097 124.652C0.0438132 123.753 0.277493 122.863 0.736039 122.035C1.19458 121.206 1.86862 120.456 2.71802 119.829C3.56743 119.201 4.57483 118.71 5.68026 118.384C6.78569 118.057 7.96655 117.903 9.15255 117.929C10.3385 117.955 11.5054 118.162 12.5837 118.537C13.662 118.911 14.6297 119.447 15.4292 120.111C16.2286 120.774 16.8435 121.553 17.2372 122.401V122.401Z" fill="black"/>
<path opacity="0.25" d="M40.6936 137.452C39.7135 141.076 28.1996 150.233 28.1996 150.233C28.1996 150.233 22.3856 138.381 23.3657 134.743C23.5739 133.863 24.0125 133.024 24.6556 132.275C25.2987 131.526 26.1333 130.882 27.1102 130.38C28.0872 129.879 29.1867 129.531 30.3441 129.356C31.5015 129.182 32.6933 129.184 33.8493 129.364C35.0054 129.544 36.1022 129.897 37.0754 130.402C38.0485 130.908 38.8782 131.555 39.5155 132.307C40.1529 133.059 40.5851 133.9 40.7866 134.781C40.9881 135.661 40.9549 136.563 40.6889 137.434L40.6936 137.452Z" fill="black"/>
<path opacity="0.25" d="M56.9081 170.234C53.6443 172.987 37.6057 176.492 37.6057 176.492C37.6057 176.492 40.4889 164.038 43.748 161.286C45.3248 159.992 47.511 159.22 49.8336 159.138C52.1561 159.055 54.4282 159.668 56.1582 160.845C57.8881 162.021 58.9367 163.666 59.0771 165.423C59.2174 167.18 58.4382 168.909 56.9081 170.234V170.234Z" fill="black"/>
<path opacity="0.25" d="M61.7992 197.134C59.1967 200.264 44.1667 205.78 44.1667 205.78C44.1667 205.78 44.2286 193.139 46.8311 190.008C47.4374 189.245 48.2388 188.58 49.1885 188.054C50.1381 187.528 51.2169 187.15 52.3616 186.944C53.5064 186.737 54.694 186.706 55.855 186.851C57.016 186.997 58.127 187.316 59.1229 187.791C60.1189 188.265 60.9797 188.886 61.655 189.615C62.3304 190.345 62.8066 191.169 63.0558 192.04C63.3051 192.911 63.3223 193.811 63.1065 194.686C62.8907 195.562 62.4463 196.397 61.7992 197.141V197.134Z" fill="black"/>
<path opacity="0.25" d="M11.2331 156.012C15.734 157.453 32.2198 155.443 32.2198 155.443C32.2198 155.443 22.6185 145.096 18.1176 143.655C17.0461 143.313 15.896 143.134 14.733 143.128C13.5701 143.122 12.417 143.29 11.3397 143.622C10.2623 143.954 9.28182 144.443 8.45413 145.061C7.62643 145.68 6.96776 146.416 6.51571 147.227C6.06366 148.038 5.8271 148.909 5.81952 149.79C5.81195 150.67 6.03351 151.543 6.47156 152.359C6.90961 153.175 7.55556 153.917 8.37254 154.544C9.18953 155.171 10.1615 155.669 11.2331 156.012V156.012Z" fill="black"/>
<path opacity="0.25" d="M17.4946 187.414C22.357 187.775 37.2918 182.115 37.2918 182.115C37.2918 182.115 24.0318 174.435 19.1693 174.082C17.9968 173.974 16.8076 174.044 15.6718 174.29C14.536 174.535 13.4767 174.951 12.5563 175.511C11.6359 176.072 10.8731 176.766 10.3129 177.553C9.75275 178.341 9.4065 179.205 9.29464 180.095C9.18278 180.986 9.30756 181.884 9.66162 182.737C10.0157 183.59 10.5919 184.381 11.3562 185.063C12.1204 185.745 13.0574 186.304 14.1116 186.707C15.1659 187.11 16.3162 187.35 17.4946 187.411V187.414Z" fill="black"/>
<path opacity="0.25" d="M29.0988 217.3C33.8138 218.269 49.7953 214.609 49.7953 214.609C49.7953 214.609 38.4384 205.34 33.7234 204.375C32.5947 204.126 31.4117 204.05 30.2437 204.151C29.0756 204.252 27.946 204.528 26.9207 204.964C25.8954 205.4 24.9951 205.986 24.2724 206.688C23.5497 207.39 23.0192 208.194 22.7118 209.053C22.4044 209.912 22.3263 210.809 22.482 211.692C22.6378 212.574 23.0244 213.424 23.6191 214.192C24.2138 214.96 25.0047 215.63 25.9456 216.164C26.8864 216.698 27.9584 217.084 29.0988 217.3V217.3Z" fill="black"/>
<path opacity="0.1" d="M220.524 180.282C211.484 180.13 201.774 180.472 194.589 183.164C181.268 188.142 183.061 198.24 174.374 205.247C167.037 211.162 153.016 214.235 139.418 216.194C117.266 219.39 94.0332 220.586 72.0331 224.019C59.0633 226.044 46.1887 228.987 37.3011 234.023C28.4135 239.059 24.4265 246.57 30.4356 252.529C35.9927 258.037 48.2345 260.984 59.3821 263.837C70.5296 266.69 82.3385 270.433 85.4406 276.381C87.1677 279.691 85.8831 283.261 87.9004 286.529C91.8779 292.977 106.775 296.021 120.158 297.668C130.849 298.983 141.716 299.952 152.668 300.55C161.418 301.036 170.367 301.292 178.955 300.344C186.392 299.523 193.276 297.823 200.408 296.515C245.722 288.161 297.839 295.387 344.056 288.312C352.468 287.033 360.742 285.232 367.117 282.285C371.875 280.095 375.396 277.357 378.36 274.518C385.906 267.313 390.04 259.233 390.359 251.131C390.549 246.275 389.407 241.368 391.163 236.584C393.004 231.606 397.919 227.027 400.536 222.131C405.294 213.233 401.963 203.399 391.605 195.7C387.908 192.863 383.375 190.729 378.379 189.475C374.192 188.459 369.51 188.07 364.9 187.674C352.054 186.618 339.041 185.559 326.081 186.154C316.86 186.579 307.835 187.836 298.586 188.063C285.606 188.383 275.439 186.118 263.673 183.988C250.137 181.56 234.907 180.519 220.524 180.282Z" fill="#AD63FF"/>
<path d="M57.1604 106.636V202.991L226.481 178.088L223.246 104.187L57.1604 106.636Z" fill="#DBACA2"/>
<path d="M375.443 220.244V252.089L196.416 291.695L194.59 290.978L52.9829 235.349V103.675L228.232 99.3882L229.312 172.471L222.299 174.107L219.601 105.75L65.3818 109.799L64.3065 208.809L198.572 253.314L198.676 253.296L375.443 220.244Z" fill="#E8C2B8"/>
<path opacity="0.1" d="M375.443 220.244V252.089L196.417 291.695L194.59 290.978L198.677 253.296L375.443 220.244Z" fill="black"/>
<path d="M159.615 174.002C159.615 174.002 72.9371 180.552 64.5205 190.037C56.104 199.522 64.4492 211.158 64.4492 211.158L198.448 255.252L380.168 219.732C380.168 219.732 375.315 194.825 360.218 191.968C345.122 189.111 224.859 169.514 224.859 169.514C224.859 169.514 176.329 167.266 159.615 174.002Z" fill="#EBECF0"/>
<path d="M64.4397 190.127L201.136 225.853C201.136 225.853 346.939 192.379 367.593 195.531C367.593 195.531 265.6 167.889 224.859 169.092C192.391 170.051 158.397 174.085 158.397 174.085C158.397 174.085 68.2174 180.944 64.4397 190.127Z" fill="#F8F9FA"/>
<path d="M274.759 213.111L274.792 213.075V213.053L274.816 213.017V212.992V212.956V212.931V212.891V212.866V212.819V212.797C274.816 212.776 274.816 212.754 274.816 212.732C274.816 212.707 274.816 212.682 274.816 212.657C274.816 212.632 274.816 212.657 274.816 212.632C274.816 212.606 274.816 212.596 274.816 212.578V212.545V212.491V212.455V212.401V212.365V212.307V212.271V212.21V212.178L274.778 212.088L274.73 211.987V211.954L274.692 211.882V211.843L274.654 211.774L274.63 211.731L274.592 211.663L274.564 211.616L274.521 211.547L274.492 211.504L274.44 211.428L274.411 211.389L274.34 211.284L274.254 211.162L274.226 211.122L274.164 211.036L274.131 210.989L274.069 210.91L274.031 210.859L273.969 210.78L273.864 210.661L273.798 210.582L273.755 210.531L273.683 210.445L273.645 210.398L273.55 210.283V210.261L273.431 210.124L273.393 210.085L273.307 209.987L273.26 209.937L273.179 209.851L273.131 209.796L273.051 209.71L272.998 209.652L272.913 209.58L272.86 209.526L272.77 209.433L272.722 209.386L272.603 209.263V209.245L272.465 209.101L272.418 209.051L272.327 208.957L272.266 208.896L272.18 208.809L272.118 208.748L272.032 208.662L271.971 208.604L271.88 208.514L271.818 208.456L271.723 208.363L271.666 208.309L271.552 208.201L271.514 208.165C271.086 207.754 270.643 207.343 270.201 206.947C268.953 205.824 267.424 204.898 265.704 204.222C263.983 203.547 262.103 203.135 260.171 203.009C259.776 202.984 259.362 202.952 258.944 202.912H258.768L258.458 202.88H258.311L257.835 202.829L257.383 202.775L257.226 202.754L256.907 202.71L256.717 202.682L256.427 202.638L256.222 202.606L255.946 202.559L255.737 202.523L255.461 202.473L255.247 202.433L254.976 202.379L254.762 202.336L254.49 202.278C253.063 200.671 250.893 199.241 248.781 198.964C248.199 198.896 247.604 198.919 247.035 199.032L246.935 198.949L246.792 198.827L246.602 198.643L246.478 198.521L246.278 198.308L246.178 198.204C246.08 198.096 245.987 197.985 245.898 197.872C245.617 197.778 245.323 197.706 245.022 197.66C249.232 197.177 253.384 196.436 257.435 195.444C257.632 195.388 257.819 195.314 257.992 195.225L258.078 195.203C261.603 194.23 265.933 184.756 262.888 183.43C259.843 182.104 255.195 171.182 252.468 165.587C249.742 159.992 241.887 159.398 241.887 159.398C241.887 159.398 230.506 152.723 225.377 153.45C220.248 154.178 219.444 148.353 218.964 148.112C218.908 148.076 218.861 148.034 218.826 147.985C217.589 146.519 207.754 144.563 202.449 143.598C197.263 140.752 191.078 138.543 186.078 137.632C184.407 137.29 182.655 137.245 180.958 137.501C179.261 137.758 177.665 138.308 176.296 139.109C165.791 139.512 164.116 145.521 164.116 145.521C164.08 146.341 164.268 147.158 164.668 147.921C164.1 147.926 163.533 147.904 162.969 147.852C164.187 146.328 164.225 144.369 165.134 142.693C166.928 139.379 171.876 137.668 176.553 137.221C179.279 136.962 182.262 136.962 184.413 135.669C185.52 134.999 186.275 134.053 186.544 132.999C186.631 132.772 186.604 132.528 186.468 132.315C186.335 132.177 186.156 132.067 185.949 131.998C183.133 130.859 179.74 131.155 176.543 131.101C171.348 131.014 166.285 129.937 161.261 128.939C159.134 128.518 156.836 128.111 154.781 128.709C152.84 129.271 151.517 130.611 149.961 131.652C143.586 135.91 133 135.294 127.328 140.092C126.015 141.206 125.03 142.715 125.511 144.163C125.706 144.754 126.139 145.298 126.277 145.9C126.553 147.088 125.658 148.227 124.902 149.29C124.145 150.352 123.475 151.642 124.188 152.723C125.268 154.373 128.565 154.25 130.278 155.558C131.073 156.167 131.458 157.038 132.286 157.618C133.614 158.544 135.655 158.472 137.453 158.339C138.162 158.289 139.223 158.141 139.613 157.669C141.004 158.66 142.68 159.392 144.509 159.809C146.337 160.226 148.269 160.316 150.151 160.071C152.034 159.827 153.815 159.255 155.356 158.4C156.897 157.546 158.154 156.432 159.03 155.147C162.905 154.949 166.757 155.738 169.973 157.388C170.457 158.469 171.347 159.42 172.532 160.126C173.655 160.792 174.992 161.61 176.339 162.485C172.927 163.166 169.897 163.602 169.897 163.602C169.897 163.602 156.432 166.88 156.432 169.063C156.48 169.459 156.642 169.841 156.908 170.184C156.567 170.727 156.374 171.316 156.342 171.917C152.626 171.441 149.652 170.724 148.115 169.669C148.115 169.669 147.678 169.579 147.002 169.478C146.098 168.602 143.443 166.171 141.864 166.268C140.812 166.333 140.436 168.184 140.303 169.842C140.165 169.932 140.043 170.036 139.941 170.151C138.338 171.971 141.226 175.613 143.148 176.222C145.07 176.83 155.652 176.582 162.865 180.591C166.062 182.367 171.557 182.71 176.662 182.544C171.528 185.289 164.339 189.507 163.34 192.123C162.803 193.51 162.17 195.232 162.208 197.001C159.068 200.145 154.315 206.785 166.067 209.969C175.753 212.588 202.017 212.253 220.729 211.612C229.436 212.776 236.625 213.946 239.641 215.067C239.641 215.067 246.854 215.787 249.742 217.131C252.63 218.475 257.916 218.104 257.916 218.104C257.916 218.104 268.174 219.44 270.419 221.137C272.665 222.834 276.509 218.223 271.704 216.04C269.83 215.189 267.037 213.788 264.33 212.253C267.807 212.563 270.876 212.902 272.827 213.248L273.022 213.28H273.084H273.208H273.279H273.384H273.45H273.55H274.026H274.15H274.188H274.264H274.307H274.368H274.407H274.464H274.502L274.554 213.262H274.587L274.635 213.237H274.659L274.721 213.197L274.759 213.111ZM230.478 201.475C230.478 201.475 229.126 201.241 227.109 200.88L223.103 199.656C223.103 199.656 229.94 198.027 236.273 195.956C238.085 196.557 239.679 197.037 240.079 197.472C240.251 197.617 240.486 197.71 240.74 197.735C238.361 198.182 235.307 199.331 231.724 201.983C231.29 201.842 230.873 201.672 230.478 201.475V201.475ZM182.072 172.223L186.026 170.832C186.887 171.387 187.81 171.913 188.714 172.425C186.544 172.522 183.628 172.63 180.33 172.698C181.339 172.443 182.072 172.223 182.072 172.223Z" fill="url(#paint0_linear_115_293)"/>
<path d="M148.382 169.903C148.382 169.903 144.928 166.351 143.048 166.459C141.169 166.567 141.478 172.518 141.478 172.518L148.382 169.903Z" fill="#FFD5D8"/>
<path d="M192.791 172.28C192.791 172.28 156.07 174.539 149.167 169.784C149.167 169.784 142.734 168.476 141.164 170.26C139.594 172.043 142.42 175.606 144.304 176.2C146.188 176.794 156.546 176.56 163.607 180.476C170.667 184.392 189.185 181.197 189.185 181.197L196.873 178.938L192.791 172.28Z" fill="#FF7C5E"/>
<path opacity="0.05" d="M192.791 172.28C192.791 172.28 156.07 174.539 149.167 169.784C149.167 169.784 142.734 168.476 141.164 170.26C139.594 172.043 142.42 175.606 144.304 176.2C146.188 176.794 156.546 176.56 163.607 180.476C170.667 184.392 189.185 181.197 189.185 181.197L196.873 178.938L192.791 172.28Z" fill="black"/>
<path d="M245.36 185.588C245.36 185.588 237.514 181.312 221.352 186.669C205.19 192.026 164.863 194.868 164.863 194.868C164.863 194.868 151.37 205.085 166.766 209.245C182.162 213.406 240.203 209.966 240.203 209.966C240.203 209.966 263.897 211.155 271.271 212.462C275.734 213.255 272.223 209.429 268.726 206.288C267.505 205.187 266.009 204.28 264.324 203.619C262.638 202.957 260.797 202.554 258.906 202.433C254.271 202.134 247.844 201.032 244.903 197.372C244.903 197.372 239.256 195.232 230.782 201.648L222.608 199.133C222.608 199.133 245.046 193.787 245.831 190.221C246.616 186.654 245.36 185.588 245.36 185.588Z" fill="#FFD5D8"/>
<path opacity="0.05" d="M245.36 185.588C245.36 185.588 237.515 181.312 221.352 186.669C205.19 192.026 164.863 194.868 164.863 194.868C164.863 194.868 151.37 205.085 166.766 209.245C182.162 213.406 240.203 209.966 240.203 209.966C240.203 209.966 263.897 211.155 271.271 212.462C275.182 213.154 272.96 210.301 270.015 207.484C268.546 206.069 266.723 204.888 264.649 204.008C262.575 203.129 260.291 202.569 257.93 202.361C253.41 201.972 247.644 200.78 244.908 197.372C244.908 197.372 239.261 195.232 230.787 201.648L222.608 199.133C222.608 199.133 245.046 193.787 245.831 190.221C246.616 186.654 245.36 185.588 245.36 185.588Z" fill="black"/>
<path d="M245.517 168.718C245.517 168.718 235.63 156.83 212.251 167.172L182.276 179.781C182.276 179.781 165.624 187.742 164.073 191.781C162.522 195.819 160.148 202.711 176.472 205.326C192.796 207.941 230.768 211.266 238.771 214.238C238.771 214.238 245.831 214.959 248.657 216.259C251.483 217.56 256.66 217.21 256.66 217.21C256.66 217.21 266.704 218.518 268.902 220.182C271.1 221.847 274.863 217.329 270.158 215.193C265.452 213.057 254.781 207.351 254.933 205.106C255.085 202.862 251.322 198.896 247.696 198.413C244.071 197.93 239.38 201.976 239.38 201.976C239.38 201.976 233.418 202.696 229.807 200.895C229.807 200.895 211.289 197.685 209.405 196.738C207.521 195.79 194.656 192.105 194.656 192.105C194.656 192.105 225.106 191.867 234.041 185.689C234.041 185.689 237.495 183.787 240.317 184.381C240.341 184.399 254.305 180.361 245.517 168.718Z" fill="#FFD5D8"/>
<path d="M156.541 146.379C156.541 146.379 165.486 151.13 172.39 146.379C179.293 141.627 175.378 160.994 175.378 160.994C175.378 160.994 165.805 151.368 151.527 157.669L156.541 146.379Z" fill="#FFD5D8"/>
<path opacity="0.05" d="M156.541 146.379C156.541 146.379 165.486 151.13 172.39 146.379C179.293 141.627 175.378 160.994 175.378 160.994C175.378 160.994 165.805 151.368 151.527 157.669L156.541 146.379Z" fill="black"/>
<path d="M118.255 187.133C118.255 187.133 127.671 181.074 133.004 180.955C134.593 180.919 136.43 179.694 138.238 177.994C140.522 175.846 143.534 174.208 146.953 173.256C150.371 172.304 154.067 172.074 157.645 172.59C160.681 173.015 164.415 173.005 168.95 172.154C185.426 169.063 177.266 161.347 177.266 161.347L172.09 158.022C172.09 158.022 165.029 154.34 162.36 154.578C159.691 154.816 152.787 160.162 152.002 159.567C151.217 158.973 141.645 153.627 140.074 152.2C138.504 150.774 125.944 146.141 129.084 144.833C132.224 143.526 148.068 138.655 144.927 137.704C141.787 136.753 124.84 135.326 118.25 141.267C111.661 147.207 114.953 183.686 118.255 187.133Z" fill="#F8F9FA"/>
<path opacity="0.05" d="M118.255 187.133C118.255 187.133 127.671 181.074 133.004 180.955C134.593 180.919 136.43 179.694 138.238 177.994C140.522 175.846 143.534 174.208 146.953 173.256C150.371 172.304 154.067 172.074 157.645 172.59C160.681 173.015 164.415 173.005 168.95 172.154C185.426 169.063 177.266 161.347 177.266 161.347L172.09 158.022C172.09 158.022 165.029 154.34 162.36 154.578C159.691 154.816 152.787 160.162 152.002 159.567C151.217 158.973 141.645 153.627 140.074 152.2C138.504 150.774 125.944 146.141 129.084 144.833C132.224 143.526 148.068 138.655 144.927 137.704C141.787 136.753 124.84 135.326 118.25 141.267C111.661 147.207 114.953 183.686 118.255 187.133Z" fill="black"/>
<path d="M118.883 186.301C118.883 186.301 128.299 180.242 133.633 180.123C135.222 180.087 137.058 178.862 138.866 177.162C141.147 175.016 144.156 173.379 147.569 172.427C150.983 171.475 154.675 171.242 158.249 171.754C161.285 172.18 165.02 172.169 169.554 171.319C186.03 168.228 177.871 160.511 177.871 160.511L172.694 157.186C172.694 157.186 165.634 153.504 162.964 153.742C160.295 153.98 153.392 159.326 152.607 158.732C151.822 158.137 142.249 152.791 140.679 151.365C139.109 149.938 126.572 145.309 129.703 144.016C132.833 142.722 148.691 137.837 145.551 136.886C142.411 135.935 125.463 134.509 118.874 140.449C112.284 146.39 115.586 182.854 118.883 186.301Z" fill="#F8F9FA"/>
<path d="M164.858 146.141C164.858 146.141 167.37 137.11 185.73 140.676C204.091 144.242 213.193 151.963 213.193 151.963L196.54 157.784L176.139 152.557C176.139 152.557 164.706 152.661 164.858 146.141Z" fill="#FFD5D8"/>
<path opacity="0.05" d="M198.443 143.882C198.443 143.882 216.099 146.764 217.765 148.749C217.8 148.796 217.847 148.838 217.903 148.872C218.378 149.109 219.159 154.812 224.178 154.099C229.198 153.386 240.355 159.92 240.355 159.92C240.355 159.92 248.043 160.515 250.712 165.98C253.382 171.445 257.93 182.14 260.913 183.445C263.896 184.749 259.657 194.018 256.208 194.972C252.758 195.927 240.359 198.182 239.26 196.993C238.161 195.805 228.589 194.497 229.217 190.696C229.845 186.896 233.608 183.329 230.644 181.07C227.68 178.812 225.782 172.871 221.385 171.682C216.989 170.494 209.144 170.137 204.438 172.515C199.733 174.892 194.047 174.997 194.047 174.997C194.047 174.997 184.317 170.721 182.747 167.749C181.691 165.746 176.429 162.395 173.108 160.425C172.238 159.907 171.527 159.253 171.024 158.506C170.522 157.76 170.241 156.939 170.201 156.102C170.063 153.169 169.939 148.846 170.348 148.148C170.976 147.067 179.607 140.662 179.607 140.662L198.443 143.882Z" fill="black"/>
<path d="M199.071 143.655C199.071 143.655 216.728 146.537 218.393 148.522C218.428 148.569 218.475 148.611 218.531 148.645C219.007 148.882 219.787 154.585 224.806 153.872C229.826 153.159 240.983 159.693 240.983 159.693C240.983 159.693 248.672 160.288 251.341 165.753C254.01 171.218 258.558 181.913 261.541 183.217C264.525 184.522 260.285 193.791 256.836 194.745C253.387 195.7 240.988 197.955 239.889 196.766C238.79 195.577 229.217 194.27 229.845 190.469C230.473 186.669 234.236 183.102 231.272 180.843C228.308 178.585 226.41 172.644 222.014 171.455C217.617 170.267 209.772 169.91 205.066 172.288C200.361 174.665 194.161 175.079 194.161 175.079C194.161 175.079 184.984 170.504 183.413 167.536C182.357 165.533 177.095 162.183 173.774 160.212C172.904 159.695 172.193 159.04 171.691 158.294C171.189 157.547 170.908 156.726 170.867 155.889C170.729 152.957 170.605 148.634 171.015 147.935C171.643 146.854 180.273 140.449 180.273 140.449L199.071 143.655Z" fill="#FF7C5E"/>
<path d="M158.426 169.427C158.269 169.546 155.599 172.518 158.74 174.179C159.608 174.661 160.612 174.986 161.673 175.128C162.734 175.269 163.824 175.225 164.858 174.997L158.426 169.427Z" fill="#FFD5D8"/>
<path opacity="0.1" d="M173.474 143.526C173.474 143.526 177.714 137.11 186.796 138.774C195.879 140.438 209.077 146.498 212.217 152.557C215.357 158.616 200.323 165.991 200.323 165.991L182.433 172.288C182.433 172.288 176.943 173.952 175.373 173.368C173.803 172.785 166.271 177.879 166.271 177.879C166.271 177.879 157.797 171.7 157.797 169.561C157.797 167.421 170.981 164.189 170.981 164.189C170.981 164.189 186.682 161.931 186.515 159.675C186.515 159.675 189.185 157.298 187.772 156.585C186.358 155.871 171.214 152.485 171.214 152.485C171.214 152.485 170.667 144.952 173.474 143.526Z" fill="black"/>
<path d="M172.999 143.169C172.999 143.169 177.238 136.753 186.32 138.417C195.403 140.082 208.601 146.141 211.741 152.2C214.882 158.26 199.852 165.63 199.852 165.63L181.962 171.927C181.962 171.927 176.472 173.592 174.902 173.008C173.332 172.425 165.8 177.518 165.8 177.518C165.8 177.518 157.326 171.34 157.326 169.2C157.326 167.06 170.51 163.829 170.51 163.829C170.51 163.829 186.211 161.57 186.045 159.315C186.045 159.315 188.714 156.938 187.301 156.224C185.888 155.511 170.743 152.125 170.743 152.125C170.743 152.125 170.196 144.596 172.999 143.169Z" fill="#FF7C5E"/>
<path opacity="0.1" d="M152.935 156.476C155.48 155.303 158.346 154.584 161.313 154.376C162.174 153.119 159.915 151.75 159.915 150.237C159.915 148.969 159.277 148.486 158.658 147.384C156.413 146.768 157.954 145.186 157.954 145.186L152.935 156.476Z" fill="black"/>
<path d="M149.167 160.518C155.841 160.518 161.251 156.422 161.251 151.368C161.251 146.315 155.841 142.218 149.167 142.218C142.492 142.218 137.082 146.315 137.082 151.368C137.082 156.422 142.492 160.518 149.167 160.518Z" fill="#FFD5D8"/>
<path d="M140.108 155.122C142.806 153.544 146.317 153.015 149.714 152.784C151.836 152.64 153.996 152.589 156.032 152.099C157.203 151.79 158.34 151.41 159.429 150.961C160.885 150.399 162.389 149.808 163.383 148.825C164.934 147.29 164.887 145.165 165.857 143.374C167.613 140.132 172.456 138.453 177.052 138.017C179.721 137.762 182.638 137.762 184.75 136.497C185.834 135.842 186.575 134.916 186.839 133.885C186.924 133.663 186.897 133.424 186.763 133.215C186.632 133.08 186.456 132.973 186.254 132.906C183.494 131.792 180.173 132.081 177.048 132.027C171.961 131.944 167.004 130.885 162.084 129.908C160 129.494 157.75 129.098 155.742 129.681C153.839 130.233 152.55 131.544 151.022 132.563C144.78 136.735 134.418 136.13 128.865 140.827C127.581 141.908 126.615 143.396 127.086 144.812C127.281 145.392 127.7 145.921 127.838 146.512C128.109 147.676 127.233 148.792 126.491 149.83C125.749 150.867 125.102 152.136 125.792 153.191C126.853 154.805 130.074 154.686 131.753 155.965C132.534 156.559 132.905 157.406 133.718 157.982C135.022 158.89 137.015 158.818 138.776 158.703C139.727 158.634 141.283 158.397 141.012 157.431C140.784 156.567 139.275 156.195 140.108 155.122Z" fill="#85596B"/>
<path d="M135.888 160.587C135.888 160.587 144.128 155.904 149.305 157.438C154.481 158.973 155.894 159.816 159.191 158.879C162.489 157.943 163.897 160.781 163.897 160.781L143.362 165.27L135.888 160.587Z" fill="#F8F9FA"/>
<path opacity="0.05" d="M124.769 168.775C124.769 168.775 128.537 161.408 133.085 159.982Z" fill="black"/>
<path opacity="0.05" d="M119.901 166.398C119.901 166.398 123.67 159.031 128.218 157.604Z" fill="black"/>
<path opacity="0.05" d="M208.092 168.181C208.092 168.181 221.414 163.31 230.373 163.786C239.332 164.261 240.888 159.985 240.888 159.985" fill="black"/>
<path d="M150.461 289.786C149.352 289.004 148.31 288.082 147.987 286.961C147.663 285.841 148.296 284.494 149.714 284.079C151.298 283.618 152.997 284.439 154.281 285.293C155.566 286.147 157.041 287.095 158.72 286.914C157.855 286.32 157.208 285.567 156.842 284.727C156.476 283.887 156.404 282.99 156.632 282.123C156.705 281.765 156.906 281.429 157.212 281.15C158.092 280.43 159.691 280.743 160.742 281.305C164.073 283.107 165.024 286.54 165.048 289.645C165.386 288.525 165.101 287.358 165.11 286.208C165.12 285.059 165.534 283.787 166.813 283.168C167.61 282.843 168.507 282.684 169.411 282.707C170.919 282.663 172.599 282.779 173.627 283.615C174.906 284.652 174.578 286.392 173.46 287.534C172.342 288.676 170.653 289.393 169.097 290.182C167.848 290.746 166.783 291.515 165.981 292.433C165.886 292.562 165.808 292.697 165.748 292.837H156.303C154.183 292.024 152.218 290.998 150.461 289.786V289.786Z" fill="#AD63FF"/>
<path d="M368.62 257.669C367.884 257.215 367.349 256.602 367.084 255.911C366.884 255.213 367.279 254.377 368.159 254.11C369.144 253.826 370.2 254.341 371.014 254.867C371.827 255.393 372.726 255.987 373.773 255.875C373.235 255.506 372.832 255.038 372.605 254.516C372.377 253.993 372.332 253.435 372.474 252.896C372.52 252.673 372.645 252.464 372.836 252.291C373.383 251.848 374.377 252.039 375.034 252.388C377.118 253.498 377.698 255.63 377.713 257.572C377.922 256.877 377.746 256.149 377.751 255.436C377.755 254.723 378.012 253.93 378.812 253.548C379.308 253.346 379.866 253.246 380.429 253.26C381.381 253.235 382.409 253.307 383.051 253.826C383.845 254.471 383.641 255.551 382.946 256.261C382.252 256.971 381.2 257.417 380.234 257.907C379.458 258.258 378.796 258.737 378.298 259.309C378.24 259.388 378.192 259.471 378.155 259.557H372.251C370.934 259.055 369.713 258.42 368.62 257.669Z" fill="#AD63FF"/>
<path d="M503 48C503 66.7777 485.315 82 463.5 82C441.685 82 424 66.7777 424 48C424 29.2223 441.685 14 463.5 14C485.315 14 503 29.2223 503 48Z" fill="#F7F05A" fill-opacity="0.84"/>
<g style="mix-blend-mode:multiply">
<ellipse cx="475.014" cy="65.4322" rx="3.03846" ry="2.44915" fill="#C4C4C4"/>
</g>
<g style="mix-blend-mode:multiply">
<ellipse cx="463.34" cy="50.4492" rx="2.5587" ry="2.44915" fill="#C4C4C4"/>
</g>
<g style="mix-blend-mode:multiply">
<ellipse cx="489.567" cy="38.9237" rx="9.91498" ry="11.6695" fill="#C4C4C4"/>
</g>
<g style="mix-blend-mode:multiply">
<ellipse cx="440.152" cy="31.5763" rx="2.39879" ry="2.59322" fill="#C4C4C4"/>
</g>
<g style="mix-blend-mode:multiply">
<ellipse cx="442.231" cy="48" rx="2.23887" ry="2.59322" fill="#C4C4C4"/>
</g>
<g style="mix-blend-mode:multiply">
<ellipse cx="441.271" cy="63.1271" rx="7.99595" ry="4.75424" fill="#C4C4C4"/>
</g>
<g style="mix-blend-mode:multiply">
<ellipse cx="486.368" cy="61.1102" rx="6.71659" ry="4.17797" fill="#C4C4C4"/>
</g>
<g style="mix-blend-mode:multiply">
<ellipse cx="459.662" cy="37.339" rx="6.23684" ry="5.76271" fill="#C4C4C4"/>
</g>
<defs>
<linearGradient id="paint0_linear_115_293" x1="199.424" y1="221.504" x2="199.424" y2="128.406" gradientUnits="userSpaceOnUse">
<stop stop-color="#808080" stop-opacity="0.25"/>
<stop offset="0.54" stop-color="#808080" stop-opacity="0.12"/>
<stop offset="1" stop-color="#808080" stop-opacity="0.1"/>
</linearGradient>
</defs>
</svg>
